<svg xmlns="http://www.w3.org/2000/svg" xmlns:xlink="http://www.w3.org/1999/xlink" width="220" height="66" viewBox="0 0 220 66">
  <defs>
    <linearGradient id="linear-gradient" x1="0.808" y1="0.5" x2="-1.573" y2="0.5" gradientUnits="objectBoundingBox">
      <stop offset="0" stop-color="gold"/>
      <stop offset="0.075" stop-color="#fece00"/>
      <stop offset="0.48" stop-color="#fca704"/>
      <stop offset="0.803" stop-color="#fa8e07"/>
      <stop offset="1" stop-color="#fa8608"/>
    </linearGradient>
    <linearGradient id="linear-gradient-2" x1="0.862" y1="0.178" x2="-0.501" y2="1.948" gradientUnits="objectBoundingBox">
      <stop offset="0" stop-color="#e82b36"/>
      <stop offset="1" stop-color="#b4005a"/>
    </linearGradient>
    <linearGradient id="linear-gradient-3" x1="-0.507" y1="-0.956" x2="0.606" y2="0.489" gradientUnits="objectBoundingBox">
      <stop offset="0" stop-color="#2f8e5b"/>
      <stop offset="0.39" stop-color="#4ea157"/>
      <stop offset="0.768" stop-color="#67b054"/>
      <stop offset="1" stop-color="#70b653"/>
    </linearGradient>
  </defs>
  <g id="Group_3832" data-name="Group 3832" transform="translate(-579 -769.5)">
    <rect id="Rectangle_1497" data-name="Rectangle 1497" width="218" height="64" rx="32" transform="translate(580 770.5)" fill="#fff" stroke="#eba900" stroke-width="2"/>
    <g id="Group_3829" data-name="Group 3829" transform="translate(618 786)">
      <g id="Group_9" data-name="Group 9" transform="translate(0 0.247)">
        <path id="Path_24" data-name="Path 24" d="M124.693,127.788a5.186,5.186,0,1,0,5.206,5.186A5.112,5.112,0,0,0,124.693,127.788Zm0,8.329a3.151,3.151,0,1,1,2.927-3.143A3,3,0,0,1,124.693,136.117Zm-11.355-8.329a5.186,5.186,0,1,0,5.2,5.186A5.111,5.111,0,0,0,113.337,127.788Zm0,8.329a3.151,3.151,0,1,1,2.926-3.143A3,3,0,0,1,113.337,136.117Zm-13.508-6.738v2.2h5.264a4.592,4.592,0,0,1-1.2,2.77,5.393,5.393,0,0,1-4.066,1.61,5.854,5.854,0,0,1,0-11.707,5.611,5.611,0,0,1,3.968,1.571l1.552-1.552a7.675,7.675,0,0,0-5.52-2.22,8.055,8.055,0,1,0,0,16.108,7.365,7.365,0,0,0,5.618-2.259,7.272,7.272,0,0,0,1.905-5.147,7.152,7.152,0,0,0-.118-1.375Zm55.244,1.709a4.82,4.82,0,0,0-4.44-3.3,4.928,4.928,0,0,0-4.89,5.186,5.075,5.075,0,0,0,5.146,5.186,5.158,5.158,0,0,0,4.322-2.3l-1.768-1.179a2.963,2.963,0,0,1-2.554,1.434,2.637,2.637,0,0,1-2.514-1.572l6.934-2.868ZM148,132.817a2.845,2.845,0,0,1,2.711-3.025,2.007,2.007,0,0,1,1.925,1.1Zm-5.637,5.028h2.278V122.6h-2.278Zm-3.733-8.9h-.078a3.6,3.6,0,0,0-2.731-1.159,5.191,5.191,0,0,0,0,10.372,3.537,3.537,0,0,0,2.731-1.179h.078v.746c0,1.985-1.061,3.045-2.769,3.045a2.869,2.869,0,0,1-2.612-1.847l-1.985.825a4.943,4.943,0,0,0,4.6,3.065c2.671,0,4.931-1.572,4.931-5.4V128.1h-2.161Zm-2.612,7.17a3.154,3.154,0,0,1,0-6.286,3.168,3.168,0,0,1,0,6.286ZM165.746,122.6h-5.451v15.243h2.274V132.07h3.177a4.741,4.741,0,1,0,0-9.468Zm.059,7.347h-3.236v-5.225H165.8a2.613,2.613,0,1,1,0,5.225Zm14.06-2.189a4.272,4.272,0,0,0-4.06,2.333l2.02.844a2.155,2.155,0,0,1,2.079-1.118,2.191,2.191,0,0,1,2.393,1.961v.157a5.041,5.041,0,0,0-2.374-.588c-2.176,0-4.392,1.2-4.392,3.432a3.521,3.521,0,0,0,3.785,3.353,3.208,3.208,0,0,0,2.9-1.49h.079v1.177h2.2v-5.843C184.493,129.27,182.473,127.76,179.865,127.76Zm-.274,8.354c-.745,0-1.785-.373-1.785-1.294,0-1.177,1.294-1.628,2.412-1.628a4.053,4.053,0,0,1,2.079.51A2.758,2.758,0,0,1,179.59,136.114Zm12.9-8.02-2.609,6.608h-.078l-2.706-6.608H184.65l4.059,9.236-2.314,5.137h2.373l6.256-14.374ZM172,137.845h2.274V122.6H172Z" transform="translate(-53.776 -109.985)"/>
        <g id="Group_8" data-name="Group 8" transform="translate(0)">
          <path id="Path_25" data-name="Path 25" d="M42.25,106.744a2.44,2.44,0,0,0-.563,1.712V135.4a2.438,2.438,0,0,0,.563,1.711l.09.089,15.093-15.093v-.356L42.34,106.656Z" transform="translate(-41.687 -106.26)" fill="#40bff2"/>
          <path id="Path_26" data-name="Path 26" d="M67.49,130.349l-5.031-5.033v-.356l5.032-5.032.113.064,5.961,3.387c1.7.967,1.7,2.55,0,3.517L67.6,130.284Z" transform="translate(-46.712 -109.471)" fill="url(#linear-gradient)"/>
          <path id="Path_27" data-name="Path 27" d="M62.759,131.947,57.614,126.8,42.43,141.984a1.982,1.982,0,0,0,2.532.075l17.8-10.112" transform="translate(-41.867 -111.133)" fill="url(#linear-gradient-2)"/>
          <path id="Path_28" data-name="Path 28" d="M62.759,116.655l-17.8-10.112a1.982,1.982,0,0,0-2.532.074L57.614,121.8Z" transform="translate(-41.867 -106.133)" fill="url(#linear-gradient-3)"/>
        </g>
      </g>
      <g id="Group_10" data-name="Group 10" transform="translate(38.388 0)">
        <path id="Path_29" data-name="Path 29" d="M97.677,107.4a2.6,2.6,0,0,0-1.728-.666,2.756,2.756,0,0,0,0,5.507,2.08,2.08,0,0,0,2.29-1.937H96.2v-.843h3.144c0,2.52-1.343,3.706-3.394,3.706a3.681,3.681,0,0,1,0-7.36,3.545,3.545,0,0,1,2.426.948Z" transform="translate(-92.326 -105.808)"/>
        <path id="Path_30" data-name="Path 30" d="M107.576,105.918v.905H104.3v2.291h2.863v.906H104.3v2.165h3.383v.906h-4.351v-7.173Z" transform="translate(-94.988 -105.835)"/>
        <path id="Path_31" data-name="Path 31" d="M115.512,105.918v.916h-2.176v6.257h-.978v-6.257h-2.176v-.916Z" transform="translate(-96.645 -105.835)"/>
        <path id="Path_32" data-name="Path 32" d="M123.031,105.918v7.173h-.968v-7.173Z" transform="translate(-99.52 -105.835)"/>
        <path id="Path_33" data-name="Path 33" d="M130.346,105.918v.916h-2.176v6.257h-.978v-6.257h-2.176v-.916Z" transform="translate(-100.234 -105.835)"/>
        <path id="Path_34" data-name="Path 34" d="M139.9,105.808a3.681,3.681,0,1,1-3.623,3.686A3.638,3.638,0,0,1,139.9,105.808Zm0,6.423a2.745,2.745,0,1,0-2.655-2.737A2.673,2.673,0,0,0,139.9,112.231Z" transform="translate(-102.959 -105.808)"/>
        <path id="Path_35" data-name="Path 35" d="M152.067,113.091l-3.269-5.4v5.4h-.968v-7.173h.957l3.238,5.361v-5.361h.968v7.173Z" transform="translate(-105.754 -105.835)"/>
      </g>
    </g>
  </g>
</svg>
