<svg xmlns="http://www.w3.org/2000/svg" width="41" height="41" viewBox="0 0 41 41">
  <g id="Group_12196" data-name="Group 12196" transform="translate(-998.5 -1702.5)">
    <circle id="Ellipse_25" data-name="Ellipse 25" cx="20" cy="20" r="20" transform="translate(999 1703)" fill="#b9b9b9" stroke="rgba(0,0,0,0)" stroke-width="1"/>
    <path id="Path_4415" data-name="Path 4415" d="M.1.33c3.927,0,8.085-2.31,8.085-7.062,0-3.333-2.046-5.181-6.138-6.831L.462-14.19C-2.112-15.18-2.8-16.137-2.8-17.358c0-1.551,1.254-2.376,2.937-2.376,1.716,0,3,.924,3.993,2.805L7.491-18.81A7.949,7.949,0,0,0-.033-23.76c-3.96,0-7.227,2.442-7.227,6.369,0,3.564,2.64,5.346,5.841,6.633L.066-10.2c2.376.957,3.4,1.716,3.4,3.432,0,2.046-1.584,3-3.432,3A4.786,4.786,0,0,1-4.488-7.194L-8.151-5.511C-7.326-2.079-3.993.33.1.33Z" transform="translate(1019.151 1734.76)" fill="#fff"/>
  </g>
</svg>
