<svg xmlns="http://www.w3.org/2000/svg" xmlns:xlink="http://www.w3.org/1999/xlink" width="499.664" height="80.08" viewBox="0 0 499.664 80.08">
  <defs>
    <linearGradient id="linear-gradient" x1="-0.254" y1="-0.613" x2="1.134" y2="0.816" gradientUnits="objectBoundingBox">
      <stop offset="0" stop-color="#fff"/>
      <stop offset="0.127" stop-color="#fde966"/>
      <stop offset="0.66" stop-color="#cf9102"/>
      <stop offset="1" stop-color="#8c3c10"/>
    </linearGradient>
  </defs>
  <path id="Path_55" data-name="Path 55" d="M-259.072,0h9.944V-20.856h11.352c13.464,0,21.912-8.448,21.912-20.768,0-12.408-8.448-20.856-21.912-20.856h-21.3Zm9.944-30.1V-53.24h10.384c7.656,0,12.76,3.608,12.76,11.616s-5.1,11.528-12.76,11.528ZM-207.944,0h9.68V-21.384c0-9.592,5.9-15.928,14.608-15.928a14.565,14.565,0,0,1,2.816.264v-9.24a10.51,10.51,0,0,0-2.9-.352c-8.36,0-12.936,5.808-14.52,12.672V-45.76h-9.68Zm34.5,0h9.68V-45.76h-9.68Zm0-53.768h9.68V-62.48h-9.68ZM-132.352.88c11.88,0,23.936-8.36,23.936-23.76s-12.056-23.76-23.936-23.76-23.936,8.36-23.936,23.76S-144.232.88-132.352.88ZM-146.7-22.88c0-9.416,6.864-14.872,14.344-14.872S-118.1-32.3-118.1-22.88s-6.776,14.872-14.256,14.872S-146.7-13.464-146.7-22.88ZM-100.936,0h9.68V-21.384c0-9.592,5.9-15.928,14.608-15.928a14.565,14.565,0,0,1,2.816.264v-9.24a10.51,10.51,0,0,0-2.9-.352c-8.36,0-12.936,5.808-14.52,12.672V-45.76h-9.68Zm34.5,0h9.68V-45.76h-9.68Zm0-53.768h9.68V-62.48h-9.68ZM-31.064.528c2.464,0,5.456-.44,7.128-1.848V-8.976a12.413,12.413,0,0,1-4.224.792c-3.608,0-5.016-2.024-5.016-4.664v-25.08h9.24V-45.76h-9.24v-11.7h-9.768v11.7H-49.28v7.832h6.336v26.84C-42.944-2.9-38.016.528-31.064.528Zm23.5,16.192H2.024L9.24,0,28.6-45.76H18.568L4.752-11.7-9.152-45.76H-19.1L0-.352ZM84.656.88c16.9,0,30.976-12.5,28.776-33.616H87.472v8.36h16.28C101.992-13.024,93.984-8.36,85.1-8.36c-12.32,0-22.088-9.064-22.088-22.88,0-13.9,9.768-22.616,22.088-22.616,6.248,0,12.848,2.2,17.424,8.536l7.216-5.1C103.136-60.632,92.928-63.36,84.92-63.36c-17.512,0-32.12,12.848-32.12,32.12S67.408.88,84.656.88Zm59.4,0c11.88,0,23.936-8.36,23.936-23.76s-12.056-23.76-23.936-23.76S120.12-38.28,120.12-22.88,132.176.88,144.056.88ZM129.712-22.88c0-9.416,6.864-14.872,14.344-14.872S158.312-32.3,158.312-22.88,151.536-8.008,144.056-8.008,129.712-13.464,129.712-22.88ZM175.472,0h9.68V-62.48h-9.68Zm65.12,0V-62.48h-9.68v24.024h-.264c-1.672-3.608-7.48-8.184-15.84-8.184-10.824,0-22.176,8.008-22.176,23.76S203.984.88,214.808.88c8.36,0,14.168-4.576,15.84-8.184h.264V0ZM202.224-22.88c0-9.856,7.128-14.96,14.432-14.96,7.392,0,14.52,5.1,14.52,14.96s-7.128,14.96-14.52,14.96C209.352-7.92,202.224-13.024,202.224-22.88Z" transform="translate(259.072 63.36)" fill="url(#linear-gradient)"/>
</svg>
