<svg xmlns="http://www.w3.org/2000/svg" width="59.537" height="56.855" viewBox="0 0 59.537 56.855">
  <g id="Group_12472" data-name="Group 12472" transform="translate(460.859 -368.188)">
    <path id="Path_156" data-name="Path 156" d="M-120.477,578.427c-.741,1.5-1.471,1.8-3.09,1.28q-1.626-.526-3.25-1.057a2,2,0,0,1-1.446-2.567,2,2,0,0,1,2.68-1.214c1.067.341,2.12.727,3.2,1.027a2.646,2.646,0,0,1,1.908,1.6Z" transform="translate(-280.844 -174.467)" fill="#fff"/>
    <path id="Path_157" data-name="Path 157" d="M-390.4,388.251a4.4,4.4,0,0,1,3.886,2.636q2.073,4.163,4.1,8.349a.979.979,0,0,0,.87.608q4.631.643,9.251,1.357a4.348,4.348,0,0,1,3.689,3.132,4.393,4.393,0,0,1-1.16,4.76q-3.325,3.3-6.7,6.547a.93.93,0,0,0-.314.956c.547,3.074,1.064,6.153,1.576,9.233a4.392,4.392,0,0,1-1.788,4.506,4.367,4.367,0,0,1-4.922.392c-2.665-1.38-5.323-2.773-7.959-4.2a1.5,1.5,0,0,0-1.636-.008c-2.582,1.411-5.195,2.766-7.8,4.137a4.484,4.484,0,0,1-5.038-.27,4.36,4.36,0,0,1-1.878-4.361c.218-1.594.525-3.176.8-4.762.278-1.625.548-3.251.852-4.871.064-.343-.112-.5-.3-.687-2.274-2.224-4.571-4.425-6.815-6.679a4.626,4.626,0,0,1,.739-7.13,5.223,5.223,0,0,1,2.174-.758c3.008-.435,6.015-.878,9.025-1.3a.842.842,0,0,0,.737-.528q2.048-4.208,4.133-8.4A4.65,4.65,0,0,1-390.4,388.251Z" transform="translate(-40.392 -16.947)" fill="#fff"/>
    <path id="Path_158" data-name="Path 158" d="M-458.861,579.725a1.977,1.977,0,0,1-1.954-1.585,1.877,1.877,0,0,1,1.087-2.158c1.465-.543,2.955-1.028,4.457-1.459a1.919,1.919,0,0,1,2.179,1.247,1.893,1.893,0,0,1-.87,2.4,34.8,34.8,0,0,1-4.667,1.544A1.029,1.029,0,0,1-458.861,579.725Z" transform="translate(0 -174.238)" fill="#fff"/>
    <path id="Path_159" data-name="Path 159" d="M-179,375.435a1.89,1.89,0,0,1-1.722-.991,1.781,1.781,0,0,1,.017-1.984c.829-1.214,1.685-2.413,2.589-3.571a1.914,1.914,0,0,1,2.663-.3,1.929,1.929,0,0,1,.513,2.592c-.816,1.222-1.7,2.4-2.581,3.577A1.754,1.754,0,0,1-179,375.435Z" transform="translate(-236.376)" fill="#fff"/>
    <path id="Path_160" data-name="Path 160" d="M-393.695,375.447a2.047,2.047,0,0,1-1.88-.776c-.818-1.1-1.634-2.21-2.416-3.34a1.967,1.967,0,0,1,.461-2.737,1.943,1.943,0,0,1,2.737.416c.83,1.095,1.63,2.213,2.42,3.337a1.863,1.863,0,0,1,.107,2.085A1.806,1.806,0,0,1-393.695,375.447Z" transform="translate(-52.798 -0.017)" fill="#fff"/>
    <path id="Path_161" data-name="Path 161" d="M-278.029,686.659c0,.66.013,1.32,0,1.98a1.975,1.975,0,0,1-2,1.988,1.971,1.971,0,0,1-1.952-1.975q-.026-2.038,0-4.076a1.979,1.979,0,0,1,1.967-1.964,1.989,1.989,0,0,1,1.982,1.952C-278.014,685.261-278.03,685.96-278.029,686.659Z" transform="translate(-151.079 -265.583)" fill="#fff"/>
  </g>
</svg>
