<svg xmlns="http://www.w3.org/2000/svg" width="28.056" height="31.923" viewBox="0 0 28.056 31.923">
  <path id="svgexport-17" d="M12.019,5.577a3.864,3.864,0,0,1,3.864-3.864H26.191a3.864,3.864,0,0,1,3.864,3.864V28.769a3.864,3.864,0,0,1-3.864,3.864H16.024l-.141,0H6.864A3.864,3.864,0,0,1,3,28.772v-10.3a1.3,1.3,0,0,1,1.294-1.3H6.221V15.244a5.154,5.154,0,0,1,5.8-5.114Zm2.576,5.643a5.154,5.154,0,0,1,1.933,4.022v1.933h1.925a1.3,1.3,0,0,1,1.3,1.3v10.3a3.872,3.872,0,0,1-.219,1.285h6.662a1.288,1.288,0,0,0,1.288-1.288V5.577a1.288,1.288,0,0,0-1.288-1.288H23.44a1.288,1.288,0,0,1-1.115,1.933H19.749a1.288,1.288,0,0,1-1.117-1.933H15.883a1.288,1.288,0,0,0-1.288,1.288V11.22Zm1.369,18.837a1.288,1.288,0,0,0,1.208-1.285V19.753H5.576v9.019A1.289,1.289,0,0,0,6.864,30.06h7.73v0h1.369ZM9.553,13.421a2.576,2.576,0,0,1,4.4,1.823v1.931H8.8V15.244a2.577,2.577,0,0,1,.755-1.823Zm.534,9.552h2.578v3.866H10.086V22.973Z" transform="translate(-2.5 -1.213)" fill="#171717" stroke="rgba(0,0,0,0)" stroke-width="1" fill-rule="evenodd"/>
</svg>
