<svg xmlns="http://www.w3.org/2000/svg" width="26.404" height="31.684" viewBox="0 0 26.404 31.684">
  <path id="svgexport-16" d="M24.552,12.274h3.96a1.325,1.325,0,0,1,1.32,1.32V29.437a3.972,3.972,0,0,1-3.96,3.96H7.389a3.972,3.972,0,0,1-3.961-3.96V13.594a1.325,1.325,0,0,1,1.322-1.32h3.96V9.634a7.921,7.921,0,1,1,15.843,0ZM16.631,4.353a5.3,5.3,0,0,0-5.283,5.281v2.64H21.909V9.634a5.3,5.3,0,0,0-5.278-5.281Zm9.241,26.4a1.325,1.325,0,0,0,1.32-1.32V14.914H6.07V29.437a1.325,1.325,0,0,0,1.32,1.32ZM15.311,28.114V23.755a2.473,2.473,0,0,1-1.322-2.243,2.641,2.641,0,1,1,3.961,2.244v4.357Z" transform="translate(-3.428 -1.713)" fill="#fff" fill-rule="evenodd"/>
</svg>
