<svg xmlns="http://www.w3.org/2000/svg" width="25.421" height="31.248" viewBox="0 0 25.421 31.248">
  <g id="Group_14" data-name="Group 14" transform="translate(0 0)">
    <path id="Path_51" data-name="Path 51" d="M67.249,46.3a7.1,7.1,0,0,1,3.381-5.957,7.268,7.268,0,0,0-5.727-3.1c-2.409-.252-4.746,1.444-5.971,1.444-1.252,0-3.145-1.418-5.18-1.377a7.629,7.629,0,0,0-6.418,3.915c-2.775,4.8-.705,11.865,1.953,15.751,1.33,1.9,2.885,4.025,4.919,3.95,1.99-.083,2.732-1.268,5.135-1.268,2.381,0,3.079,1.268,5.154,1.22,2.136-.035,3.48-1.911,4.762-3.831a15.628,15.628,0,0,0,2.18-4.438A6.859,6.859,0,0,1,67.249,46.3" transform="translate(-46.016 -29.685)"/>
    <path id="Path_52" data-name="Path 52" d="M67.359,32.289a6.977,6.977,0,0,0,1.6-5.009,7.1,7.1,0,0,0-4.6,2.381,6.646,6.646,0,0,0-1.643,4.824,5.883,5.883,0,0,0,4.644-2.2" transform="translate(-50.047 -27.28)"/>
  </g>
</svg>
