<svg xmlns="http://www.w3.org/2000/svg" xmlns:xlink="http://www.w3.org/1999/xlink" width="1323.575" height="1302.44" viewBox="0 0 1323.575 1302.44">
  <defs>
    <radialGradient id="radial-gradient" cx="0.578" cy="0.502" r="0.922" gradientUnits="objectBoundingBox">
      <stop offset="0" stop-color="#fff"/>
      <stop offset="0.127" stop-color="#fde966"/>
      <stop offset="0.66" stop-color="#cf9102"/>
      <stop offset="1" stop-color="#8c3c10"/>
    </radialGradient>
    <radialGradient id="radial-gradient-2" cx="-0.634" cy="0.858" r="5.962" gradientUnits="objectBoundingBox">
      <stop offset="0" stop-color="#fff"/>
      <stop offset="0.33" stop-color="#fde966"/>
      <stop offset="0.66" stop-color="#cf9102"/>
      <stop offset="1" stop-color="#8c3c10"/>
    </radialGradient>
    <radialGradient id="radial-gradient-3" cx="-0.822" cy="0.5" r="2.292" xlink:href="#radial-gradient-2"/>
    <radialGradient id="radial-gradient-4" cx="0.714" cy="-0.9" r="2.586" xlink:href="#radial-gradient-2"/>
    <radialGradient id="radial-gradient-5" cx="0.408" cy="0.033" r="1.861" gradientUnits="objectBoundingBox">
      <stop offset="0" stop-color="#fff"/>
      <stop offset="0.33" stop-color="#fff"/>
      <stop offset="0.66" stop-color="#fff" stop-opacity="0"/>
      <stop offset="1" stop-color="#fff" stop-opacity="0"/>
    </radialGradient>
    <radialGradient id="radial-gradient-6" cx="0.856" cy="0.302" r="0.747" xlink:href="#radial-gradient-5"/>
    <radialGradient id="radial-gradient-7" cx="0.709" cy="0.681" r="0.832" xlink:href="#radial-gradient-5"/>
    <linearGradient id="linear-gradient" x1="0.5" y1="-1.697" x2="0.5" y2="0.654" gradientUnits="objectBoundingBox">
      <stop offset="0" stop-color="#fff"/>
      <stop offset="1" stop-color="#fff" stop-opacity="0"/>
    </linearGradient>
    <linearGradient id="linear-gradient-2" x1="2.239" y1="0.5" x2="0.173" y2="0.5" xlink:href="#linear-gradient"/>
    <linearGradient id="linear-gradient-3" x1="0.828" y1="1.786" x2="0.513" y2="0.481" xlink:href="#linear-gradient"/>
  </defs>
  <g id="Group_12205" data-name="Group 12205" transform="translate(640.923 -1926.78)">
    <g id="Group_13" data-name="Group 13" transform="translate(142.332 3229.22) rotate(-139)" opacity="0.08">
      <path id="Path_1" data-name="Path 1" d="M29.007,346.949A517.374,517.374,0,0,0,0,504.936C105.853,362,407.505,307.525,434.128,458.475,463.807,288.989,174.763,216.974,29.007,346.949Zm372.338,205.5C617.744,313.425,250.985,128.59,71.2,256.131,160.742,103.975,325.664,1.487,514.633,0,591.567,188.776,588.867,441.953,401.345,552.452Zm631.819,36.34a520.729,520.729,0,0,0-40.9-282.726C920.6,449.512,830.388,547.038,720.808,596.624c105.586-79.861,175.455-211.212,211.281-391.641C849.6,96.567,725.413,21.593,583.426,3.968c149.613,442.392-249,730.456-384.912,564.889C211.185,654.07,248.929,705.9,350.642,716.511c55.685,125.568,293.9,127.733,451.732,72.747l-54.444-4.228C837.974,754.1,965.454,669.721,1033.164,588.791Zm-472.037,144.8c-65.4.856-91.64-16.522-138.519-17.419,35.5-25.526,65.408-14.939,82.506,7.456A307.772,307.772,0,0,0,561.128,733.588Z" transform="translate(0)" fill-rule="evenodd" fill="url(#radial-gradient)"/>
      <path id="Path_2" data-name="Path 2" d="M0,157.1A521.069,521.069,0,0,1,5.79,92.14c128.336-120.462,421.752-131.358,428.338,18.5C407.505-40.308,105.853,14.164,0,157.1Z" transform="translate(0 347.833)" fill-rule="evenodd" fill="url(#radial-gradient-2)"/>
      <path id="Path_3" data-name="Path 3" d="M330.146,428.087C546.545,189.06,179.786,4.225,0,131.766A521.6,521.6,0,0,1,109.3,1.032C373.969-19.122,533.121,260.65,330.146,428.087Z" transform="translate(71.199 124.365)" fill-rule="evenodd" fill="url(#radial-gradient-3)"/>
      <path id="Path_4" data-name="Path 4" d="M0,564.889C135.908,730.456,534.526,442.392,384.912,0a515.412,515.412,0,0,1,181.9,58.185C581.377,513.618,131.6,795.5,0,564.889Z" transform="translate(198.514 3.968)" fill-rule="evenodd" fill="url(#radial-gradient-4)"/>
      <path id="Path_5" data-name="Path 5" d="M0,92.139c128.336-120.461,421.752-131.357,428.337,18.5C413.159-34.113,142.637-20.49,0,92.139Z" transform="translate(5.791 347.833)" fill-rule="evenodd" fill="url(#radial-gradient-5)"/>
      <path id="Path_6" data-name="Path 6" d="M220.847,428.087C413.44,266.31,253.177-12.858,0,1.032,264.67-19.122,423.821,260.65,220.847,428.087Z" transform="translate(180.498 124.365)" fill-rule="evenodd" fill="url(#radial-gradient-6)"/>
      <path id="Path_7" data-name="Path 7" d="M0,567.37C165.71,654.015,497.166,412.152,508.424,0,521.273,401.845,172.618,668.59,0,567.37Z" transform="translate(256.898 62.153)" fill-rule="evenodd" fill="url(#radial-gradient-7)"/>
      <path id="Path_8" data-name="Path 8" d="M0,86.67Q3.69,73.677,8.086,60.875C101.207-19.6,303.023-27.585,372.961,81.3,280.218-14.243,105.736,10.159,0,86.67Z" transform="translate(32.338 293.754)" fill-rule="evenodd" fill="url(#linear-gradient)"/>
      <path id="Path_9" data-name="Path 9" d="M0,21.593A505.739,505.739,0,0,1,134.058,0c52.114,133.551,65.97,306.854-10.265,429.427C205.3,260.762,96.451,81.478,0,21.593Z" transform="translate(371.618 13.458)" fill-rule="evenodd" fill="url(#linear-gradient-2)"/>
      <path id="Path_10" data-name="Path 10" d="M270.686,283.185l42.692,3.309C219.5,306.072,80.5,310.328,0,257.124,208.635,339.445,463.375,169.363,612.276,0a509.41,509.41,0,0,1-3.913,73.043C511.673,177.949,393.094,250.594,270.686,283.185Z" transform="translate(412.124 510.144)" fill-rule="evenodd" fill="url(#linear-gradient-3)"/>
    </g>
  </g>
</svg>
