<svg xmlns="http://www.w3.org/2000/svg" xmlns:xlink="http://www.w3.org/1999/xlink" width="433.072" height="70.377" viewBox="0 0 433.072 70.377">
  <defs>
    <radialGradient id="radial-gradient" cx="0.578" cy="0.498" r="0.922" gradientUnits="objectBoundingBox">
      <stop offset="0" stop-color="#fff"/>
      <stop offset="0.127" stop-color="#fde966"/>
      <stop offset="0.66" stop-color="#cf9102"/>
      <stop offset="1" stop-color="#8c3c10"/>
    </radialGradient>
    <radialGradient id="radial-gradient-2" cx="-0.634" cy="0.142" r="5.962" gradientUnits="objectBoundingBox">
      <stop offset="0" stop-color="#fff"/>
      <stop offset="0.33" stop-color="#fde966"/>
      <stop offset="0.66" stop-color="#cf9102"/>
      <stop offset="1" stop-color="#8c3c10"/>
    </radialGradient>
    <radialGradient id="radial-gradient-3" cx="-0.822" cy="0.5" r="2.292" xlink:href="#radial-gradient-2"/>
    <radialGradient id="radial-gradient-4" cx="0.714" cy="1.9" r="2.586" xlink:href="#radial-gradient-2"/>
    <radialGradient id="radial-gradient-5" cx="0.408" cy="0.967" r="1.861" gradientUnits="objectBoundingBox">
      <stop offset="0" stop-color="#fff"/>
      <stop offset="0.33" stop-color="#fff"/>
      <stop offset="0.66" stop-color="#fff" stop-opacity="0"/>
      <stop offset="1" stop-color="#fff" stop-opacity="0"/>
    </radialGradient>
    <radialGradient id="radial-gradient-6" cx="0.856" cy="0.698" r="0.747" xlink:href="#radial-gradient-5"/>
    <radialGradient id="radial-gradient-7" cx="0.709" cy="0.319" r="0.832" xlink:href="#radial-gradient-5"/>
    <linearGradient id="linear-gradient" x1="0.5" y1="2.697" x2="0.5" y2="0.346" gradientUnits="objectBoundingBox">
      <stop offset="0" stop-color="#fff"/>
      <stop offset="1" stop-color="#fff" stop-opacity="0"/>
    </linearGradient>
    <linearGradient id="linear-gradient-2" x1="2.239" y1="0.5" x2="0.173" y2="0.5" xlink:href="#linear-gradient"/>
    <linearGradient id="linear-gradient-3" x1="0.828" y1="-0.786" x2="0.513" y2="0.519" xlink:href="#linear-gradient"/>
    <radialGradient id="radial-gradient-8" cx="0.5" cy="-0.875" r="2.551" gradientUnits="objectBoundingBox">
      <stop offset="0" stop-color="#fff"/>
      <stop offset="0.5" stop-color="#7d7d7d"/>
      <stop offset="1" stop-color="#231916"/>
    </radialGradient>
    <radialGradient id="radial-gradient-9" cx="-0.091" cy="-0.287" r="3.325" xlink:href="#radial-gradient-8"/>
  </defs>
  <g id="Group_12397" data-name="Group 12397" transform="translate(-240 -108)">
    <g id="Group_3" data-name="Group 3" transform="translate(240 108)">
      <g id="Group_1" data-name="Group 1" transform="translate(0 14.537)">
        <path id="Path_1" data-name="Path 1" d="M97.518,294.2a35.079,35.079,0,0,1-1.967-10.712c7.177,9.691,27.629,13.385,29.434,3.15C127,298.127,107.4,303.01,97.518,294.2Zm25.245-13.933c14.672,16.206-10.195,28.738-22.384,20.091a35.173,35.173,0,0,0,30.065,17.366C135.66,304.922,135.477,287.756,122.763,280.264ZM165.6,277.8a35.307,35.307,0,0,1-2.773,19.169c-4.859-9.726-10.976-16.338-18.405-19.7,7.159,5.415,11.9,14.32,14.325,26.554a35.153,35.153,0,0,1-23.64,13.629c10.144-29.995-16.883-49.526-26.1-38.3.859-5.778,3.418-9.292,10.314-10.011,3.775-8.514,19.927-8.66,30.628-4.932l-3.691.287C152.367,266.592,161.01,272.313,165.6,277.8Zm-32-9.817c-4.434-.058-6.213,1.12-9.392,1.181,2.407,1.731,4.435,1.013,5.594-.505A20.861,20.861,0,0,1,133.6,267.983Z" transform="translate(-95.551 -261.881)" fill-rule="evenodd" fill="url(#radial-gradient)"/>
        <path id="Path_2" data-name="Path 2" d="M95.551,308.381a35.328,35.328,0,0,0,.393,4.4c8.7,8.168,28.6,8.906,29.042-1.254C123.18,321.766,102.728,318.072,95.551,308.381Z" transform="translate(-95.551 -286.776)" fill-rule="evenodd" fill="url(#radial-gradient-2)"/>
        <path id="Path_3" data-name="Path 3" d="M128.325,301.447c14.672,16.206-10.195,28.738-22.384,20.091a35.365,35.365,0,0,0,7.411,8.864C131.3,331.768,142.087,312.8,128.325,301.447Z" transform="translate(-101.114 -283.064)" fill-rule="evenodd" fill="url(#radial-gradient-3)"/>
        <path id="Path_4" data-name="Path 4" d="M124.52,292.631c9.215-11.226,36.242,8.305,26.1,38.3a34.944,34.944,0,0,0,12.333-3.945C163.938,296.107,133.442,277,124.52,292.631Z" transform="translate(-111.061 -275.36)" fill-rule="evenodd" fill="url(#radial-gradient-4)"/>
        <path id="Path_5" data-name="Path 5" d="M96.4,316.415c8.7,8.167,28.6,8.906,29.042-1.254C124.409,324.976,106.067,324.052,96.4,316.415Z" transform="translate(-96.003 -290.406)" fill-rule="evenodd" fill="url(#radial-gradient-5)"/>
        <path id="Path_6" data-name="Path 6" d="M136.865,301.447c13.058,10.969,2.192,29.9-14.974,28.955C139.836,331.768,150.627,312.8,136.865,301.447Z" transform="translate(-109.653 -283.064)" fill-rule="evenodd" fill="url(#radial-gradient-6)"/>
        <path id="Path_7" data-name="Path 7" d="M133.04,288.518c11.235-5.875,33.708,10.524,34.472,38.468C168.383,299.741,144.744,281.655,133.04,288.518Z" transform="translate(-115.622 -275.36)" fill-rule="evenodd" fill="url(#radial-gradient-7)"/>
        <path id="Path_8" data-name="Path 8" d="M100.27,326.551q.25.881.548,1.749c6.314,5.456,20,6,24.739-1.385C119.269,333.393,107.439,331.738,100.27,326.551Z" transform="translate(-98.077 -296.504)" fill-rule="evenodd" fill="url(#linear-gradient)"/>
        <path id="Path_9" data-name="Path 9" d="M149.781,345.088a34.289,34.289,0,0,0,9.089,1.464c3.533-9.055,4.473-20.805-.7-29.116C163.7,328.872,156.32,341.027,149.781,345.088Z" transform="translate(-124.585 -291.624)" fill-rule="evenodd" fill="url(#linear-gradient-2)"/>
        <path id="Path_10" data-name="Path 10" d="M174.045,264.987l2.895-.224c-6.365-1.327-15.789-1.616-21.247,1.991,14.146-5.581,31.417,5.95,41.513,17.433a34.538,34.538,0,0,0-.265-4.952A48.587,48.587,0,0,0,174.045,264.987Z" transform="translate(-127.749 -262.935)" fill-rule="evenodd" fill="url(#linear-gradient-3)"/>
      </g>
      <g id="Group_2" data-name="Group 2" transform="translate(0.082)">
        <path id="Path_11" data-name="Path 11" d="M130.822,230.593a35.191,35.191,0,0,0-35.095,32.595,19.639,19.639,0,0,0,4.079,3.834A31.044,31.044,0,0,1,158.441,251.6a46.861,46.861,0,0,1,6.3,4.769A35.2,35.2,0,0,0,130.822,230.593Z" transform="translate(-95.727 -230.593)" fill-rule="evenodd" fill="url(#radial-gradient-8)"/>
        <path id="Path_12" data-name="Path 12" d="M133.107,235.059A33.114,33.114,0,0,0,100,267.717a22.1,22.1,0,0,0,2.1,1.7A31.044,31.044,0,0,1,160.727,254c1.138.724,2.242,1.489,3.3,2.286A33.126,33.126,0,0,0,133.107,235.059Z" transform="translate(-98.013 -232.984)" fill-rule="evenodd" fill="url(#radial-gradient-9)"/>
      </g>
    </g>
    <g id="Group_6" data-name="Group 6" transform="translate(329.008 115)">
      <g id="Group_4" data-name="Group 4">
        <path id="Path_13" data-name="Path 13" d="M282.309,288.408c0-5.786,0-6.824-.074-8.011-.073-1.261-.371-1.855-1.594-2.114a6.925,6.925,0,0,0-1.261-.112c-.149,0-.3-.074-.3-.222,0-.223.185-.3.593-.3,1.669,0,3.894.111,4.191.111.816,0,2.967-.111,4.673-.111,4.637,0,6.305,1.558,6.9,2.113a6.446,6.446,0,0,1,1.855,4.414c0,5.266-3.857,8.827-9.125,8.827a5.575,5.575,0,0,1-.779-.036c-.185,0-.407-.074-.407-.259,0-.3.222-.335,1-.335a6.159,6.159,0,0,0,6.417-6.045,7.869,7.869,0,0,0-2.077-5.712,6.44,6.44,0,0,0-5.081-1.855,4.572,4.572,0,0,0-1.6.222c-.223.074-.3.334-.3.705v15.244c0,3.561,0,6.49.185,8.048.112,1.076.334,1.892,1.447,2.041a16.3,16.3,0,0,0,1.669.148c.222,0,.3.111.3.222,0,.185-.186.3-.593.3-2.04,0-4.377-.112-4.562-.112-.112,0-2.448.112-3.561.112-.408,0-.593-.074-.593-.3,0-.112.074-.222.3-.222a5.764,5.764,0,0,0,1.112-.148c.742-.149.927-.964,1.076-2.041.185-1.558.185-4.488.185-8.048Z" transform="translate(-279.082 -277.132)" fill="#76777a"/>
        <path id="Path_14" data-name="Path 14" d="M312.2,288.408c0-5.786,0-6.824-.074-8.011-.074-1.261-.371-1.855-1.594-2.114a6.916,6.916,0,0,0-1.261-.112c-.149,0-.3-.074-.3-.222,0-.223.185-.3.593-.3,1.669,0,4.006.111,4.191.111.407,0,3.227-.111,4.376-.111,2.336,0,4.822.222,6.788,1.632a6.492,6.492,0,0,1,2.559,5.044c0,2.745-1.15,5.49-4.488,8.568,3.042,3.894,5.564,7.2,7.715,9.495a7.663,7.663,0,0,0,4.524,2.67,8.871,8.871,0,0,0,1.446.112c.186,0,.334.111.334.222,0,.222-.222.3-.89.3h-2.633a7.55,7.55,0,0,1-3.969-.7c-1.594-.854-2.893-2.671-5.007-5.452-1.558-2.041-3.3-4.525-4.043-5.49a.6.6,0,0,0-.482-.222l-4.562-.074c-.185,0-.26.112-.26.3v.89c0,3.561,0,6.49.185,8.048.112,1.076.335,1.892,1.447,2.041a16.3,16.3,0,0,0,1.669.148c.222,0,.3.111.3.222,0,.185-.185.3-.593.3-2.04,0-4.376-.112-4.561-.112-.037,0-2.375.112-3.487.112-.407,0-.593-.074-.593-.3,0-.112.074-.222.3-.222a5.782,5.782,0,0,0,1.113-.148c.741-.149.926-.964,1.075-2.041.185-1.558.185-4.488.185-8.048Zm2.967,3.227a.484.484,0,0,0,.26.445,10.219,10.219,0,0,0,3.894.594,4.8,4.8,0,0,0,2.782-.7c1.3-.89,2.263-2.893,2.263-5.712,0-4.636-2.448-7.418-6.417-7.418a11.187,11.187,0,0,0-2.485.222.448.448,0,0,0-.3.445Z" transform="translate(-284.268 -277.132)" fill="#76777a"/>
        <path id="Path_15" data-name="Path 15" d="M350.324,294.936c0,3.561,0,6.49.186,8.048.111,1.076.333,1.892,1.446,2.041a16.3,16.3,0,0,0,1.669.148c.223,0,.3.111.3.222,0,.185-.185.3-.593.3-2.04,0-4.376-.112-4.562-.112s-2.522.112-3.634.112c-.408,0-.593-.074-.593-.3,0-.112.074-.222.3-.222a5.773,5.773,0,0,0,1.113-.148c.742-.149.927-.964,1.075-2.041.185-1.558.185-4.488.185-8.048v-6.528c0-5.786,0-6.824-.073-8.011-.074-1.261-.445-1.892-1.261-2.078a4.889,4.889,0,0,0-1.15-.148c-.149,0-.3-.074-.3-.222,0-.223.185-.3.593-.3,1.224,0,3.561.111,3.746.111s2.522-.111,3.635-.111c.408,0,.593.074.593.3,0,.148-.148.222-.3.222a5.505,5.505,0,0,0-.927.112c-1,.185-1.3.816-1.372,2.114-.074,1.187-.074,2.225-.074,8.011Z" transform="translate(-290.42 -277.132)" fill="#76777a"/>
        <path id="Path_16" data-name="Path 16" d="M379.06,277.023c8.346,0,14.577,5.267,14.577,13.909,0,8.308-5.861,15.169-14.8,15.169-10.163,0-14.391-7.9-14.391-14.576C364.447,285.517,368.824,277.023,379.06,277.023Zm.779,27.669c3.338,0,10.237-1.929,10.237-12.722,0-8.9-5.415-13.686-11.276-13.686-6.194,0-10.83,4.08-10.83,12.2C367.97,299.129,373.163,304.692,379.84,304.692Z" transform="translate(-293.893 -277.023)" fill="#76777a"/>
        <path id="Path_17" data-name="Path 17" d="M410.859,288.408c0-5.786,0-6.824-.074-8.011-.074-1.261-.371-1.855-1.594-2.114a6.928,6.928,0,0,0-1.262-.112c-.147,0-.3-.074-.3-.222,0-.223.184-.3.593-.3,1.669,0,4.005.111,4.191.111.407,0,3.227-.111,4.376-.111,2.337,0,4.822.222,6.788,1.632a6.494,6.494,0,0,1,2.558,5.044c0,2.745-1.149,5.49-4.487,8.568,3.041,3.894,5.563,7.2,7.715,9.495a7.669,7.669,0,0,0,4.525,2.67,8.871,8.871,0,0,0,1.446.112c.185,0,.334.111.334.222,0,.222-.222.3-.891.3h-2.632a7.549,7.549,0,0,1-3.969-.7c-1.6-.854-2.894-2.671-5.007-5.452-1.558-2.041-3.3-4.525-4.043-5.49a.6.6,0,0,0-.482-.222l-4.562-.074c-.185,0-.26.112-.26.3v.89c0,3.561,0,6.49.186,8.048.111,1.076.333,1.892,1.446,2.041a16.306,16.306,0,0,0,1.669.148c.222,0,.3.111.3.222,0,.185-.185.3-.593.3-2.04,0-4.376-.112-4.562-.112-.037,0-2.374.112-3.487.112-.407,0-.593-.074-.593-.3,0-.112.074-.222.3-.222a5.773,5.773,0,0,0,1.112-.148c.741-.149.927-.964,1.076-2.041.185-1.558.185-4.488.185-8.048Zm2.967,3.227a.484.484,0,0,0,.26.445,10.216,10.216,0,0,0,3.894.594,4.806,4.806,0,0,0,2.782-.7c1.3-.89,2.262-2.893,2.262-5.712,0-4.636-2.448-7.418-6.417-7.418a11.183,11.183,0,0,0-2.484.222.448.448,0,0,0-.3.445Z" transform="translate(-301.386 -277.132)" fill="#76777a"/>
        <path id="Path_18" data-name="Path 18" d="M450.151,294.936c0,3.561,0,6.49.184,8.048.112,1.076.335,1.892,1.447,2.041a16.315,16.315,0,0,0,1.669.148c.222,0,.3.111.3.222,0,.185-.185.3-.593.3-2.04,0-4.376-.112-4.561-.112s-2.523.112-3.636.112c-.408,0-.593-.074-.593-.3,0-.112.074-.222.3-.222a5.774,5.774,0,0,0,1.112-.148c.741-.149.927-.964,1.076-2.041.185-1.558.185-4.488.185-8.048v-6.528c0-5.786,0-6.824-.074-8.011-.074-1.261-.446-1.892-1.261-2.078a4.887,4.887,0,0,0-1.15-.148c-.148,0-.3-.074-.3-.222,0-.223.186-.3.593-.3,1.224,0,3.561.111,3.747.111s2.522-.111,3.634-.111c.409,0,.593.074.593.3,0,.148-.148.222-.3.222a5.486,5.486,0,0,0-.927.112c-1,.185-1.3.816-1.372,2.114-.074,1.187-.074,2.225-.074,8.011Z" transform="translate(-307.74 -277.132)" fill="#76777a"/>
        <path id="Path_19" data-name="Path 19" d="M477.216,294.827c0,3.561,0,6.49.185,8.048.112,1.076.334,1.892,1.447,2.041a16.329,16.329,0,0,0,1.67.148c.222,0,.3.111.3.222,0,.185-.186.3-.593.3-2.041,0-4.377-.112-4.561-.112s-2.523.112-3.636.112c-.407,0-.594-.074-.594-.3,0-.112.074-.222.3-.222a5.78,5.78,0,0,0,1.112-.148c.741-.149.927-.965,1.075-2.041.186-1.558.186-4.488.186-8.048V279.138l-5.49.074c-2.3.037-3.189.3-3.784,1.187a6.6,6.6,0,0,0-.631,1.15c-.111.3-.222.371-.37.371-.112,0-.185-.111-.185-.334,0-.371.741-3.561.816-3.857.074-.222.222-.705.37-.705a6.958,6.958,0,0,0,1.632.446c1.076.111,2.485.185,2.931.185H483.3a19.542,19.542,0,0,0,2.633-.185,8.912,8.912,0,0,1,1.038-.186c.186,0,.186.223.186.445,0,1.112-.112,3.672-.112,4.08,0,.333-.112.482-.259.482-.186,0-.26-.112-.3-.631l-.037-.408c-.148-1.113-1-1.965-4.561-2.04l-4.674-.074Z" transform="translate(-311.104 -277.023)" fill="#76777a"/>
        <path id="Path_20" data-name="Path 20" d="M507.1,296.085a7.869,7.869,0,0,0-.853-3.894c-.26-.593-5.23-8.753-6.528-10.682a10.384,10.384,0,0,0-2.522-2.745,3.545,3.545,0,0,0-1.594-.593c-.186,0-.372-.074-.372-.259,0-.149.149-.26.483-.26.7,0,3.486.111,3.672.111.259,0,1.669-.111,3.115-.111.408,0,.483.111.483.26s-.222.185-.557.334a.75.75,0,0,0-.482.667,3.174,3.174,0,0,0,.482,1.447c.594,1.075,6.158,10.645,6.825,11.72.705-1.557,5.415-9.68,6.157-10.9a3.624,3.624,0,0,0,.631-1.892c0-.519-.149-.927-.593-1.038-.334-.112-.555-.185-.555-.371,0-.149.221-.222.593-.222.965,0,2.151.111,2.448.111.223,0,2.893-.111,3.6-.111.26,0,.483.074.483.222,0,.186-.186.3-.483.3a3.535,3.535,0,0,0-1.707.519,7.078,7.078,0,0,0-1.965,1.892,118.241,118.241,0,0,0-7.084,11.794,8.877,8.877,0,0,0-.556,3.709v3.189c0,.593,0,2.151.111,3.709.074,1.076.408,1.892,1.521,2.041a16.348,16.348,0,0,0,1.669.148c.223,0,.3.111.3.222,0,.185-.186.3-.593.3-2.041,0-4.377-.112-4.563-.112s-2.521.112-3.634.112c-.407,0-.593-.074-.593-.3,0-.112.074-.222.3-.222a5.764,5.764,0,0,0,1.112-.148c.742-.149,1.076-.964,1.15-2.041.111-1.558.111-3.116.111-3.709Z" transform="translate(-316.585 -277.132)" fill="#76777a"/>
        <path id="Path_21" data-name="Path 21" d="M570.981,296.125c0-3-.184-3.413-1.668-3.821a6.935,6.935,0,0,0-1.262-.111c-.148,0-.3-.074-.3-.223,0-.222.186-.3.594-.3,1.669,0,4.006.111,4.19.111s2.522-.111,3.636-.111c.407,0,.593.073.593.3,0,.149-.148.223-.3.223a5.484,5.484,0,0,0-.926.111c-1,.186-1.3.817-1.373,2.114-.074,1.187-.074,2.3-.074,3.857v4.155c0,1.669-.036,1.743-.482,2a18.323,18.323,0,0,1-7.863,1.669c-2.818,0-8.086-.37-12.2-3.969a14.475,14.475,0,0,1-4.414-10.57c0-5.934,2.893-10.125,6.194-12.2a18.208,18.208,0,0,1,9.866-2.337,31.8,31.8,0,0,1,5.675.631,18.427,18.427,0,0,0,3,.371c.371.037.445.185.445.334a47.113,47.113,0,0,0-.259,5.266c0,.593-.074.779-.334.779-.186,0-.223-.222-.26-.556a5.686,5.686,0,0,0-.778-2.448c-.927-1.41-3.932-3-8.716-3a11.852,11.852,0,0,0-7.938,2.448c-2.15,1.706-3.671,5.081-3.671,9.42a15.129,15.129,0,0,0,3.932,10.274,13.5,13.5,0,0,0,9.718,3.968,10.121,10.121,0,0,0,4.228-.779,1.345,1.345,0,0,0,.741-1.3Z" transform="translate(-325.937 -277.023)" fill="#76777a"/>
        <path id="Path_22" data-name="Path 22" d="M604.679,277.023c8.345,0,14.576,5.267,14.576,13.909,0,8.308-5.86,15.169-14.8,15.169-10.163,0-14.392-7.9-14.392-14.576C590.065,285.517,594.441,277.023,604.679,277.023Zm.778,27.669c3.338,0,10.237-1.929,10.237-12.722,0-8.9-5.416-13.686-11.275-13.686-6.195,0-10.83,4.08-10.83,12.2C593.589,299.129,598.781,304.692,605.457,304.692Z" transform="translate(-333.039 -277.023)" fill="#76777a"/>
        <path id="Path_23" data-name="Path 23" d="M639.233,295.01c0,5.452.149,7.825.817,8.494.593.593,1.558.853,4.451.853,1.966,0,3.6-.037,4.487-1.113a5.169,5.169,0,0,0,.965-2.225c.037-.3.112-.483.334-.483.186,0,.222.149.222.557a23.6,23.6,0,0,1-.556,3.708c-.26.853-.37,1-2.336,1-5.341,0-7.789-.223-9.939-.223-.149,0-.779.037-1.521.037-.742.037-1.558.074-2.115.074-.407,0-.593-.074-.593-.3,0-.112.074-.222.3-.222a5.774,5.774,0,0,0,1.113-.148c.741-.149.927-.964,1.075-2.041.186-1.558.186-4.488.186-8.048v-6.528c0-5.786,0-6.824-.074-8.011-.074-1.261-.371-1.855-1.6-2.114a6.917,6.917,0,0,0-1.261-.112c-.148,0-.3-.074-.3-.222,0-.223.185-.3.593-.3,1.669,0,4.006.111,4.192.111s2.893-.111,4.005-.111c.408,0,.594.074.594.3,0,.148-.149.222-.3.222a8.684,8.684,0,0,0-1.224.112c-1.075.185-1.372.816-1.446,2.114-.074,1.187-.074,2.225-.074,8.011Z" transform="translate(-340.469 -277.132)" fill="#76777a"/>
        <path id="Path_24" data-name="Path 24" d="M664.347,288.407c0-5.786,0-6.824-.074-8.011-.074-1.261-.372-1.855-1.6-2.114a6.914,6.914,0,0,0-1.261-.112c-.148,0-.3-.074-.3-.222,0-.223.185-.3.593-.3,1.669,0,4.006.111,4.191.111.445,0,2.781-.111,5.007-.111,3.672,0,10.459-.334,14.874,4.228a13.253,13.253,0,0,1,3.6,9.42,15.164,15.164,0,0,1-4.005,10.459c-1.595,1.669-4.933,4.265-11.239,4.265-3.189,0-7.863-.445-8.233-.445-.185,0-2.522.112-3.635.112-.407,0-.593-.074-.593-.3,0-.112.074-.222.3-.222a5.761,5.761,0,0,0,1.112-.148c.742-.149.927-.964,1.076-2.041.185-1.558.185-4.488.185-8.048Zm3.116,4.005c0,3.932.037,7.343.074,8.048a8.1,8.1,0,0,0,.408,2.819c.483.705,1.929,1.484,6.305,1.484a12.444,12.444,0,0,0,8.828-3.45c1.929-1.891,2.966-5.452,2.966-8.864a13.265,13.265,0,0,0-3.56-9.346c-3.487-3.672-7.715-4.192-12.129-4.192a9.872,9.872,0,0,0-2.411.26.672.672,0,0,0-.445.741c-.037,1.261-.037,5.044-.037,7.9Z" transform="translate(-345.367 -277.131)" fill="#76777a"/>
      </g>
      <line id="Line_1" data-name="Line 1" x2="343.857" transform="translate(0.208 38.516)" fill="none" stroke="#eba900" stroke-width="2"/>
      <g id="Group_5" data-name="Group 5" transform="translate(0.187 48.395)">
        <path id="Path_25" data-name="Path 25" d="M284.633,337.319h-.312l-.117-.255a1.344,1.344,0,0,0-1.447-.9h-.983c-.185,0-.255.093-.255.278v2.686H282.9c.579,0,.73-.266.857-.741h.289a10.427,10.427,0,0,0,0,1.9h-.289c-.127-.464-.278-.753-.857-.753H281.52v2.558c0,.4.22.533.833.579v.325c-1-.035-2.049-.035-3.045,0v-.325c.625-.045.845-.174.845-.579v-5.5c0-.336-.2-.417-.822-.464V335.8h4.932c.15,0,.174.035.2.208Z" transform="translate(-279.308 -335.616)" fill="#76777a"/>
        <path id="Path_26" data-name="Path 26" d="M298.014,339.375a3.435,3.435,0,0,1-3.323,3.739c-1.956,0-3.357-1.574-3.357-3.8,0-2.154,1.378-3.74,3.322-3.74S298.014,337.151,298.014,339.375Zm-1.447.312c0-2.119-.857-3.705-2.1-3.705-.891,0-1.69.846-1.69,3.01,0,2.118.857,3.717,2.061,3.717C295.768,342.709,296.567,341.852,296.567,339.687Z" transform="translate(-281.395 -335.577)" fill="#76777a"/>
        <path id="Path_27" data-name="Path 27" d="M311.074,342.713l-.243.37a2.984,2.984,0,0,1-2.686-1.47l-1.053-1.494c-.023,0-.058.012-.093.012l-.29.046v1.91c0,.4.2.533.811.579v.325c-1-.035-2-.035-3,0v-.325c.625-.045.822-.174.822-.579v-5.395c0-.336-.174-.521-.776-.568V335.8c1.065.045,2.165,0,2.837,0,2.442,0,3.079.9,3.079,1.909,0,.973-.613,1.7-2.176,2.154l.972,1.366C309.906,342.122,310.554,342.666,311.074,342.713Zm-4.365-2.929.29-.035c1.632-.208,2.141-.973,2.141-1.979a1.432,1.432,0,0,0-1.54-1.61h-.892Z" transform="translate(-283.683 -335.616)" fill="#76777a"/>
        <path id="Path_28" data-name="Path 28" d="M332,342.654v.325c-1.042-.035-2.119-.035-3.161,0v-.325c.776-.057.869-.231.695-.693l-.487-1.332h-2.431l-.464,1.378c-.15.44.3.591,1.054.648v.325c-.856-.035-1.852-.035-2.7,0v-.325c.764-.057,1.053-.288,1.238-.821l2.108-6.1h.8l2.212,6C331.089,342.318,331.194,342.6,332,342.654Zm-3.092-2.408-1.134-3.1-1.031,3.1Z" transform="translate(-287.151 -335.604)" fill="#76777a"/>
        <path id="Path_29" data-name="Path 29" d="M344.3,341.092a6.765,6.765,0,0,0-.359,1.9c-1.806-.035-3.4-.035-5.14,0v-.325c.625-.045.822-.174.822-.579V336.7c0-.406-.22-.532-.845-.579V335.8c1,.035,2.05.035,3.045,0v.323c-.613.047-.833.174-.833.579v5.383c0,.4.069.522.417.522h.636c.869,0,1.216-.209,1.517-.753l.406-.764Z" transform="translate(-289.626 -335.616)" fill="#76777a"/>
        <path id="Path_30" data-name="Path 30" d="M355.908,341.092a6.77,6.77,0,0,0-.359,1.9c-1.806-.035-3.4-.035-5.14,0v-.325c.625-.045.821-.174.821-.579V336.7c0-.406-.22-.532-.845-.579V335.8c1,.035,2.05.035,3.045,0v.323c-.613.047-.833.174-.833.579v5.383c0,.4.069.522.417.522h.636c.869,0,1.216-.209,1.517-.753l.406-.764Z" transform="translate(-291.64 -335.616)" fill="#76777a"/>
        <path id="Path_31" data-name="Path 31" d="M376.512,339.375a3.435,3.435,0,0,1-3.323,3.739c-1.956,0-3.357-1.574-3.357-3.8,0-2.154,1.378-3.74,3.323-3.74S376.512,337.151,376.512,339.375Zm-1.447.312c0-2.119-.857-3.705-2.1-3.705-.892,0-1.69.846-1.69,3.01,0,2.118.857,3.717,2.06,3.717C374.265,342.709,375.064,341.852,375.064,339.687Z" transform="translate(-295.014 -335.577)" fill="#76777a"/>
        <path id="Path_32" data-name="Path 32" d="M388.344,337.319h-.312l-.116-.255a1.344,1.344,0,0,0-1.447-.9h-.984c-.185,0-.255.093-.255.278v2.686h1.377c.579,0,.73-.266.857-.741h.289a10.411,10.411,0,0,0,0,1.9h-.289c-.127-.464-.278-.753-.857-.753h-1.377v2.558c0,.4.22.533.833.579v.325c-1-.035-2.049-.035-3.045,0v-.325c.625-.045.846-.174.846-.579v-5.5c0-.336-.2-.417-.822-.464V335.8h4.932c.15,0,.174.035.2.208Z" transform="translate(-297.302 -335.616)" fill="#76777a"/>
        <path id="Path_33" data-name="Path 33" d="M408.992,335.8v.323a1.183,1.183,0,0,0-1.17.707l-1.6,3.091v2.037c0,.522.22.66.845.7v.336c-1.007-.035-2.06-.035-3.068,0v-.325c.637-.045.858-.184.858-.706v-1.945l-1.772-3.23a.969.969,0,0,0-.973-.66V335.8q1.529.034,3.056,0v.323c-.625.035-.764.255-.544.672l1.413,2.628,1.355-2.605c.243-.474-.081-.66-.717-.7V335.8C407.452,335.824,408.229,335.824,408.992,335.8Z" transform="translate(-300.616 -335.616)" fill="#76777a"/>
        <path id="Path_34" data-name="Path 34" d="M421.591,339.375a3.435,3.435,0,0,1-3.322,3.739c-1.957,0-3.358-1.574-3.358-3.8,0-2.154,1.378-3.74,3.323-3.74S421.591,337.151,421.591,339.375Zm-1.447.312c0-2.119-.856-3.705-2.1-3.705-.891,0-1.69.846-1.69,3.01,0,2.118.856,3.717,2.06,3.717C419.345,342.709,420.143,341.852,420.143,339.687Z" transform="translate(-302.836 -335.577)" fill="#76777a"/>
        <path id="Path_35" data-name="Path 35" d="M434.848,336.7v5.487c0,.29.22.429.833.474v.325c-1-.035-1.713-.035-2.408,0v-.325c.139-.092.208-.266.208-.613v-.336a2.489,2.489,0,0,1-2.3,1.389,2.157,2.157,0,0,1-2.3-2.3v-4.1c0-.406-.22-.532-.846-.579V335.8c1,.035,2.05.035,3.046,0v.323c-.614.047-.834.174-.834.579v4.1c0,1.135.486,1.828,1.365,1.828a2.225,2.225,0,0,0,1.876-1.47V336.7c0-.406-.22-.532-.846-.579V335.8c1,.035,2.05.035,3.045,0v.323C435.068,336.172,434.848,336.3,434.848,336.7Z" transform="translate(-305.112 -335.616)" fill="#76777a"/>
        <path id="Path_36" data-name="Path 36" d="M448.875,342.713l-.243.37a2.983,2.983,0,0,1-2.686-1.47l-1.053-1.494c-.024,0-.059.012-.093.012l-.288.046v1.91c0,.4.2.533.81.579v.325c-1-.035-2-.035-3,0v-.325c.625-.045.822-.174.822-.579v-5.395c0-.336-.174-.521-.775-.568V335.8c1.065.045,2.165,0,2.837,0,2.443,0,3.079.9,3.079,1.909,0,.973-.614,1.7-2.177,2.154l.973,1.366C447.706,342.122,448.355,342.666,448.875,342.713Zm-4.364-2.929.288-.035c1.633-.208,2.142-.973,2.142-1.979a1.432,1.432,0,0,0-1.54-1.61h-.891Z" transform="translate(-307.592 -335.616)" fill="#76777a"/>
        <path id="Path_37" data-name="Path 37" d="M465.035,342.087c0,.4.2.533.811.579v.325c-1-.035-2-.035-3,0v-.325c.625-.045.822-.174.822-.579v-5.395c0-.336-.174-.521-.776-.568V335.8c1.065.045,2.165,0,2.837,0,2.443,0,3.08.9,3.08,1.909,0,1.2-.938,2.05-3.485,2.42l-.289.046Zm.289-2.338c1.632-.208,2.142-.973,2.142-1.979a1.432,1.432,0,0,0-1.541-1.61h-.891v3.624Z" transform="translate(-311.153 -335.616)" fill="#76777a"/>
        <path id="Path_38" data-name="Path 38" d="M481.789,342.713l-.243.37a2.984,2.984,0,0,1-2.686-1.47l-1.053-1.494c-.024,0-.059.012-.093.012l-.288.046v1.91c0,.4.2.533.81.579v.325c-1-.035-2-.035-3,0v-.325c.625-.045.822-.174.822-.579v-5.395c0-.336-.174-.521-.775-.568V335.8c1.065.045,2.165,0,2.836,0,2.443,0,3.08.9,3.08,1.909,0,.973-.614,1.7-2.177,2.154l.973,1.366C480.62,342.122,481.269,342.666,481.789,342.713Zm-4.364-2.929.288-.035c1.633-.208,2.142-.973,2.142-1.979a1.432,1.432,0,0,0-1.54-1.61h-.891Z" transform="translate(-313.302 -335.616)" fill="#76777a"/>
        <path id="Path_39" data-name="Path 39" d="M493.616,341.092a6.738,6.738,0,0,0-.359,1.9c-1.806-.035-3.4-.035-5.14,0v-.325c.625-.045.821-.174.821-.579v-5.5c0-.336-.2-.417-.821-.464V335.8h4.932c.151,0,.174.035.2.208l.174,1.308h-.313l-.116-.255a1.345,1.345,0,0,0-1.447-.9h-.984c-.184,0-.254.093-.254.278V339.1h1.377c.579,0,.729-.279.857-.753h.288a10.7,10.7,0,0,0,0,1.91h-.288c-.128-.474-.278-.764-.857-.764h-1.377v2.593c0,.4.069.522.417.522h.636c.869,0,1.216-.209,1.517-.753l.4-.764Z" transform="translate(-315.537 -335.616)" fill="#76777a"/>
        <path id="Path_40" data-name="Path 40" d="M506.231,341.006a2.677,2.677,0,0,1-2.779,2.108,3.523,3.523,0,0,1-3.519-3.808,3.434,3.434,0,0,1,3.414-3.728c.812,0,1.066.255,1.749.255a2.016,2.016,0,0,0,.474-.059,8.325,8.325,0,0,0,.51,1.992h-.626c-.463-1.088-1.146-1.772-2.142-1.772-1.111,0-1.932.834-1.932,2.964s.845,3.694,2.373,3.694a2.1,2.1,0,0,0,2-1.645Z" transform="translate(-317.587 -335.577)" fill="#76777a"/>
        <path id="Path_41" data-name="Path 41" d="M515.62,342.666v.325c-1-.035-2.05-.035-3.045,0v-.325c.625-.045.846-.174.846-.579V336.7c0-.406-.221-.532-.846-.579V335.8c1,.035,2.049.035,3.045,0v.323c-.613.047-.834.174-.834.579v5.383C514.786,342.492,515.007,342.621,515.62,342.666Z" transform="translate(-319.781 -335.616)" fill="#76777a"/>
        <path id="Path_42" data-name="Path 42" d="M527.962,339.375a3.435,3.435,0,0,1-3.322,3.739c-1.956,0-3.358-1.574-3.358-3.8,0-2.154,1.378-3.74,3.323-3.74S527.962,337.151,527.962,339.375Zm-1.447.312c0-2.119-.856-3.705-2.1-3.705-.891,0-1.69.846-1.69,3.01,0,2.118.856,3.717,2.06,3.717C525.716,342.709,526.514,341.852,526.514,339.687Z" transform="translate(-321.292 -335.577)" fill="#76777a"/>
        <path id="Path_43" data-name="Path 43" d="M541.134,336.7v5.487c0,.29.22.429.833.474v.325c-1-.035-1.713-.035-2.408,0v-.325c.139-.092.208-.266.208-.613v-.336a2.489,2.489,0,0,1-2.3,1.389,2.157,2.157,0,0,1-2.3-2.3v-4.1c0-.406-.22-.532-.846-.579V335.8c1,.035,2.05.035,3.046,0v.323c-.614.047-.834.174-.834.579v4.1c0,1.135.486,1.828,1.366,1.828a2.225,2.225,0,0,0,1.875-1.47V336.7c0-.406-.22-.532-.845-.579V335.8c1,.035,2.049.035,3.044,0v.323C541.354,336.172,541.134,336.3,541.134,336.7Z" transform="translate(-323.553 -335.616)" fill="#76777a"/>
        <path id="Path_44" data-name="Path 44" d="M550.644,339.826c-1.089-.509-2.037-1.158-2.037-2.338a1.958,1.958,0,0,1,2.222-1.911,6.628,6.628,0,0,1,1.412.266c.128,0,.22-.023.267-.174h.382l.081,1.6h-.324c-.464-.984-1.065-1.274-1.656-1.274a1.069,1.069,0,0,0-1.193,1.077c0,.684.511,1.089,1.378,1.505.915.429,2.374.973,2.374,2.455a2.213,2.213,0,0,1-2.409,2.072c-.914,0-1.354-.463-1.725-.463a.415.415,0,0,0-.393.312h-.393l-.1-1.69h.371a2.227,2.227,0,0,0,2.037,1.4,1.159,1.159,0,0,0,1.308-1.169C552.242,340.705,551.629,340.289,550.644,339.826Z" transform="translate(-326.018 -335.577)" fill="#76777a"/>
        <path id="Path_45" data-name="Path 45" d="M575.719,342.666v.325c-1-.035-2.049-.035-3.045,0v-.325c.626-.045.845-.15.845-.636v-5.047l-2.222,6.009h-.15l-2.443-6.009v5.047c0,.487.429.579,1.158.636v.325c-.926-.035-1.852-.035-2.744,0v-.325c.717-.057,1.123-.15,1.123-.636v-5.163c0-.464-.347-.694-.972-.741V335.8c.752.035,1.539.035,2.292,0l2.072,5.071L573.5,335.8c.741.035,1.459.035,2.211,0v.323c-.613.047-.834.174-.834.614v5.29C574.874,342.516,575.094,342.621,575.719,342.666Z" transform="translate(-329.244 -335.616)" fill="#76777a"/>
        <path id="Path_46" data-name="Path 46" d="M587.779,341.092a6.738,6.738,0,0,0-.359,1.9c-1.806-.035-3.4-.035-5.14,0v-.325c.625-.045.821-.174.821-.579v-5.5c0-.336-.2-.417-.821-.464V335.8h4.932c.15,0,.173.035.2.208l.174,1.308h-.312l-.116-.255a1.344,1.344,0,0,0-1.447-.9h-.985c-.184,0-.254.093-.254.278V339.1h1.377c.58,0,.73-.279.857-.753h.289a10.508,10.508,0,0,0,0,1.91H586.7c-.127-.474-.278-.764-.857-.764h-1.377v2.593c0,.4.07.522.417.522h.636c.869,0,1.216-.209,1.517-.753l.405-.764Z" transform="translate(-331.875 -335.616)" fill="#76777a"/>
        <path id="Path_47" data-name="Path 47" d="M599.616,335.689l-.417,1.575h-.324c.1-.846-.128-1.077-.579-1.077h-1v5.881c0,.4.221.533.961.578v.325c-1.122-.035-2.176-.035-3.288,0v-.325c.741-.045.961-.174.961-.578v-5.881h-.787c-.568,0-.764.174-1.2,1.077h-.325l.405-1.575h.3a4.489,4.489,0,0,0,1.18.093h2.628a4.493,4.493,0,0,0,1.181-.093Z" transform="translate(-333.842 -335.596)" fill="#76777a"/>
        <path id="Path_48" data-name="Path 48" d="M612.716,342.654v.325c-1.042-.035-2.118-.035-3.161,0v-.325c.775-.057.869-.231.7-.693l-.487-1.332h-2.432l-.463,1.378c-.15.44.3.591,1.054.648v.325c-.857-.035-1.852-.035-2.7,0v-.325c.764-.057,1.054-.288,1.239-.821l2.107-6.1h.8l2.211,6C611.8,342.318,611.906,342.6,612.716,342.654Zm-3.091-2.408-1.135-3.1-1.03,3.1Z" transform="translate(-335.856 -335.604)" fill="#76777a"/>
        <path id="Path_49" data-name="Path 49" d="M624.777,341.092a6.738,6.738,0,0,0-.36,1.9c-1.807-.035-3.4-.035-5.141,0v-.325c.626-.045.822-.174.822-.579V336.7c0-.406-.22-.532-.845-.579V335.8c1,.035,2.048.035,3.044,0v.323c-.613.047-.833.174-.833.579v5.383c0,.4.07.522.417.522h.636c.868,0,1.216-.209,1.517-.753l.405-.764Z" transform="translate(-338.29 -335.616)" fill="#76777a"/>
        <path id="Path_50" data-name="Path 50" d="M646.106,335.8v.323c-.707.059-1.112.151-1.112.626v6.24h-.405l-4.006-5.986v5.024c0,.487.428.579,1.169.636v.325c-.926-.035-1.864-.035-2.732,0v-.325c.694-.057,1.1-.15,1.1-.636v-5.163c0-.451-.348-.694-.973-.741V335.8c.752.035,1.493.035,2.234,0l3.149,4.758v-3.809c0-.474-.417-.567-1.169-.626V335.8C644.3,335.837,645.238,335.837,646.106,335.8Z" transform="translate(-341.72 -335.616)" fill="#76777a"/>
        <path id="Path_51" data-name="Path 51" d="M658.129,341.092a6.76,6.76,0,0,0-.359,1.9c-1.806-.035-3.4-.035-5.14,0v-.325c.625-.045.822-.174.822-.579v-5.5c0-.336-.2-.417-.822-.464V335.8h4.932c.15,0,.174.035.2.208l.173,1.308h-.312l-.117-.255a1.344,1.344,0,0,0-1.447-.9h-.983c-.185,0-.255.093-.255.278V339.1h1.377c.58,0,.73-.279.857-.753h.29a10.519,10.519,0,0,0,0,1.91h-.29c-.127-.474-.277-.764-.857-.764h-1.377v2.593c0,.4.069.522.416.522h.637c.869,0,1.215-.209,1.517-.753l.4-.764Z" transform="translate(-344.081 -335.616)" fill="#76777a"/>
        <path id="Path_52" data-name="Path 52" d="M669.608,341.092a6.733,6.733,0,0,0-.359,1.9c-1.805-.035-3.4-.035-5.14,0v-.325c.625-.045.822-.174.822-.579v-5.5c0-.336-.2-.417-.822-.464V335.8h4.932c.151,0,.173.035.2.208l.174,1.308H669.1l-.116-.255a1.344,1.344,0,0,0-1.447-.9h-.984c-.184,0-.254.093-.254.278V339.1h1.377c.579,0,.73-.279.857-.753h.289a10.508,10.508,0,0,0,0,1.91h-.289c-.127-.474-.278-.764-.857-.764H666.3v2.593c0,.4.069.522.417.522h.636c.869,0,1.216-.209,1.517-.753l.4-.764Z" transform="translate(-346.073 -335.616)" fill="#76777a"/>
        <path id="Path_53" data-name="Path 53" d="M683.11,339.356a3.3,3.3,0,0,1-3.254,3.635c-.6,0-1.192-.185-1.84-.185a7.905,7.905,0,0,0-1.586.185v-.325c.579-.126.822-.231.822-.6v-5.3c0-.382-.174-.59-.776-.637V335.8c1.065.045,1.807,0,2.767,0C681.534,335.8,683.11,336.855,683.11,339.356Zm-1.494.1c0-1.957-.706-3.3-2.409-3.3-.115,0-.324,0-.59.024v5.811c0,.532.463.614.856.614C681.106,342.609,681.616,341.243,681.616,339.46Z" transform="translate(-348.21 -335.616)" fill="#76777a"/>
        <path id="Path_54" data-name="Path 54" d="M691.4,339.826c-1.089-.509-2.038-1.158-2.038-2.338a1.957,1.957,0,0,1,2.222-1.911,6.644,6.644,0,0,1,1.412.266c.128,0,.22-.023.267-.174h.382l.081,1.6H693.4c-.464-.984-1.065-1.274-1.655-1.274a1.069,1.069,0,0,0-1.193,1.077c0,.684.51,1.089,1.378,1.505.915.429,2.374.973,2.374,2.455A2.213,2.213,0,0,1,691.9,343.1c-.914,0-1.354-.463-1.725-.463a.415.415,0,0,0-.393.312h-.393l-.1-1.69h.37a2.229,2.229,0,0,0,2.037,1.4A1.159,1.159,0,0,0,693,341.493C693,340.705,692.383,340.289,691.4,339.826Z" transform="translate(-350.44 -335.577)" fill="#76777a"/>
      </g>
    </g>
  </g>
</svg>
