<svg xmlns="http://www.w3.org/2000/svg" xmlns:xlink="http://www.w3.org/1999/xlink" width="323.82" height="197.768" viewBox="0 0 323.82 197.768">
  <defs>
    <radialGradient id="radial-gradient" cx="0.578" cy="0.498" r="0.922" gradientUnits="objectBoundingBox">
      <stop offset="0" stop-color="#fff"/>
      <stop offset="0.127" stop-color="#fde966"/>
      <stop offset="0.66" stop-color="#cf9102"/>
      <stop offset="1" stop-color="#8c3c10"/>
    </radialGradient>
    <radialGradient id="radial-gradient-2" cx="-0.634" cy="0.142" r="5.962" gradientUnits="objectBoundingBox">
      <stop offset="0" stop-color="#fff"/>
      <stop offset="0.33" stop-color="#fde966"/>
      <stop offset="0.66" stop-color="#cf9102"/>
      <stop offset="1" stop-color="#8c3c10"/>
    </radialGradient>
    <radialGradient id="radial-gradient-3" cx="-0.822" cy="0.5" r="2.292" xlink:href="#radial-gradient-2"/>
    <radialGradient id="radial-gradient-4" cx="0.714" cy="1.9" r="2.586" xlink:href="#radial-gradient-2"/>
    <radialGradient id="radial-gradient-5" cx="0.408" cy="0.967" r="1.861" gradientUnits="objectBoundingBox">
      <stop offset="0" stop-color="#fff"/>
      <stop offset="0.33" stop-color="#fff"/>
      <stop offset="0.66" stop-color="#fff" stop-opacity="0"/>
      <stop offset="1" stop-color="#fff" stop-opacity="0"/>
    </radialGradient>
    <radialGradient id="radial-gradient-6" cx="0.856" cy="0.698" r="0.747" xlink:href="#radial-gradient-5"/>
    <radialGradient id="radial-gradient-7" cx="0.709" cy="0.319" r="0.832" xlink:href="#radial-gradient-5"/>
    <linearGradient id="linear-gradient" x1="0.5" y1="2.697" x2="0.5" y2="0.346" gradientUnits="objectBoundingBox">
      <stop offset="0" stop-color="#fff"/>
      <stop offset="1" stop-color="#fff" stop-opacity="0"/>
    </linearGradient>
    <linearGradient id="linear-gradient-2" x1="2.239" y1="0.5" x2="0.173" y2="0.5" xlink:href="#linear-gradient"/>
    <linearGradient id="linear-gradient-3" x1="0.828" y1="-0.786" x2="0.513" y2="0.519" xlink:href="#linear-gradient"/>
    <radialGradient id="radial-gradient-8" cx="0.5" cy="-0.875" r="2.551" gradientUnits="objectBoundingBox">
      <stop offset="0" stop-color="#fff"/>
      <stop offset="0.5" stop-color="#7d7d7d"/>
      <stop offset="1" stop-color="#231916"/>
    </radialGradient>
    <radialGradient id="radial-gradient-9" cx="-0.091" cy="-0.287" r="3.325" xlink:href="#radial-gradient-8"/>
  </defs>
  <g id="Group_11944" data-name="Group 11944" transform="translate(459.201 -408.836)">
    <g id="Group_3" data-name="Group 3" transform="translate(-356.297 408.836)">
      <g id="Group_1" data-name="Group 1" transform="translate(0 24.338)">
        <path id="Path_1" data-name="Path 1" d="M98.844,315.985a58.729,58.729,0,0,1-3.293-17.934c12.016,16.226,46.257,22.409,49.279,5.274C148.2,322.565,115.389,330.739,98.844,315.985Zm42.265-23.327c24.564,27.133-17.068,48.114-37.476,33.636a58.888,58.888,0,0,0,50.336,29.074C162.7,333.94,162.4,305.2,141.109,292.658Zm71.72-4.125a59.11,59.11,0,0,1-4.642,32.093c-8.136-16.283-18.376-27.354-30.814-32.982,11.985,9.065,19.916,23.975,23.983,44.457a58.853,58.853,0,0,1-39.578,22.818C178.761,304.7,133.512,272,118.085,290.8c1.438-9.673,5.723-15.557,17.269-16.761,6.321-14.254,33.362-14.5,51.278-8.258l-6.18.48C190.672,269.768,205.143,279.346,212.829,288.533ZM159.247,272.1c-7.424-.1-10.4,1.875-15.724,1.977,4.03,2.9,7.425,1.7,9.366-.846A34.939,34.939,0,0,1,159.247,272.1Z" transform="translate(-95.551 -261.881)" fill-rule="evenodd" fill="url(#radial-gradient)"/>
        <path id="Path_2" data-name="Path 2" d="M95.551,308.381a59.151,59.151,0,0,0,.657,7.374c14.568,13.674,47.875,14.911,48.622-2.1C141.808,330.79,107.567,324.606,95.551,308.381Z" transform="translate(-95.551 -272.21)" fill-rule="evenodd" fill="url(#radial-gradient-2)"/>
        <path id="Path_3" data-name="Path 3" d="M143.417,301.447c24.564,27.133-17.068,48.114-37.476,33.636a59.208,59.208,0,0,0,12.407,14.84C148.391,352.211,166.457,320.453,143.417,301.447Z" transform="translate(-97.859 -270.67)" fill-rule="evenodd" fill="url(#radial-gradient-3)"/>
        <path id="Path_4" data-name="Path 4" d="M124.52,296.388c15.427-18.794,60.676,13.905,43.693,64.122a58.5,58.5,0,0,0,20.648-6.6C190.514,302.208,139.458,270.211,124.52,296.388Z" transform="translate(-101.986 -267.474)" fill-rule="evenodd" fill="url(#radial-gradient-4)"/>
        <path id="Path_5" data-name="Path 5" d="M96.4,317.261c14.568,13.674,47.875,14.911,48.622-2.1C143.3,331.593,112.587,330.046,96.4,317.261Z" transform="translate(-95.739 -273.716)" fill-rule="evenodd" fill="url(#radial-gradient-5)"/>
        <path id="Path_6" data-name="Path 6" d="M146.96,301.447c21.862,18.364,3.67,50.053-25.069,48.477C151.935,352.211,170,320.453,146.96,301.447Z" transform="translate(-101.402 -270.67)" fill-rule="evenodd" fill="url(#radial-gradient-6)"/>
        <path id="Path_7" data-name="Path 7" d="M133.04,289.5c18.81-9.835,56.435,17.619,57.713,64.4C192.211,308.291,152.634,278.012,133.04,289.5Z" transform="translate(-103.879 -267.473)" fill-rule="evenodd" fill="url(#radial-gradient-7)"/>
        <path id="Path_8" data-name="Path 8" d="M100.27,326.551q.419,1.475.918,2.928c10.57,9.135,33.479,10.041,41.418-2.318C132.078,338.006,112.272,335.236,100.27,326.551Z" transform="translate(-96.599 -276.246)" fill-rule="evenodd" fill="url(#linear-gradient)"/>
        <path id="Path_9" data-name="Path 9" d="M149.781,363.731A57.407,57.407,0,0,0,165,366.182c5.916-15.16,7.488-34.832-1.165-48.746C173.086,336.582,160.729,356.933,149.781,363.731Z" transform="translate(-107.597 -274.221)" fill-rule="evenodd" fill="url(#linear-gradient-2)"/>
        <path id="Path_10" data-name="Path 10" d="M186.418,265.753l4.846-.376c-10.657-2.222-26.434-2.705-35.573,3.334,23.683-9.345,52.6,9.962,69.5,29.187a57.821,57.821,0,0,0-.444-8.291C213.774,277.7,200.313,269.452,186.418,265.753Z" transform="translate(-108.91 -262.318)" fill-rule="evenodd" fill="url(#linear-gradient-3)"/>
      </g>
      <g id="Group_2" data-name="Group 2" transform="translate(0.137)">
        <path id="Path_11" data-name="Path 11" d="M154.483,230.593a58.918,58.918,0,0,0-58.756,54.57,32.881,32.881,0,0,0,6.83,6.419,51.975,51.975,0,0,1,98.167-25.812,78.457,78.457,0,0,1,10.543,7.984A58.938,58.938,0,0,0,154.483,230.593Z" transform="translate(-95.727 -230.593)" fill-rule="evenodd" fill="url(#radial-gradient-8)"/>
        <path id="Path_12" data-name="Path 12" d="M155.431,235.059A55.441,55.441,0,0,0,100,289.735a36.994,36.994,0,0,0,3.509,2.839,51.975,51.975,0,0,1,98.167-25.812c1.906,1.213,3.753,2.493,5.517,3.827A55.46,55.46,0,0,0,155.431,235.059Z" transform="translate(-96.675 -231.585)" fill-rule="evenodd" fill="url(#radial-gradient-9)"/>
      </g>
    </g>
    <g id="Group_6" data-name="Group 6" transform="translate(-459.201 553.964)">
      <g id="Group_4" data-name="Group 4">
        <path id="Path_13" data-name="Path 13" d="M282.119,287.775c0-5.446,0-6.423-.07-7.54-.069-1.187-.349-1.746-1.5-1.99a6.522,6.522,0,0,0-1.187-.105c-.14,0-.279-.07-.279-.209,0-.21.174-.279.558-.279,1.571,0,3.665.1,3.945.1.768,0,2.792-.1,4.4-.1,4.364,0,5.934,1.466,6.493,1.989a6.067,6.067,0,0,1,1.746,4.155c0,4.957-3.63,8.308-8.588,8.308a5.246,5.246,0,0,1-.733-.034c-.174,0-.383-.07-.383-.244,0-.28.209-.315.942-.315a5.8,5.8,0,0,0,6.039-5.689,7.406,7.406,0,0,0-1.955-5.376,6.061,6.061,0,0,0-4.782-1.746,4.3,4.3,0,0,0-1.5.209c-.21.07-.279.314-.279.664v14.347c0,3.351,0,6.109.174,7.575.1,1.013.314,1.781,1.362,1.921a15.337,15.337,0,0,0,1.57.139c.209,0,.279.1.279.209,0,.174-.175.279-.559.279-1.92,0-4.12-.105-4.294-.105-.105,0-2.3.105-3.351.105-.384,0-.559-.07-.559-.279,0-.1.07-.209.279-.209a5.422,5.422,0,0,0,1.047-.139c.7-.14.873-.908,1.013-1.921.174-1.466.174-4.224.174-7.575Z" transform="translate(-279.082 -277.163)" fill="#76777a"/>
        <path id="Path_14" data-name="Path 14" d="M312.009,287.775c0-5.446,0-6.423-.07-7.54-.069-1.187-.349-1.746-1.5-1.99a6.514,6.514,0,0,0-1.187-.105c-.14,0-.279-.07-.279-.209,0-.21.174-.279.559-.279,1.571,0,3.77.1,3.945.1.383,0,3.037-.1,4.119-.1,2.2,0,4.538.209,6.389,1.536a6.11,6.11,0,0,1,2.408,4.747c0,2.583-1.082,5.167-4.224,8.064,2.863,3.665,5.237,6.772,7.261,8.936a7.212,7.212,0,0,0,4.258,2.513,8.348,8.348,0,0,0,1.361.105c.175,0,.314.1.314.209,0,.209-.209.279-.838.279h-2.478a7.106,7.106,0,0,1-3.735-.663c-1.5-.8-2.722-2.514-4.712-5.132-1.466-1.921-3.107-4.259-3.805-5.167a.563.563,0,0,0-.454-.209l-4.294-.07c-.174,0-.244.1-.244.279v.838c0,3.351,0,6.109.174,7.575.105,1.013.315,1.781,1.362,1.921a15.338,15.338,0,0,0,1.571.139c.209,0,.279.1.279.209,0,.174-.174.279-.559.279-1.92,0-4.119-.105-4.293-.105-.035,0-2.235.105-3.282.105-.383,0-.559-.07-.559-.279,0-.1.07-.209.279-.209a5.439,5.439,0,0,0,1.048-.139c.7-.14.872-.908,1.012-1.921.174-1.466.174-4.224.174-7.575Zm2.792,3.037a.455.455,0,0,0,.244.418,9.618,9.618,0,0,0,3.665.559,4.522,4.522,0,0,0,2.618-.663c1.222-.838,2.13-2.723,2.13-5.376,0-4.363-2.3-6.981-6.039-6.981a10.528,10.528,0,0,0-2.339.209.421.421,0,0,0-.279.419Z" transform="translate(-285.721 -277.163)" fill="#76777a"/>
        <path id="Path_15" data-name="Path 15" d="M349.977,293.919c0,3.351,0,6.109.175,7.575.1,1.013.314,1.781,1.361,1.921a15.335,15.335,0,0,0,1.57.139c.21,0,.279.1.279.209,0,.174-.174.279-.559.279-1.92,0-4.119-.105-4.294-.105s-2.373.105-3.42.105c-.384,0-.559-.07-.559-.279,0-.1.069-.209.279-.209a5.431,5.431,0,0,0,1.048-.139c.7-.14.873-.908,1.012-1.921.174-1.466.174-4.224.174-7.575v-6.144c0-5.446,0-6.423-.069-7.54-.07-1.187-.419-1.781-1.187-1.956a4.6,4.6,0,0,0-1.082-.139c-.14,0-.279-.07-.279-.209,0-.21.174-.279.559-.279,1.152,0,3.351.1,3.525.1s2.374-.1,3.421-.1c.384,0,.558.069.558.279,0,.139-.139.209-.279.209a5.184,5.184,0,0,0-.873.105c-.942.174-1.221.768-1.291,1.99-.07,1.117-.07,2.094-.07,7.54Z" transform="translate(-293.597 -277.163)" fill="#76777a"/>
        <path id="Path_16" data-name="Path 16" d="M378.2,277.023c7.855,0,13.719,4.957,13.719,13.091,0,7.819-5.516,14.277-13.928,14.277-9.565,0-13.544-7.436-13.544-13.718C364.447,285.017,368.566,277.023,378.2,277.023Zm.733,26.041c3.142,0,9.635-1.816,9.635-11.974,0-8.378-5.1-12.881-10.612-12.881-5.829,0-10.193,3.84-10.193,11.484C367.763,297.829,372.65,303.064,378.934,303.064Z" transform="translate(-298.044 -277.023)" fill="#76777a"/>
        <path id="Path_17" data-name="Path 17" d="M410.669,287.775c0-5.446,0-6.423-.07-7.54-.07-1.187-.349-1.746-1.5-1.99a6.524,6.524,0,0,0-1.188-.105c-.138,0-.278-.07-.278-.209,0-.21.174-.279.559-.279,1.571,0,3.77.1,3.945.1.383,0,3.037-.1,4.119-.1,2.2,0,4.538.209,6.389,1.536a6.112,6.112,0,0,1,2.407,4.747c0,2.583-1.081,5.167-4.223,8.064,2.862,3.665,5.236,6.772,7.261,8.936a7.218,7.218,0,0,0,4.259,2.513,8.348,8.348,0,0,0,1.361.105c.174,0,.314.1.314.209,0,.209-.209.279-.839.279h-2.477a7.1,7.1,0,0,1-3.735-.663c-1.5-.8-2.723-2.514-4.712-5.132-1.466-1.921-3.108-4.259-3.805-5.167a.564.564,0,0,0-.454-.209l-4.294-.07c-.174,0-.244.1-.244.279v.838c0,3.351,0,6.109.175,7.575.1,1.013.313,1.781,1.361,1.921a15.338,15.338,0,0,0,1.571.139c.209,0,.279.1.279.209,0,.174-.174.279-.559.279-1.92,0-4.119-.105-4.294-.105-.035,0-2.234.105-3.282.105-.383,0-.558-.07-.558-.279,0-.1.07-.209.279-.209a5.431,5.431,0,0,0,1.047-.139c.7-.14.873-.908,1.013-1.921.174-1.466.174-4.224.174-7.575Zm2.793,3.037a.455.455,0,0,0,.244.418,9.615,9.615,0,0,0,3.665.559,4.523,4.523,0,0,0,2.618-.663c1.221-.838,2.129-2.723,2.129-5.376,0-4.363-2.3-6.981-6.039-6.981a10.524,10.524,0,0,0-2.338.209.421.421,0,0,0-.279.419Z" transform="translate(-307.637 -277.163)" fill="#76777a"/>
        <path id="Path_18" data-name="Path 18" d="M449.8,293.919c0,3.351,0,6.109.173,7.575.1,1.013.315,1.781,1.362,1.921a15.348,15.348,0,0,0,1.571.139c.209,0,.279.1.279.209,0,.174-.174.279-.559.279-1.92,0-4.119-.105-4.293-.105s-2.374.105-3.422.105c-.384,0-.558-.07-.558-.279,0-.1.07-.209.279-.209a5.431,5.431,0,0,0,1.047-.139c.7-.14.873-.908,1.013-1.921.174-1.466.174-4.224.174-7.575v-6.144c0-5.446,0-6.423-.07-7.54-.07-1.187-.419-1.781-1.187-1.956a4.6,4.6,0,0,0-1.082-.139c-.139,0-.279-.07-.279-.209,0-.21.175-.279.559-.279,1.152,0,3.351.1,3.526.1s2.373-.1,3.42-.1c.385,0,.559.069.559.279,0,.139-.139.209-.278.209a5.167,5.167,0,0,0-.873.105c-.943.174-1.222.768-1.291,1.99-.07,1.117-.07,2.094-.07,7.54Z" transform="translate(-315.772 -277.163)" fill="#76777a"/>
        <path id="Path_19" data-name="Path 19" d="M476.418,293.779c0,3.351,0,6.109.174,7.575.1,1.013.314,1.781,1.362,1.921a15.369,15.369,0,0,0,1.571.139c.209,0,.279.1.279.209,0,.174-.175.279-.559.279-1.921,0-4.12-.1-4.293-.1s-2.374.1-3.422.1c-.383,0-.559-.07-.559-.279,0-.105.07-.209.28-.209a5.442,5.442,0,0,0,1.047-.139c.7-.14.873-.908,1.012-1.921.175-1.466.175-4.224.175-7.575V279.014l-5.167.069c-2.165.035-3,.279-3.561,1.117a6.206,6.206,0,0,0-.594,1.082c-.1.279-.209.349-.349.349-.1,0-.174-.1-.174-.314,0-.349.7-3.351.768-3.63.07-.209.209-.663.348-.663a6.547,6.547,0,0,0,1.536.419c1.013.1,2.339.174,2.758.174h13.09a18.389,18.389,0,0,0,2.478-.174,8.4,8.4,0,0,1,.977-.175c.175,0,.175.21.175.419,0,1.047-.105,3.456-.105,3.84,0,.314-.105.454-.243.454-.175,0-.245-.105-.28-.594l-.035-.384c-.139-1.047-.943-1.85-4.293-1.92l-4.4-.069Z" transform="translate(-320.079 -277.023)" fill="#76777a"/>
        <path id="Path_20" data-name="Path 20" d="M506.4,295a7.407,7.407,0,0,0-.8-3.665c-.244-.558-4.922-8.238-6.144-10.053a9.774,9.774,0,0,0-2.374-2.583,3.336,3.336,0,0,0-1.5-.558c-.175,0-.35-.07-.35-.244,0-.14.14-.244.454-.244.664,0,3.281.1,3.456.1.244,0,1.57-.1,2.932-.1.384,0,.454.1.454.244s-.209.174-.524.314a.706.706,0,0,0-.453.628,2.989,2.989,0,0,0,.453,1.362c.559,1.012,5.8,10.018,6.424,11.03.663-1.466,5.1-9.11,5.794-10.262a3.41,3.41,0,0,0,.594-1.78c0-.489-.14-.873-.558-.977-.314-.105-.523-.174-.523-.349,0-.14.208-.209.558-.209.908,0,2.025.1,2.3.1.21,0,2.722-.1,3.386-.1.244,0,.454.069.454.209,0,.175-.175.279-.454.279a3.327,3.327,0,0,0-1.606.488,6.66,6.66,0,0,0-1.85,1.781,111.282,111.282,0,0,0-6.667,11.1,8.354,8.354,0,0,0-.523,3.491v3c0,.558,0,2.025.1,3.491.07,1.013.384,1.781,1.431,1.921a15.375,15.375,0,0,0,1.57.139c.21,0,.28.1.28.209,0,.174-.175.279-.558.279-1.921,0-4.12-.105-4.295-.105s-2.373.105-3.42.105c-.383,0-.559-.07-.559-.279,0-.1.07-.209.279-.209a5.423,5.423,0,0,0,1.047-.139c.7-.14,1.013-.908,1.083-1.921.1-1.466.1-2.933.1-3.491Z" transform="translate(-327.097 -277.163)" fill="#76777a"/>
        <path id="Path_21" data-name="Path 21" d="M569.7,295c0-2.828-.174-3.212-1.57-3.6a6.523,6.523,0,0,0-1.188-.1c-.139,0-.279-.07-.279-.21,0-.209.175-.278.559-.278,1.57,0,3.77.1,3.944.1s2.374-.1,3.422-.1c.383,0,.558.069.558.278,0,.14-.139.21-.279.21a5.159,5.159,0,0,0-.872.1c-.943.175-1.222.769-1.292,1.99-.07,1.117-.07,2.165-.07,3.63v3.91c0,1.571-.034,1.641-.453,1.885a17.245,17.245,0,0,1-7.4,1.571c-2.653,0-7.61-.349-11.484-3.735a13.624,13.624,0,0,1-4.154-9.948c0-5.585,2.723-9.53,5.829-11.484a17.136,17.136,0,0,1,9.285-2.2,29.935,29.935,0,0,1,5.342.594,17.34,17.34,0,0,0,2.827.349c.349.035.419.174.419.314a44.326,44.326,0,0,0-.244,4.957c0,.559-.07.734-.314.734-.175,0-.21-.209-.245-.523a5.352,5.352,0,0,0-.733-2.3c-.873-1.327-3.7-2.828-8.2-2.828a11.155,11.155,0,0,0-7.471,2.3c-2.024,1.605-3.455,4.782-3.455,8.866a14.239,14.239,0,0,0,3.7,9.67,12.7,12.7,0,0,0,9.146,3.735,9.526,9.526,0,0,0,3.979-.733,1.266,1.266,0,0,0,.7-1.221Z" transform="translate(-339.07 -277.023)" fill="#76777a"/>
        <path id="Path_22" data-name="Path 22" d="M603.819,277.023c7.854,0,13.718,4.957,13.718,13.091,0,7.819-5.515,14.277-13.928,14.277-9.565,0-13.545-7.436-13.545-13.718C590.065,285.017,594.184,277.023,603.819,277.023Zm.733,26.041c3.142,0,9.635-1.816,9.635-11.974,0-8.378-5.1-12.881-10.612-12.881-5.83,0-10.193,3.84-10.193,11.484C593.382,297.829,598.268,303.064,604.552,303.064Z" transform="translate(-348.162 -277.023)" fill="#76777a"/>
        <path id="Path_23" data-name="Path 23" d="M638.859,293.989c0,5.131.14,7.365.769,7.994.558.558,1.466.8,4.189.8,1.85,0,3.386-.035,4.223-1.048a4.865,4.865,0,0,0,.908-2.094c.035-.28.105-.454.314-.454.175,0,.209.14.209.524a22.21,22.21,0,0,1-.523,3.49c-.244.8-.349.943-2.2.943-5.027,0-7.331-.21-9.355-.21-.14,0-.734.035-1.431.035-.7.035-1.466.07-1.991.07-.383,0-.558-.07-.558-.279,0-.1.07-.209.28-.209a5.431,5.431,0,0,0,1.047-.139c.7-.14.873-.908,1.012-1.921.175-1.466.175-4.224.175-7.575v-6.144c0-5.446,0-6.423-.07-7.54-.07-1.187-.349-1.746-1.5-1.99a6.515,6.515,0,0,0-1.187-.105c-.139,0-.279-.07-.279-.209,0-.21.174-.279.558-.279,1.571,0,3.77.1,3.945.1s2.722-.1,3.769-.1c.384,0,.559.069.559.279,0,.139-.14.209-.279.209a8.178,8.178,0,0,0-1.152.105c-1.012.174-1.291.768-1.361,1.99-.07,1.117-.07,2.094-.07,7.54Z" transform="translate(-357.675 -277.163)" fill="#76777a"/>
        <path id="Path_24" data-name="Path 24" d="M664.157,287.774c0-5.446,0-6.423-.069-7.54-.07-1.187-.35-1.746-1.5-1.99a6.508,6.508,0,0,0-1.187-.105c-.139,0-.279-.07-.279-.209,0-.21.174-.279.559-.279,1.57,0,3.77.1,3.945.1.418,0,2.617-.1,4.712-.1,3.456,0,9.844-.314,14,3.98a12.473,12.473,0,0,1,3.385,8.866,14.272,14.272,0,0,1-3.77,9.844c-1.5,1.571-4.643,4.014-10.577,4.014-3,0-7.4-.419-7.749-.419-.174,0-2.374.1-3.421.1-.383,0-.558-.07-.558-.279,0-.1.07-.209.279-.209a5.421,5.421,0,0,0,1.047-.139c.7-.14.873-.908,1.013-1.921.174-1.466.174-4.224.174-7.575Zm2.932,3.77c0,3.7.035,6.911.07,7.575a7.626,7.626,0,0,0,.384,2.653c.454.664,1.815,1.4,5.934,1.4a11.712,11.712,0,0,0,8.308-3.247c1.816-1.78,2.792-5.131,2.792-8.343a12.484,12.484,0,0,0-3.35-8.8c-3.282-3.456-7.261-3.945-11.415-3.945a9.29,9.29,0,0,0-2.269.245.632.632,0,0,0-.419.7c-.035,1.187-.035,4.747-.035,7.436Z" transform="translate(-363.946 -277.161)" fill="#76777a"/>
      </g>
      <line id="Line_1" data-name="Line 1" x2="323.625" transform="translate(0.196 36.25)" fill="none" stroke="#eba900" stroke-width="2"/>
      <g id="Group_5" data-name="Group 5" transform="translate(0.176 45.547)">
        <path id="Path_25" data-name="Path 25" d="M284.32,337.229h-.293l-.11-.24a1.265,1.265,0,0,0-1.362-.85h-.926c-.174,0-.24.088-.24.261v2.528h1.3c.545,0,.687-.251.807-.7h.272a9.817,9.817,0,0,0,0,1.787h-.272c-.12-.436-.261-.709-.807-.709h-1.3v2.408c0,.381.207.5.784.544v.306c-.936-.033-1.928-.033-2.866,0v-.306c.588-.043.8-.163.8-.544v-5.175c0-.316-.185-.392-.774-.436v-.3h4.642c.142,0,.164.033.186.2Z" transform="translate(-279.308 -335.627)" fill="#76777a"/>
        <path id="Path_26" data-name="Path 26" d="M297.621,339.151a3.233,3.233,0,0,1-3.128,3.519c-1.841,0-3.16-1.482-3.16-3.573a3.227,3.227,0,0,1,3.127-3.52C296.3,335.577,297.621,337.059,297.621,339.151Zm-1.362.294c0-1.994-.807-3.487-1.973-3.487-.839,0-1.591.8-1.591,2.833,0,1.994.807,3.5,1.94,3.5C295.507,342.289,296.259,341.483,296.259,339.445Z" transform="translate(-281.979 -335.577)" fill="#76777a"/>
        <path id="Path_27" data-name="Path 27" d="M310.689,342.306l-.229.348a2.809,2.809,0,0,1-2.528-1.384l-.991-1.406c-.022,0-.054.011-.087.011l-.273.044v1.8c0,.381.186.5.763.544v.306c-.937-.033-1.885-.033-2.822,0v-.306c.588-.043.774-.163.774-.544V336.64c0-.316-.163-.49-.73-.534v-.3c1,.043,2.038,0,2.67,0,2.3,0,2.9.849,2.9,1.8,0,.916-.577,1.6-2.048,2.027l.915,1.286C309.589,341.75,310.2,342.262,310.689,342.306Zm-4.108-2.757.273-.033c1.536-.2,2.016-.915,2.016-1.863a1.347,1.347,0,0,0-1.449-1.515h-.839Z" transform="translate(-284.909 -335.627)" fill="#76777a"/>
        <path id="Path_28" data-name="Path 28" d="M331.564,342.246v.306c-.981-.033-1.994-.033-2.975,0v-.306c.73-.054.818-.218.654-.653l-.458-1.254H326.5l-.436,1.3c-.141.414.284.556.992.61v.306c-.806-.033-1.743-.033-2.538,0v-.306c.719-.054.991-.271,1.165-.773l1.984-5.742h.751l2.082,5.644C330.7,341.93,330.8,342.193,331.564,342.246Zm-2.91-2.266-1.067-2.92-.97,2.92Z" transform="translate(-289.35 -335.611)" fill="#76777a"/>
        <path id="Path_29" data-name="Path 29" d="M343.977,340.781a6.366,6.366,0,0,0-.337,1.787c-1.7-.033-3.2-.033-4.838,0v-.306c.588-.043.773-.163.773-.544v-5.066c0-.382-.207-.5-.8-.545v-.3c.937.033,1.929.033,2.866,0v.3c-.577.044-.784.163-.784.545v5.066c0,.381.065.491.392.491h.6c.818,0,1.144-.2,1.427-.709l.382-.719Z" transform="translate(-292.518 -335.627)" fill="#76777a"/>
        <path id="Path_30" data-name="Path 30" d="M355.583,340.781a6.371,6.371,0,0,0-.338,1.787c-1.7-.033-3.2-.033-4.837,0v-.306c.588-.043.773-.163.773-.544v-5.066c0-.382-.207-.5-.8-.545v-.3c.937.033,1.929.033,2.866,0v.3c-.577.044-.784.163-.784.545v5.066c0,.381.065.491.392.491h.6c.818,0,1.144-.2,1.427-.709l.382-.719Z" transform="translate(-295.097 -335.627)" fill="#76777a"/>
        <path id="Path_31" data-name="Path 31" d="M376.118,339.151a3.233,3.233,0,0,1-3.128,3.519c-1.841,0-3.16-1.482-3.16-3.573a3.227,3.227,0,0,1,3.127-3.52C374.8,335.577,376.118,337.059,376.118,339.151Zm-1.362.294c0-1.994-.807-3.487-1.973-3.487-.839,0-1.591.8-1.591,2.833,0,1.994.807,3.5,1.939,3.5C374,342.289,374.756,341.483,374.756,339.445Z" transform="translate(-299.416 -335.577)" fill="#76777a"/>
        <path id="Path_32" data-name="Path 32" d="M388.031,337.229h-.294l-.109-.24a1.265,1.265,0,0,0-1.362-.85h-.926c-.174,0-.24.088-.24.261v2.528h1.3c.545,0,.687-.251.807-.7h.272a9.8,9.8,0,0,0,0,1.787H387.2c-.12-.436-.261-.709-.807-.709h-1.3v2.408c0,.381.207.5.784.544v.306c-.937-.033-1.928-.033-2.866,0v-.306c.588-.043.8-.163.8-.544v-5.175c0-.316-.185-.392-.774-.436v-.3h4.642c.142,0,.164.033.185.2Z" transform="translate(-302.346 -335.627)" fill="#76777a"/>
        <path id="Path_33" data-name="Path 33" d="M408.588,335.8v.3a1.113,1.113,0,0,0-1.1.665l-1.5,2.909V341.6c0,.491.207.622.795.654v.316c-.947-.033-1.939-.033-2.887,0v-.306c.6-.043.807-.174.807-.664v-1.83l-1.668-3.04a.912.912,0,0,0-.915-.621v-.3q1.439.032,2.877,0v.3c-.588.033-.719.24-.512.632l1.329,2.474,1.275-2.452c.229-.447-.076-.622-.675-.654v-.3C407.138,335.823,407.869,335.823,408.588,335.8Z" transform="translate(-306.588 -335.627)" fill="#76777a"/>
        <path id="Path_34" data-name="Path 34" d="M421.2,339.151a3.232,3.232,0,0,1-3.126,3.519c-1.842,0-3.16-1.482-3.16-3.573a3.227,3.227,0,0,1,3.128-3.52C419.88,335.577,421.2,337.059,421.2,339.151Zm-1.362.294c0-1.994-.806-3.487-1.972-3.487-.839,0-1.591.8-1.591,2.833,0,1.994.806,3.5,1.939,3.5C419.084,342.289,419.836,341.483,419.836,339.445Z" transform="translate(-309.43 -335.577)" fill="#76777a"/>
        <path id="Path_35" data-name="Path 35" d="M434.447,336.651v5.164c0,.273.207.4.784.447v.306c-.937-.033-1.612-.033-2.266,0v-.306c.131-.086.2-.25.2-.577v-.316a2.343,2.343,0,0,1-2.168,1.308,2.03,2.03,0,0,1-2.169-2.168v-3.857c0-.382-.207-.5-.8-.545v-.3c.937.033,1.929.033,2.866,0v.3c-.578.044-.785.163-.785.545v3.857c0,1.068.457,1.721,1.285,1.721a2.094,2.094,0,0,0,1.766-1.383v-4.2c0-.382-.207-.5-.8-.545v-.3c.938.033,1.929.033,2.866,0v.3C434.654,336.15,434.447,336.269,434.447,336.651Z" transform="translate(-312.344 -335.627)" fill="#76777a"/>
        <path id="Path_36" data-name="Path 36" d="M448.49,342.306l-.229.348a2.808,2.808,0,0,1-2.528-1.384l-.991-1.406c-.023,0-.055.011-.088.011l-.271.044v1.8c0,.381.184.5.762.544v.306c-.937-.033-1.886-.033-2.822,0v-.306c.588-.043.773-.163.773-.544V336.64c0-.316-.163-.49-.73-.534v-.3c1,.043,2.037,0,2.67,0,2.3,0,2.9.849,2.9,1.8,0,.916-.578,1.6-2.049,2.027l.916,1.286C447.389,341.75,448,342.262,448.49,342.306Zm-4.107-2.757.271-.033c1.537-.2,2.016-.915,2.016-1.863a1.347,1.347,0,0,0-1.449-1.515h-.838Z" transform="translate(-315.519 -335.627)" fill="#76777a"/>
        <path id="Path_37" data-name="Path 37" d="M464.906,341.718c0,.381.184.5.763.544v.306c-.937-.033-1.886-.033-2.822,0v-.306c.588-.043.773-.163.773-.544V336.64c0-.316-.163-.49-.73-.534v-.3c1,.043,2.037,0,2.67,0,2.3,0,2.9.849,2.9,1.8,0,1.133-.883,1.929-3.28,2.278l-.272.044Zm.272-2.2c1.536-.2,2.016-.915,2.016-1.863a1.348,1.348,0,0,0-1.45-1.515h-.839v3.411Z" transform="translate(-320.078 -335.627)" fill="#76777a"/>
        <path id="Path_38" data-name="Path 38" d="M481.4,342.306l-.229.348a2.808,2.808,0,0,1-2.528-1.384l-.991-1.406c-.022,0-.055.011-.088.011l-.271.044v1.8c0,.381.184.5.762.544v.306c-.937-.033-1.886-.033-2.822,0v-.306c.588-.043.773-.163.773-.544V336.64c0-.316-.163-.49-.73-.534v-.3c1,.043,2.037,0,2.67,0,2.3,0,2.9.849,2.9,1.8,0,.916-.578,1.6-2.049,2.027l.916,1.286C480.3,341.75,480.914,342.262,481.4,342.306ZM477.3,339.55l.271-.033c1.537-.2,2.016-.915,2.016-1.863a1.347,1.347,0,0,0-1.449-1.515H477.3Z" transform="translate(-322.83 -335.627)" fill="#76777a"/>
        <path id="Path_39" data-name="Path 39" d="M493.293,340.781a6.341,6.341,0,0,0-.338,1.787c-1.7-.033-3.2-.033-4.837,0v-.306c.588-.043.773-.163.773-.544v-5.175c0-.316-.185-.392-.773-.436v-.3h4.641c.142,0,.163.033.185.2l.163,1.231h-.294l-.109-.24a1.266,1.266,0,0,0-1.362-.85h-.926c-.173,0-.239.088-.239.261v2.507h1.3c.545,0,.686-.262.807-.709h.271a10.058,10.058,0,0,0,0,1.8h-.271c-.121-.446-.261-.719-.807-.719h-1.3v2.44c0,.381.065.491.392.491h.6c.818,0,1.144-.2,1.427-.709l.381-.719Z" transform="translate(-325.692 -335.627)" fill="#76777a"/>
        <path id="Path_40" data-name="Path 40" d="M505.86,340.687a2.52,2.52,0,0,1-2.615,1.984,3.316,3.316,0,0,1-3.312-3.584,3.232,3.232,0,0,1,3.213-3.509c.764,0,1,.24,1.646.24a1.9,1.9,0,0,0,.447-.055,7.83,7.83,0,0,0,.48,1.875h-.589c-.436-1.024-1.078-1.668-2.016-1.668-1.045,0-1.819.785-1.819,2.789s.795,3.476,2.233,3.476a1.971,1.971,0,0,0,1.885-1.548Z" transform="translate(-328.316 -335.577)" fill="#76777a"/>
        <path id="Path_41" data-name="Path 41" d="M515.44,342.262v.306c-.937-.033-1.929-.033-2.866,0v-.306c.588-.043.8-.163.8-.544v-5.066c0-.382-.208-.5-.8-.545v-.3c.937.033,1.928.033,2.866,0v.3c-.577.044-.785.163-.785.545v5.066C514.656,342.1,514.864,342.219,515.44,342.262Z" transform="translate(-331.124 -335.627)" fill="#76777a"/>
        <path id="Path_42" data-name="Path 42" d="M527.569,339.151a3.233,3.233,0,0,1-3.126,3.519c-1.841,0-3.16-1.482-3.16-3.573a3.227,3.227,0,0,1,3.128-3.52C526.251,335.577,527.569,337.059,527.569,339.151Zm-1.362.294c0-1.994-.806-3.487-1.972-3.487-.839,0-1.591.8-1.591,2.833,0,1.994.806,3.5,1.939,3.5C525.455,342.289,526.206,341.483,526.206,339.445Z" transform="translate(-333.059 -335.577)" fill="#76777a"/>
        <path id="Path_43" data-name="Path 43" d="M540.733,336.651v5.164c0,.273.207.4.784.447v.306c-.937-.033-1.613-.033-2.266,0v-.306c.131-.086.2-.25.2-.577v-.316a2.343,2.343,0,0,1-2.168,1.308,2.03,2.03,0,0,1-2.169-2.168v-3.857c0-.382-.207-.5-.8-.545v-.3c.938.033,1.929.033,2.867,0v.3c-.578.044-.785.163-.785.545v3.857c0,1.068.457,1.721,1.286,1.721a2.094,2.094,0,0,0,1.765-1.383v-4.2c0-.382-.207-.5-.795-.545v-.3c.937.033,1.928.033,2.865,0v.3C540.94,336.15,540.733,336.269,540.733,336.651Z" transform="translate(-335.954 -335.627)" fill="#76777a"/>
        <path id="Path_44" data-name="Path 44" d="M550.52,339.576c-1.025-.479-1.917-1.09-1.917-2.2a1.842,1.842,0,0,1,2.092-1.8,6.238,6.238,0,0,1,1.329.251c.121,0,.207-.022.251-.163h.359l.076,1.5h-.3c-.436-.926-1-1.2-1.558-1.2a1.006,1.006,0,0,0-1.123,1.014c0,.643.481,1.025,1.3,1.417.861.4,2.234.916,2.234,2.31a2.083,2.083,0,0,1-2.267,1.95c-.86,0-1.274-.436-1.623-.436a.391.391,0,0,0-.37.294h-.37l-.1-1.591h.349a2.1,2.1,0,0,0,1.917,1.318,1.091,1.091,0,0,0,1.231-1.1C552.023,340.4,551.446,340.012,550.52,339.576Z" transform="translate(-339.11 -335.577)" fill="#76777a"/>
        <path id="Path_45" data-name="Path 45" d="M575.213,342.262v.306c-.937-.033-1.928-.033-2.866,0v-.306c.589-.043.795-.141.795-.6v-4.75l-2.092,5.655h-.141l-2.3-5.655v4.75c0,.458.4.545,1.09.6v.306c-.872-.033-1.743-.033-2.582,0v-.306c.675-.054,1.057-.141,1.057-.6V336.8c0-.436-.327-.653-.915-.7v-.3c.708.033,1.448.033,2.157,0l1.95,4.772,1.755-4.772c.7.033,1.373.033,2.081,0v.3c-.577.044-.785.163-.785.578v4.979C574.417,342.121,574.625,342.219,575.213,342.262Z" transform="translate(-343.24 -335.627)" fill="#76777a"/>
        <path id="Path_46" data-name="Path 46" d="M587.456,340.781a6.341,6.341,0,0,0-.338,1.787c-1.7-.033-3.2-.033-4.838,0v-.306c.588-.043.773-.163.773-.544v-5.175c0-.316-.185-.392-.773-.436v-.3h4.642c.142,0,.163.033.185.2l.163,1.231h-.294l-.109-.24a1.265,1.265,0,0,0-1.362-.85h-.927c-.173,0-.239.088-.239.261v2.507h1.3c.545,0,.687-.262.807-.709h.272a9.89,9.89,0,0,0,0,1.8h-.272c-.12-.446-.261-.719-.807-.719h-1.3v2.44c0,.381.065.491.392.491h.6c.817,0,1.144-.2,1.427-.709l.381-.719Z" transform="translate(-346.608 -335.627)" fill="#76777a"/>
        <path id="Path_47" data-name="Path 47" d="M599.263,335.689l-.392,1.483h-.3c.1-.8-.121-1.014-.545-1.014h-.937v5.535c0,.381.208.5.9.544v.306c-1.056-.033-2.048-.033-3.094,0v-.306c.7-.043.9-.163.9-.544v-5.535h-.74c-.534,0-.719.163-1.133,1.014h-.306l.381-1.483h.284a4.224,4.224,0,0,0,1.111.088h2.474a4.229,4.229,0,0,0,1.112-.088Z" transform="translate(-349.127 -335.602)" fill="#76777a"/>
        <path id="Path_48" data-name="Path 48" d="M612.276,342.246v.306c-.981-.033-1.994-.033-2.975,0v-.306c.73-.054.818-.218.654-.653l-.458-1.254h-2.289l-.435,1.3c-.142.414.283.556.992.61v.306c-.807-.033-1.743-.033-2.539,0v-.306c.719-.054.992-.271,1.166-.773l1.983-5.742h.752l2.081,5.644C611.415,341.93,611.513,342.193,612.276,342.246Zm-2.909-2.266-1.068-2.92-.969,2.92Z" transform="translate(-351.705 -335.611)" fill="#76777a"/>
        <path id="Path_49" data-name="Path 49" d="M624.452,340.781a6.343,6.343,0,0,0-.338,1.787c-1.7-.033-3.2-.033-4.838,0v-.306c.589-.043.774-.163.774-.544v-5.066c0-.382-.207-.5-.795-.545v-.3c.936.033,1.928.033,2.865,0v.3c-.577.044-.784.163-.784.545v5.066c0,.381.065.491.393.491h.6c.817,0,1.144-.2,1.427-.709l.381-.719Z" transform="translate(-354.822 -335.627)" fill="#76777a"/>
        <path id="Path_50" data-name="Path 50" d="M645.689,335.8v.3c-.665.055-1.046.142-1.046.589v5.873h-.381l-3.771-5.633v4.729c0,.458.4.545,1.1.6v.306c-.871-.033-1.754-.033-2.571,0v-.306c.654-.054,1.035-.141,1.035-.6V336.8c0-.425-.327-.653-.916-.7v-.3c.708.033,1.4.033,2.1,0l2.964,4.478v-3.585c0-.446-.392-.534-1.1-.589v-.3C643.989,335.835,644.872,335.835,645.689,335.8Z" transform="translate(-359.212 -335.627)" fill="#76777a"/>
        <path id="Path_51" data-name="Path 51" d="M657.805,340.781a6.362,6.362,0,0,0-.338,1.787c-1.7-.033-3.2-.033-4.838,0v-.306c.588-.043.773-.163.773-.544v-5.175c0-.316-.185-.392-.773-.436v-.3h4.642c.141,0,.163.033.185.2l.163,1.231h-.294l-.11-.24a1.265,1.265,0,0,0-1.362-.85h-.926c-.174,0-.24.088-.24.261v2.507h1.3c.546,0,.687-.262.807-.709h.273a9.9,9.9,0,0,0,0,1.8h-.273c-.12-.446-.26-.719-.807-.719h-1.3v2.44c0,.381.065.491.392.491h.6c.818,0,1.143-.2,1.427-.709l.381-.719Z" transform="translate(-362.235 -335.627)" fill="#76777a"/>
        <path id="Path_52" data-name="Path 52" d="M669.285,340.781a6.338,6.338,0,0,0-.338,1.787c-1.7-.033-3.2-.033-4.838,0v-.306c.588-.043.774-.163.774-.544v-5.175c0-.316-.186-.392-.774-.436v-.3h4.642c.142,0,.163.033.185.2l.163,1.231H668.8l-.109-.24a1.265,1.265,0,0,0-1.362-.85h-.926c-.174,0-.239.088-.239.261v2.507h1.3c.545,0,.687-.262.807-.709h.272a9.9,9.9,0,0,0,0,1.8h-.272c-.12-.446-.261-.719-.807-.719h-1.3v2.44c0,.381.065.491.392.491h.6c.818,0,1.144-.2,1.427-.709l.381-.719Z" transform="translate(-364.785 -335.627)" fill="#76777a"/>
        <path id="Path_53" data-name="Path 53" d="M682.717,339.147a3.1,3.1,0,0,1-3.062,3.421c-.566,0-1.122-.174-1.732-.174a7.437,7.437,0,0,0-1.493.174v-.306c.545-.119.773-.218.773-.566v-4.991c0-.359-.163-.555-.73-.6v-.3c1,.043,1.7,0,2.6,0C681.234,335.8,682.717,336.793,682.717,339.147Zm-1.406.1c0-1.842-.664-3.106-2.267-3.106-.109,0-.305,0-.555.023v5.469c0,.5.435.578.806.578C680.831,342.208,681.311,340.923,681.311,339.245Z" transform="translate(-367.522 -335.627)" fill="#76777a"/>
        <path id="Path_54" data-name="Path 54" d="M691.275,339.576c-1.025-.479-1.918-1.09-1.918-2.2a1.842,1.842,0,0,1,2.092-1.8,6.252,6.252,0,0,1,1.329.251c.121,0,.207-.022.251-.163h.359l.076,1.5h-.3c-.436-.926-1-1.2-1.558-1.2a1.006,1.006,0,0,0-1.123,1.014c0,.643.48,1.025,1.3,1.417.861.4,2.234.916,2.234,2.31a2.083,2.083,0,0,1-2.267,1.95c-.86,0-1.274-.436-1.623-.436a.39.39,0,0,0-.37.294h-.37l-.1-1.591h.349a2.1,2.1,0,0,0,1.917,1.318,1.091,1.091,0,0,0,1.231-1.1C692.778,340.4,692.2,340.012,691.275,339.576Z" transform="translate(-370.377 -335.577)" fill="#76777a"/>
      </g>
    </g>
  </g>
</svg>
