<svg id="Instagram" xmlns="http://www.w3.org/2000/svg" width="36.667" height="36.667" viewBox="0 0 36.667 36.667">
  <path id="Combined_Shape" data-name="Combined Shape" d="M18.333,36.667A18.334,18.334,0,0,1,5.37,5.37,18.334,18.334,0,0,1,31.3,31.3,18.214,18.214,0,0,1,18.333,36.667Zm0-28.112-.524,0c-2.15,0-2.528.013-3.506.058a7.218,7.218,0,0,0-2.373.455,5,5,0,0,0-2.861,2.859A7.2,7.2,0,0,0,8.615,14.3c-.048,1.071-.059,1.423-.059,4.032,0,2.631.011,2.979.059,4.03a7.218,7.218,0,0,0,.455,2.373A5,5,0,0,0,11.929,27.6a7.246,7.246,0,0,0,2.373.454c1.051.048,1.4.059,4.031.059s2.98-.011,4.031-.059a7.248,7.248,0,0,0,2.374-.454A5.01,5.01,0,0,0,27.6,24.737a7.29,7.29,0,0,0,.455-2.373c.048-1.07.059-1.422.059-4.03s-.011-2.961-.059-4.032a7.29,7.29,0,0,0-.455-2.373,5,5,0,0,0-2.86-2.859,7.234,7.234,0,0,0-2.375-.455C21.312,8.567,20.964,8.555,18.333,8.555Z" transform="translate(0)" fill="#fff"/>
  <path id="Combined_Shape-2" data-name="Combined Shape" d="M8.015,16.029c-2.611,0-2.92-.01-3.951-.057a5.415,5.415,0,0,1-1.815-.337A3.015,3.015,0,0,1,1.125,14.9,3.02,3.02,0,0,1,.393,13.78a5.4,5.4,0,0,1-.337-1.815C.01,10.951,0,10.644,0,8.014s.01-2.935.056-3.95A5.415,5.415,0,0,1,.393,2.248a3.02,3.02,0,0,1,.732-1.124A3.02,3.02,0,0,1,2.249.392,5.379,5.379,0,0,1,4.064.055C4.982.014,5.327,0,7.139,0c.083,0,.171,0,.249,0h.628c2.63,0,2.937.01,3.952.056A5.451,5.451,0,0,1,13.783.4a3.027,3.027,0,0,1,1.123.732,3.029,3.029,0,0,1,.732,1.124,5.4,5.4,0,0,1,.337,1.815c.048,1.047.058,1.359.058,3.95s-.01,2.9-.058,3.949a5.384,5.384,0,0,1-.337,1.815,3.246,3.246,0,0,1-1.855,1.855,5.4,5.4,0,0,1-1.815.337C10.936,16.019,10.627,16.029,8.015,16.029ZM8.015,3a5.021,5.021,0,1,0,5.021,5.021A5.027,5.027,0,0,0,8.015,3Zm5.22-1.371A1.173,1.173,0,1,0,14.408,2.8,1.174,1.174,0,0,0,13.235,1.625Z" transform="translate(10.319 10.315)" fill="#fff"/>
  <path id="Shape" d="M6.519,3.259A3.259,3.259,0,1,1,3.259,0h0A3.259,3.259,0,0,1,6.519,3.259Z" transform="translate(15.075 15.074)" fill="#fff"/>
</svg>
