<svg xmlns="http://www.w3.org/2000/svg" xmlns:xlink="http://www.w3.org/1999/xlink" width="335.144" height="192.557" viewBox="0 0 335.144 192.557">
  <defs>
    <radialGradient id="radial-gradient" cx="0.562" cy="0.498" r="0.92" gradientUnits="objectBoundingBox">
      <stop offset="0" stop-color="#fff"/>
      <stop offset="0.127" stop-color="#fbe76e"/>
      <stop offset="0.66" stop-color="#cd8f1d"/>
      <stop offset="1" stop-color="#8a3b16"/>
    </radialGradient>
    <linearGradient id="linear-gradient" x1="56.609" y1="15.914" x2="56.677" y2="15.914" gradientUnits="objectBoundingBox">
      <stop offset="0" stop-color="#cd8f1d"/>
      <stop offset="1" stop-color="#8a3b16"/>
    </linearGradient>
    <radialGradient id="radial-gradient-2" cx="-0.842" cy="0.5" r="2.292" gradientUnits="objectBoundingBox">
      <stop offset="0" stop-color="#fff"/>
      <stop offset="0.33" stop-color="#fbe76e"/>
      <stop offset="0.66" stop-color="#cd8f1d"/>
      <stop offset="1" stop-color="#8a3b16"/>
    </radialGradient>
    <radialGradient id="radial-gradient-3" cx="0.741" cy="1.9" r="2.586" xlink:href="#radial-gradient-2"/>
    <radialGradient id="radial-gradient-4" cx="0.479" cy="0.968" r="1.858" gradientUnits="objectBoundingBox">
      <stop offset="0" stop-color="#fff"/>
      <stop offset="0.33" stop-color="#fff"/>
      <stop offset="0.66" stop-color="#fff" stop-opacity="0"/>
      <stop offset="1" stop-color="#fff" stop-opacity="0"/>
    </radialGradient>
    <radialGradient id="radial-gradient-5" cx="0.981" cy="0.698" r="0.747" xlink:href="#radial-gradient-4"/>
    <radialGradient id="radial-gradient-6" cx="0.741" cy="0.319" r="0.832" xlink:href="#radial-gradient-4"/>
    <linearGradient id="linear-gradient-2" x1="68.385" y1="33.41" x2="68.385" y2="33.119" gradientUnits="objectBoundingBox">
      <stop offset="0" stop-color="#fff"/>
      <stop offset="1" stop-color="#fff" stop-opacity="0"/>
    </linearGradient>
    <linearGradient id="linear-gradient-3" x1="137.916" y1="4.788" x2="137.791" y2="4.788" xlink:href="#linear-gradient-2"/>
    <linearGradient id="linear-gradient-4" x1="0.828" y1="-0.786" x2="0.513" y2="0.519" xlink:href="#linear-gradient-2"/>
    <radialGradient id="radial-gradient-7" cx="0.5" cy="1.875" r="2.408" gradientUnits="objectBoundingBox">
      <stop offset="0" stop-color="#fff"/>
      <stop offset="0.5" stop-color="#7d7d7d"/>
      <stop offset="1" stop-color="#231916"/>
    </radialGradient>
    <radialGradient id="radial-gradient-8" cx="0.183" cy="1.287" r="2.967" xlink:href="#radial-gradient-7"/>
  </defs>
  <g id="Group_12237" data-name="Group 12237" transform="translate(9839.438 820.517)">
    <g id="Group_12508" data-name="Group 12508" transform="translate(-9839.438 -820.017)">
      <g id="Group_12497" data-name="Group 12497" transform="translate(0.708 176.947)">
        <line id="Line_42" data-name="Line 42" x2="333.076" transform="translate(0)" fill="none" stroke="#e9a722" stroke-width="3"/>
      </g>
      <g id="Group_12499" data-name="Group 12499" transform="translate(0.707 181.798)">
        <path id="Path_4443" data-name="Path 4443" d="M21.458,241.85l2.708,7.975a5.455,5.455,0,0,0,.269.665,1.211,1.211,0,0,0,1.124.566v.431c-1.294-.057-2.588-.057-3.889,0v-.431a1.3,1.3,0,0,0,.863-.262c.113-.127.106-.354-.014-.658l-.594-1.775H18.941l-.566,1.838a.468.468,0,0,0,.2.594,2.738,2.738,0,0,0,1.1.269v.431a32.43,32.43,0,0,0-3.316,0v-.431a1.924,1.924,0,0,0,1.011-.3,1.607,1.607,0,0,0,.516-.785l2.581-8.11h1v-.014Zm-1.089,1.874L19.1,247.846h2.658Z" transform="translate(-16.36 -241.447)" fill="#76777a"/>
        <path id="Path_4444" data-name="Path 4444" d="M43.8,243.2v7.042a.781.781,0,0,0,.212.636,1.557,1.557,0,0,0,.82.212v.431c-1.244-.057-2.5-.057-3.733,0v-.431a1.618,1.618,0,0,0,.813-.212.769.769,0,0,0,.219-.636v-6.71l-2.722,7.99h-.184l-3-7.99v6.7a.626.626,0,0,0,.318.6,3.178,3.178,0,0,0,1.1.247v.431a33.393,33.393,0,0,0-3.366,0v-.431a2.812,2.812,0,0,0,1.075-.247.629.629,0,0,0,.3-.6v-6.865c0-.594-.4-.926-1.195-.99v-.438a23.361,23.361,0,0,0,2.814,0l2.538,6.738,2.291-6.738c.905.035,1.8.035,2.708,0v.438a1.587,1.587,0,0,0-.806.212A.778.778,0,0,0,43.8,243.2Z" transform="translate(-21.61 -241.473)" fill="#76777a"/>
        <path id="Path_4445" data-name="Path 4445" d="M60.264,250l.495-1.018h.4a10.813,10.813,0,0,0-.438,2.524q-3.214-.053-6.314,0v-.431a1.668,1.668,0,0,0,.8-.205.655.655,0,0,0,.212-.573v-7.318a.479.479,0,0,0-.205-.445,2.086,2.086,0,0,0-.806-.17v-.438h6.052a.234.234,0,0,1,.17.042.836.836,0,0,1,.071.226l.212,1.739h-.382l-.148-.339a2.049,2.049,0,0,0-.665-.926,1.965,1.965,0,0,0-1.11-.269H57.4c-.205,0-.311.12-.311.368v3.542h1.69a.89.89,0,0,0,.707-.24,1.89,1.89,0,0,0,.346-.757h.375a16.9,16.9,0,0,0,0,2.538h-.354a1.709,1.709,0,0,0-.339-.771.917.917,0,0,0-.714-.24h-1.69v3.443a.994.994,0,0,0,.1.552.492.492,0,0,0,.41.134H58.4a2.588,2.588,0,0,0,1.181-.212A1.613,1.613,0,0,0,60.264,250Z" transform="translate(-27.507 -241.47)" fill="#76777a"/>
        <path id="Path_4446" data-name="Path 4446" d="M73.945,247.365l1.195,1.824c.806,1.251,1.541,1.916,2.2,1.973l-.3.488a3.739,3.739,0,0,1-3.288-1.951l-1.294-1.98a.124.124,0,0,0-.042.007.293.293,0,0,1-.071.007l-.354.064v2.538a.677.677,0,0,0,.212.566,1.593,1.593,0,0,0,.778.205v.431c-1.216-.057-2.446-.057-3.684,0V251.1a1.667,1.667,0,0,0,.8-.205.655.655,0,0,0,.212-.573v-7.169a.653.653,0,0,0-.212-.537,1.323,1.323,0,0,0-.742-.212v-.438c.346.021.757.028,1.23.028.283,0,.728-.007,1.329-.014s.905-.014.919-.014c2.517,0,3.783.848,3.783,2.538C76.618,245.852,75.72,246.806,73.945,247.365Zm-.87-4.928h-1.1v4.822l.354-.042a3.311,3.311,0,0,0,2.029-.877,2.546,2.546,0,0,0,.6-1.761,2.379,2.379,0,0,0-.481-1.57A1.721,1.721,0,0,0,73.076,242.437Z" transform="translate(-31.869 -241.482)" fill="#76777a"/>
        <path id="Path_4447" data-name="Path 4447" d="M88.6,243.162v7.155a.68.68,0,0,0,.219.566,1.728,1.728,0,0,0,.806.2v.431c-1.237-.057-2.489-.057-3.74,0v-.431a1.71,1.71,0,0,0,.813-.2.641.641,0,0,0,.219-.566v-7.155a.655.655,0,0,0-.219-.559,1.735,1.735,0,0,0-.813-.205v-.438c1.237.057,2.489.057,3.74,0v.438a1.634,1.634,0,0,0-.806.212A.64.64,0,0,0,88.6,243.162Z" transform="translate(-36.726 -241.479)" fill="#76777a"/>
        <path id="Path_4448" data-name="Path 4448" d="M103.628,248.826h.58a3.935,3.935,0,0,1-1.117,1.994,3.172,3.172,0,0,1-2.3.806,3.872,3.872,0,0,1-3.111-1.421,5.449,5.449,0,0,1-1.2-3.641A5.386,5.386,0,0,1,97.64,243a3.735,3.735,0,0,1,3.019-1.4,4.1,4.1,0,0,1,1.131.177,4.22,4.22,0,0,0,1.011.17,2.261,2.261,0,0,0,.58-.078,12.554,12.554,0,0,0,.629,2.644h-.764q-.923-2.355-2.63-2.354a1.987,1.987,0,0,0-1.739.955,5.458,5.458,0,0,0-.636,2.984A7.249,7.249,0,0,0,99,249.653a2.373,2.373,0,0,0,2.149,1.365,2.177,2.177,0,0,0,1.478-.559A3.194,3.194,0,0,0,103.628,248.826Z" transform="translate(-39.831 -241.374)" fill="#76777a"/>
        <path id="Path_4449" data-name="Path 4449" d="M117.108,241.85l2.708,7.975a5.46,5.46,0,0,0,.269.665,1.211,1.211,0,0,0,1.124.566v.431c-1.294-.057-2.588-.057-3.889,0v-.431a1.3,1.3,0,0,0,.863-.262c.113-.127.106-.354-.014-.658l-.594-1.775h-2.984l-.566,1.838a.468.468,0,0,0,.2.594,2.738,2.738,0,0,0,1.1.269v.431a32.43,32.43,0,0,0-3.316,0v-.431a1.924,1.924,0,0,0,1.011-.3,1.607,1.607,0,0,0,.516-.785l2.581-8.11h1v-.014Zm-1.075,1.874-1.266,4.122h2.659Z" transform="translate(-44.381 -241.447)" fill="#76777a"/>
        <path id="Path_4450" data-name="Path 4450" d="M128.913,244.7c-.092.092-.177.1-.262.014l-.12-.17a1.855,1.855,0,0,0,.488-1.266.421.421,0,0,0-.028-.177c-.035.007-.113.021-.219.035a.759.759,0,0,1-.594-.269,1,1,0,0,1,.007-1.322.882.882,0,0,1,1.35.1,1.542,1.542,0,0,1,.262.912A2.954,2.954,0,0,1,128.913,244.7Z" transform="translate(-49.045 -241.28)" fill="#76777a"/>
        <path id="Path_4451" data-name="Path 4451" d="M141.15,249.479a1.657,1.657,0,0,0-.481-1.216,5.968,5.968,0,0,0-1.485-1,6.506,6.506,0,0,1-1.838-1.315,2.545,2.545,0,0,1-.658-1.8,2.423,2.423,0,0,1,.742-1.852,2.812,2.812,0,0,1,1.98-.686,3.406,3.406,0,0,1,1.1.184,3.667,3.667,0,0,0,.629.177.318.318,0,0,0,.332-.226h.467l.106,2.121h-.4c-.495-1.124-1.174-1.69-2.036-1.69a1.434,1.434,0,0,0-1.075.4,1.419,1.419,0,0,0-.389,1.032,1.608,1.608,0,0,0,.4,1.1,4.84,4.84,0,0,0,1.287.9c.028.014.148.078.346.184l.4.2q.127.064.382.212a3.155,3.155,0,0,1,.4.247l.354.269a1.64,1.64,0,0,1,.339.318c.092.113.184.24.269.368a2.584,2.584,0,0,1,.431,1.464,2.446,2.446,0,0,1-.9,2.029,3.166,3.166,0,0,1-2.05.728,3.215,3.215,0,0,1-1.308-.3,3.477,3.477,0,0,0-.806-.3.466.466,0,0,0-.481.41h-.481l-.127-2.248h.46a3.153,3.153,0,0,0,1.025,1.379,2.418,2.418,0,0,0,1.471.488,1.477,1.477,0,0,0,1.605-1.577Z" transform="translate(-51.582 -241.377)" fill="#76777a"/>
        <path id="Path_4452" data-name="Path 4452" d="M162.587,247.712l-.354.064v2.538a.677.677,0,0,0,.212.566,1.594,1.594,0,0,0,.778.205v.431c-1.216-.057-2.446-.057-3.684,0v-.431a1.668,1.668,0,0,0,.8-.205.655.655,0,0,0,.212-.573v-7.169a.653.653,0,0,0-.212-.537,1.323,1.323,0,0,0-.742-.212v-.438c.346.021.757.028,1.23.028.283,0,.728-.007,1.329-.014s.905-.014.919-.014c2.517,0,3.783.848,3.783,2.538a2.525,2.525,0,0,1-1.011,2.057A6.846,6.846,0,0,1,162.587,247.712Zm-.346-5.282v4.822l.354-.042a3.311,3.311,0,0,0,2.029-.877,2.546,2.546,0,0,0,.6-1.761,2.379,2.379,0,0,0-.481-1.57,1.72,1.72,0,0,0-1.407-.566h-1.1Z" transform="translate(-58.305 -241.476)" fill="#76777a"/>
        <path id="Path_4453" data-name="Path 4453" d="M179.975,247.365l1.195,1.824c.806,1.251,1.541,1.916,2.2,1.973l-.3.488a3.739,3.739,0,0,1-3.288-1.951l-1.294-1.98a.124.124,0,0,0-.042.007.293.293,0,0,1-.071.007l-.354.064v2.538a.677.677,0,0,0,.212.566,1.593,1.593,0,0,0,.778.205v.431c-1.216-.057-2.446-.057-3.684,0V251.1a1.667,1.667,0,0,0,.8-.205.655.655,0,0,0,.212-.573v-7.169a.653.653,0,0,0-.212-.537,1.323,1.323,0,0,0-.742-.212v-.438c.346.021.757.028,1.23.028.283,0,.728-.007,1.329-.014s.905-.014.919-.014c2.517,0,3.783.848,3.783,2.538C182.641,245.852,181.757,246.806,179.975,247.365Zm-.87-4.928h-1.1v4.822l.354-.042a3.311,3.311,0,0,0,2.029-.877,2.546,2.546,0,0,0,.6-1.761,2.379,2.379,0,0,0-.481-1.57A1.7,1.7,0,0,0,179.106,242.437Z" transform="translate(-62.931 -241.482)" fill="#76777a"/>
        <path id="Path_4454" data-name="Path 4454" d="M197.744,250l.495-1.018h.4a10.815,10.815,0,0,0-.438,2.524q-3.214-.053-6.314,0v-.431a1.668,1.668,0,0,0,.8-.205.655.655,0,0,0,.212-.573v-7.318a.48.48,0,0,0-.205-.445,2.086,2.086,0,0,0-.806-.17v-.438h6.052c.085,0,.149.014.17.042a.837.837,0,0,1,.071.226l.212,1.739h-.382l-.148-.339a2.049,2.049,0,0,0-.665-.926,1.965,1.965,0,0,0-1.11-.269h-1.209c-.205,0-.311.12-.311.368v3.542h1.69a.89.89,0,0,0,.707-.24,1.89,1.89,0,0,0,.346-.757h.354a16.892,16.892,0,0,0,0,2.538h-.354a1.709,1.709,0,0,0-.339-.771.917.917,0,0,0-.714-.24h-1.69v3.443a.994.994,0,0,0,.1.552.492.492,0,0,0,.41.134h.778a2.588,2.588,0,0,0,1.181-.212A1.546,1.546,0,0,0,197.744,250Z" transform="translate(-67.782 -241.47)" fill="#76777a"/>
        <path id="Path_4455" data-name="Path 4455" d="M214.128,248.826h.58a3.935,3.935,0,0,1-1.117,1.994,3.173,3.173,0,0,1-2.3.806,3.872,3.872,0,0,1-3.111-1.421,5.449,5.449,0,0,1-1.2-3.641A5.386,5.386,0,0,1,208.14,243a3.735,3.735,0,0,1,3.019-1.4,4.1,4.1,0,0,1,1.131.177,4.22,4.22,0,0,0,1.011.17,2.262,2.262,0,0,0,.58-.078,12.551,12.551,0,0,0,.629,2.644h-.764q-.923-2.355-2.63-2.354a1.987,1.987,0,0,0-1.739.955,5.458,5.458,0,0,0-.636,2.984,7.249,7.249,0,0,0,.764,3.556,2.365,2.365,0,0,0,2.149,1.365,2.177,2.177,0,0,0,1.478-.559A3.29,3.29,0,0,0,214.128,248.826Z" transform="translate(-72.203 -241.374)" fill="#76777a"/>
        <path id="Path_4456" data-name="Path 4456" d="M225.945,243.162v7.155a.68.68,0,0,0,.219.566,1.727,1.727,0,0,0,.806.2v.431c-1.237-.057-2.489-.057-3.74,0v-.431a1.71,1.71,0,0,0,.813-.2.641.641,0,0,0,.219-.566v-7.155a.655.655,0,0,0-.219-.559,1.734,1.734,0,0,0-.813-.205v-.438c1.237.057,2.489.057,3.74,0v.438a1.633,1.633,0,0,0-.806.212A.6.6,0,0,0,225.945,243.162Z" transform="translate(-76.963 -241.479)" fill="#76777a"/>
        <path id="Path_4457" data-name="Path 4457" d="M237.906,241.6a3.634,3.634,0,0,1,2.963,1.421,5.541,5.541,0,0,1,1.152,3.634,5.483,5.483,0,0,1-1.145,3.563,3.605,3.605,0,0,1-2.92,1.414,3.666,3.666,0,0,1-2.963-1.414,6.237,6.237,0,0,1-.014-7.2A3.59,3.59,0,0,1,237.906,241.6Zm.226,9.489a1.723,1.723,0,0,0,1.513-1,6.074,6.074,0,0,0,.594-3.033,7.735,7.735,0,0,0-.714-3.528,2.131,2.131,0,0,0-1.852-1.4,1.738,1.738,0,0,0-1.485.99,6.065,6.065,0,0,0-.587,3.019,7.928,7.928,0,0,0,.707,3.535C236.788,250.622,237.4,251.089,238.132,251.089Z" transform="translate(-80.071 -241.374)" fill="#76777a"/>
        <path id="Path_4458" data-name="Path 4458" d="M260.035,241.954v.438a1.668,1.668,0,0,0-.8.205.645.645,0,0,0-.219.559v7.3a.466.466,0,0,0,.24.438,1.849,1.849,0,0,0,.778.191v.431c-1.16-.035-2.149-.035-2.955,0v-.431c.17-.12.262-.4.262-.82v-.445a2.938,2.938,0,0,1-2.821,1.845,2.639,2.639,0,0,1-2.065-.834,3.236,3.236,0,0,1-.764-2.227v-5.451a.655.655,0,0,0-.219-.559,1.71,1.71,0,0,0-.813-.205v-.438q1.856.085,3.733,0v.438a1.668,1.668,0,0,0-.8.205.645.645,0,0,0-.219.559V248.6a3.1,3.1,0,0,0,.445,1.789,1.41,1.41,0,0,0,1.23.643,1.9,1.9,0,0,0,1.372-.58,4.011,4.011,0,0,0,.926-1.386v-5.925a.655.655,0,0,0-.219-.559,1.709,1.709,0,0,0-.813-.205v-.438C257.554,242,258.8,242,260.035,241.954Z" transform="translate(-84.999 -241.473)" fill="#76777a"/>
        <path id="Path_4459" data-name="Path 4459" d="M273.7,249.479a1.658,1.658,0,0,0-.481-1.216,5.971,5.971,0,0,0-1.485-1,6.505,6.505,0,0,1-1.838-1.315,2.545,2.545,0,0,1-.658-1.8,2.423,2.423,0,0,1,.742-1.852,2.812,2.812,0,0,1,1.98-.686,3.406,3.406,0,0,1,1.1.184,3.67,3.67,0,0,0,.629.177.319.319,0,0,0,.332-.226h.467l.106,2.121h-.4c-.495-1.124-1.174-1.69-2.036-1.69a1.434,1.434,0,0,0-1.075.4,1.419,1.419,0,0,0-.389,1.032,1.608,1.608,0,0,0,.4,1.1,4.841,4.841,0,0,0,1.287.9c.028.014.148.078.346.184l.4.2q.127.064.382.212a3.15,3.15,0,0,1,.4.247l.354.269a1.638,1.638,0,0,1,.339.318c.092.113.184.24.269.368a2.584,2.584,0,0,1,.431,1.464,2.446,2.446,0,0,1-.9,2.029,3.166,3.166,0,0,1-2.05.728,3.215,3.215,0,0,1-1.308-.3,3.475,3.475,0,0,0-.806-.3.466.466,0,0,0-.481.41h-.481l-.127-2.248h.46a3.152,3.152,0,0,0,1.025,1.379,2.418,2.418,0,0,0,1.471.488,1.477,1.477,0,0,0,1.605-1.577Z" transform="translate(-90.412 -241.377)" fill="#76777a"/>
        <path id="Path_4460" data-name="Path 4460" d="M301.437,243.2v7.042a.781.781,0,0,0,.212.636,1.536,1.536,0,0,0,.82.212v.431c-1.244-.057-2.5-.057-3.733,0v-.431a1.618,1.618,0,0,0,.813-.212.768.768,0,0,0,.219-.636v-6.71l-2.722,7.99h-.184l-3-7.99v6.7a.626.626,0,0,0,.318.6,3.177,3.177,0,0,0,1.1.247v.431a33.394,33.394,0,0,0-3.366,0v-.431a2.812,2.812,0,0,0,1.075-.247.629.629,0,0,0,.3-.6v-6.865c0-.594-.4-.926-1.195-.99v-.438a23.36,23.36,0,0,0,2.814,0l2.538,6.738,2.291-6.738c.9.035,1.8.035,2.708,0v.438a1.587,1.587,0,0,0-.806.212A.731.731,0,0,0,301.437,243.2Z" transform="translate(-97.086 -241.473)" fill="#76777a"/>
        <path id="Path_4461" data-name="Path 4461" d="M317.894,250l.495-1.018h.4a10.814,10.814,0,0,0-.438,2.524q-3.214-.053-6.314,0v-.431a1.668,1.668,0,0,0,.8-.205.655.655,0,0,0,.212-.573v-7.318a.479.479,0,0,0-.205-.445,2.086,2.086,0,0,0-.806-.17v-.438h6.052c.085,0,.149.014.17.042a.838.838,0,0,1,.071.226l.212,1.739h-.382l-.148-.339a2.049,2.049,0,0,0-.665-.926,1.965,1.965,0,0,0-1.11-.269h-1.209c-.205,0-.311.12-.311.368v3.542h1.69a.89.89,0,0,0,.707-.24,1.892,1.892,0,0,0,.346-.757h.354a16.892,16.892,0,0,0,0,2.538h-.354a1.71,1.71,0,0,0-.339-.771.918.918,0,0,0-.714-.24h-1.69v3.443a1,1,0,0,0,.1.552.492.492,0,0,0,.41.134h.778a2.588,2.588,0,0,0,1.181-.212A1.547,1.547,0,0,0,317.894,250Z" transform="translate(-102.98 -241.47)" fill="#76777a"/>
        <path id="Path_4462" data-name="Path 4462" d="M333.719,241.787h.375l-.516,2.086h-.4a2.049,2.049,0,0,0-.092-1.1.643.643,0,0,0-.629-.318h-1.216v7.82a.632.632,0,0,0,.255.566,2.1,2.1,0,0,0,.926.205v.431c-1.343-.035-2.694-.035-4.03,0v-.431a2.1,2.1,0,0,0,.926-.205.621.621,0,0,0,.255-.573v-7.82h-.962a1.143,1.143,0,0,0-.806.269,4.378,4.378,0,0,0-.672,1.152h-.4l.488-2.086h.375a6.287,6.287,0,0,0,1.449.12h3.224A6,6,0,0,0,333.719,241.787Z" transform="translate(-107.287 -241.426)" fill="#76777a"/>
        <path id="Path_4463" data-name="Path 4463" d="M345.638,241.85l2.708,7.975a5.466,5.466,0,0,0,.269.665,1.211,1.211,0,0,0,1.124.566v.431c-1.294-.057-2.588-.057-3.889,0v-.431a1.3,1.3,0,0,0,.863-.262c.113-.127.106-.354-.014-.658l-.594-1.775h-2.984l-.566,1.838a.468.468,0,0,0,.2.594,2.738,2.738,0,0,0,1.1.269v.431a32.43,32.43,0,0,0-3.316,0v-.431a1.924,1.924,0,0,0,1.011-.3,1.606,1.606,0,0,0,.516-.785l2.581-8.11h1v-.014Zm-1.075,1.874-1.266,4.122h2.658Z" transform="translate(-111.329 -241.447)" fill="#76777a"/>
        <path id="Path_4464" data-name="Path 4464" d="M364.936,250.01l.495-1.018h.4a10.813,10.813,0,0,0-.438,2.524q-3.214-.053-6.314,0v-.431a1.667,1.667,0,0,0,.8-.205.655.655,0,0,0,.212-.573v-7.155a.655.655,0,0,0-.219-.559,1.735,1.735,0,0,0-.813-.205v-.438c1.237.057,2.489.057,3.74,0v.438a1.634,1.634,0,0,0-.806.212.627.627,0,0,0-.219.559v7.155a1,1,0,0,0,.1.551.492.492,0,0,0,.41.134h.778a2.589,2.589,0,0,0,1.181-.212A1.757,1.757,0,0,0,364.936,250.01Z" transform="translate(-116.755 -241.476)" fill="#76777a"/>
        <path id="Path_4465" data-name="Path 4465" d="M378.55,249.479a1.657,1.657,0,0,0-.481-1.216,5.967,5.967,0,0,0-1.485-1,6.508,6.508,0,0,1-1.838-1.315,2.545,2.545,0,0,1-.657-1.8,2.423,2.423,0,0,1,.742-1.852,2.811,2.811,0,0,1,1.98-.686,3.406,3.406,0,0,1,1.1.184,3.669,3.669,0,0,0,.629.177.319.319,0,0,0,.332-.226h.467l.106,2.121h-.4c-.495-1.124-1.174-1.69-2.036-1.69a1.434,1.434,0,0,0-1.075.4,1.419,1.419,0,0,0-.389,1.032,1.608,1.608,0,0,0,.4,1.1,4.84,4.84,0,0,0,1.287.9c.028.014.148.078.346.184l.4.2q.127.064.382.212a3.164,3.164,0,0,1,.4.247l.353.269a1.637,1.637,0,0,1,.339.318c.092.113.184.24.269.368a2.584,2.584,0,0,1,.431,1.464,2.446,2.446,0,0,1-.905,2.029,3.166,3.166,0,0,1-2.05.728,3.215,3.215,0,0,1-1.308-.3,3.476,3.476,0,0,0-.806-.3.466.466,0,0,0-.481.41h-.481l-.127-2.248h.46a3.152,3.152,0,0,0,1.025,1.379,2.418,2.418,0,0,0,1.471.488,1.6,1.6,0,0,0,1.174-.424A1.627,1.627,0,0,0,378.55,249.479Z" transform="translate(-121.129 -241.377)" fill="#76777a"/>
        <path id="Path_4466" data-name="Path 4466" d="M400.407,241.954a4.939,4.939,0,0,1,3.472,1.16,4.6,4.6,0,0,1,1.273,3.564,6.012,6.012,0,0,1-.4,2.3,3.772,3.772,0,0,1-1.018,1.506,4,4,0,0,1-2.574,1.032,6.848,6.848,0,0,1-1.11-.12,7.848,7.848,0,0,0-1.145-.127,10.84,10.84,0,0,0-1.951.247v-.431a2.439,2.439,0,0,0,.785-.29.586.586,0,0,0,.219-.516V243.22a.788.788,0,0,0-.212-.6,1.3,1.3,0,0,0-.742-.24v-.438a15.263,15.263,0,0,0,1.746.021C399.835,241.961,400.386,241.954,400.407,241.954ZM400.69,251c1.753,0,2.623-1.393,2.623-4.186a6.089,6.089,0,0,0-.728-3.217,2.44,2.44,0,0,0-2.227-1.174,7.188,7.188,0,0,0-.728.028v7.728C399.637,250.729,399.99,251,400.69,251Z" transform="translate(-127.855 -241.473)" fill="#76777a"/>
        <path id="Path_4467" data-name="Path 4467" d="M419.784,250l.495-1.018h.4a10.814,10.814,0,0,0-.438,2.524q-3.214-.053-6.314,0v-.431a1.668,1.668,0,0,0,.8-.205.655.655,0,0,0,.212-.573v-7.318a.48.48,0,0,0-.2-.445,2.087,2.087,0,0,0-.806-.17v-.438h6.052c.085,0,.148.014.17.042a.833.833,0,0,1,.071.226l.212,1.739h-.382l-.148-.339a2.049,2.049,0,0,0-.665-.926,1.965,1.965,0,0,0-1.11-.269h-1.209c-.205,0-.311.12-.311.368v3.542h1.69a.89.89,0,0,0,.707-.24,1.89,1.89,0,0,0,.346-.757h.354a16.892,16.892,0,0,0,0,2.538h-.354a1.708,1.708,0,0,0-.339-.771.917.917,0,0,0-.714-.24h-1.69v3.443a.994.994,0,0,0,.1.552.492.492,0,0,0,.41.134h.778a2.588,2.588,0,0,0,1.181-.212A1.516,1.516,0,0,0,419.784,250Z" transform="translate(-132.829 -241.47)" fill="#76777a"/>
        <path id="Path_4468" data-name="Path 4468" d="M433.4,241.85l2.708,7.975a5.458,5.458,0,0,0,.269.665,1.211,1.211,0,0,0,1.124.566v.431c-1.294-.057-2.588-.057-3.889,0v-.431a1.3,1.3,0,0,0,.863-.262c.113-.127.106-.354-.014-.658l-.594-1.775h-2.984l-.566,1.838a.468.468,0,0,0,.2.594,2.738,2.738,0,0,0,1.1.269v.431a32.431,32.431,0,0,0-3.316,0v-.431a1.924,1.924,0,0,0,1.011-.3,1.606,1.606,0,0,0,.516-.785l2.581-8.11h1v-.014Zm-1.082,1.874-1.266,4.122h2.658Z" transform="translate(-137.039 -241.447)" fill="#76777a"/>
        <path id="Path_4469" data-name="Path 4469" d="M452.7,250.01l.5-1.018h.4a10.808,10.808,0,0,0-.438,2.524q-3.214-.053-6.314,0v-.431a1.668,1.668,0,0,0,.8-.205.655.655,0,0,0,.212-.573v-7.155a.655.655,0,0,0-.219-.559,1.735,1.735,0,0,0-.813-.205v-.438c1.237.057,2.489.057,3.74,0v.438a1.634,1.634,0,0,0-.806.212.635.635,0,0,0-.219.559v7.155a.994.994,0,0,0,.1.551.492.492,0,0,0,.41.134h.778a2.589,2.589,0,0,0,1.181-.212A1.756,1.756,0,0,0,452.7,250.01Z" transform="translate(-142.464 -241.476)" fill="#76777a"/>
        <path id="Path_4470" data-name="Path 4470" d="M467.374,250l.495-1.018h.4a10.814,10.814,0,0,0-.438,2.524q-3.214-.053-6.314,0v-.431a1.668,1.668,0,0,0,.8-.205.655.655,0,0,0,.212-.573v-7.318a.48.48,0,0,0-.2-.445,2.087,2.087,0,0,0-.806-.17v-.438h6.052c.085,0,.148.014.17.042a.841.841,0,0,1,.071.226l.212,1.739h-.382l-.149-.339a2.049,2.049,0,0,0-.665-.926,1.965,1.965,0,0,0-1.11-.269h-1.209c-.2,0-.311.12-.311.368v3.542h1.69a.891.891,0,0,0,.707-.24,1.89,1.89,0,0,0,.346-.757h.354a16.908,16.908,0,0,0,0,2.538h-.354a1.709,1.709,0,0,0-.339-.771.918.918,0,0,0-.714-.24H464.2v3.443a1,1,0,0,0,.1.552.492.492,0,0,0,.41.134h.778a2.588,2.588,0,0,0,1.181-.212A1.546,1.546,0,0,0,467.374,250Z" transform="translate(-146.771 -241.47)" fill="#76777a"/>
        <path id="Path_4471" data-name="Path 4471" d="M481.055,247.365l1.195,1.824c.806,1.251,1.541,1.916,2.2,1.973l-.3.488a3.739,3.739,0,0,1-3.288-1.951l-1.294-1.98a.124.124,0,0,0-.042.007.293.293,0,0,1-.071.007l-.354.064v2.538a.677.677,0,0,0,.212.566,1.593,1.593,0,0,0,.778.205v.431c-1.216-.057-2.446-.057-3.684,0V251.1a1.668,1.668,0,0,0,.8-.205.655.655,0,0,0,.212-.573v-7.169a.653.653,0,0,0-.212-.537,1.324,1.324,0,0,0-.742-.212v-.438c.346.021.757.028,1.23.028.283,0,.728-.007,1.329-.014s.905-.014.919-.014c2.517,0,3.783.848,3.783,2.538C483.721,245.852,482.837,246.806,481.055,247.365Zm-.87-4.928h-1.1v4.822l.354-.042a3.311,3.311,0,0,0,2.029-.877,2.546,2.546,0,0,0,.6-1.761,2.379,2.379,0,0,0-.481-1.57A1.7,1.7,0,0,0,480.186,242.437Z" transform="translate(-151.133 -241.482)" fill="#76777a"/>
      </g>
      <g id="Group_12506" data-name="Group 12506" transform="translate(0 147.697)">
        <g id="Group_12498" data-name="Group 12498" transform="translate(0 0)">
          <path id="Path_4431" data-name="Path 4431" d="M17.794,201.66c0-4.221,0-5-.057-5.883-.057-.94-.276-1.386-1.195-1.584a5.609,5.609,0,0,0-1.089-.085c-.3,0-.474-.057-.474-.255s.191-.254.615-.254c1.471,0,3.224.085,4,.085,1.138,0,2.75-.085,4.023-.085,3.472,0,4.723,1.16,5.161,1.584a4.812,4.812,0,0,1,1.386,3.309,6.533,6.533,0,0,1-6.83,6.717,3.98,3.98,0,0,1-.58-.028c-.134-.028-.339-.057-.339-.255,0-.219.191-.3.778-.3,1.556,0,3.719-1.753,3.719-4.582a5.337,5.337,0,0,0-1.64-4.165,4.126,4.126,0,0,0-2.779-1.089,3.957,3.957,0,0,0-1.089.113c-.134.057-.219.219-.219.53v11.108c0,2.552,0,4.751.134,5.946.085.778.255,1.393,1.089,1.5a11.564,11.564,0,0,0,1.414.113c.3,0,.445.085.445.219,0,.191-.219.276-.53.276-1.838,0-3.578-.085-4.306-.085-.636,0-2.39.085-3.5.085-.361,0-.559-.085-.559-.276,0-.134.106-.219.445-.219a4.581,4.581,0,0,0,1-.113c.559-.106.693-.721.806-1.527.134-1.16.134-3.358.134-5.918V201.66Z" transform="translate(-14.98 -193.211)" fill="#76777a"/>
          <path id="Path_4432" data-name="Path 4432" d="M41.764,201.66c0-4.221,0-5-.057-5.883-.057-.94-.276-1.386-1.195-1.584a5.609,5.609,0,0,0-1.089-.085c-.3,0-.474-.057-.474-.255s.191-.254.615-.254c1.471,0,3.224.085,3.8.085.94,0,3.054-.085,3.917-.085a8.9,8.9,0,0,1,5.112,1.195,4.816,4.816,0,0,1,1.888,3.8c0,2.058-.863,3.938-3.663,6.222,2.475,3.1,4.384,5.586,6.031,7.3a5.591,5.591,0,0,0,3.1,1.888,4.32,4.32,0,0,0,.778.085c.219,0,.339.085.339.219,0,.219-.191.276-.53.276H57.708a5.564,5.564,0,0,1-2.97-.53c-1.195-.636-2.248-1.944-3.8-4.087-1.11-1.527-2.39-3.415-2.75-3.832a.558.558,0,0,0-.495-.191l-2.411-.042a.192.192,0,0,0-.219.219v.389c0,2.588,0,4.773.134,5.946.085.806.255,1.414,1.089,1.527a12.361,12.361,0,0,0,1.365.113c.219,0,.339.085.339.219,0,.191-.191.276-.559.276-1.612,0-3.663-.085-4.087-.085-.53,0-2.277.085-3.387.085-.361,0-.559-.085-.559-.276,0-.134.106-.219.445-.219a4.581,4.581,0,0,0,1-.113c.559-.106.693-.721.806-1.527.134-1.16.134-3.359.134-5.918V201.66Zm3.274,2.2c0,.3.057.41.255.495a7.427,7.427,0,0,0,2.114.276,2.786,2.786,0,0,0,1.973-.474c.834-.615,1.64-1.888,1.64-4.165,0-3.938-2.609-5.084-4.249-5.084a6.466,6.466,0,0,0-1.471.106c-.191.057-.255.17-.255.389v8.449h-.007Z" transform="translate(-22.002 -193.211)" fill="#76777a"/>
          <path id="Path_4433" data-name="Path 4433" d="M74.506,201.669c0-4.221,0-5-.057-5.883-.057-.94-.339-1.414-.94-1.555a3.872,3.872,0,0,0-1-.106c-.276,0-.445-.057-.445-.276,0-.17.219-.219.665-.219,1.054,0,2.807.085,3.613.085.693,0,2.333-.085,3.387-.085.361,0,.58.057.58.219,0,.219-.17.276-.445.276a4.7,4.7,0,0,0-.834.085c-.749.134-.969.615-1.025,1.584-.057.891-.057,1.669-.057,5.883v4.893c0,2.694,0,4.893.113,6.081.085.749.276,1.244,1.11,1.365a11.566,11.566,0,0,0,1.414.113c.3,0,.445.085.445.219,0,.191-.219.276-.53.276-1.838,0-3.578-.085-4.334-.085-.636,0-2.39.085-3.5.085-.361,0-.559-.085-.559-.276,0-.134.113-.219.445-.219a4.582,4.582,0,0,0,1-.113c.559-.106.721-.58.806-1.386.134-1.16.134-3.358.134-6.052v-4.907Z" transform="translate(-31.702 -193.22)" fill="#76777a"/>
          <path id="Path_4434" data-name="Path 4434" d="M88.41,203.959c0-4.751,3.139-10.889,11.468-10.889,6.915,0,11.221,4.023,11.221,10.387s-4.447,11.383-11.5,11.383C91.634,214.84,88.41,208.865,88.41,203.959Zm18.8.523c0-6.222-3.578-10.075-8.131-10.075-3.189,0-6.83,1.775-6.83,8.69,0,5.777,3.189,10.358,8.527,10.358C102.714,213.454,107.21,212.514,107.21,204.482Z" transform="translate(-36.491 -193.056)" fill="#76777a"/>
          <path id="Path_4435" data-name="Path 4435" d="M126.564,201.66c0-4.221,0-5-.057-5.883-.057-.94-.276-1.386-1.195-1.584a5.609,5.609,0,0,0-1.089-.085c-.3,0-.474-.057-.474-.255s.191-.254.615-.254c1.471,0,3.224.085,3.8.085.94,0,3.054-.085,3.917-.085a8.9,8.9,0,0,1,5.112,1.195,4.816,4.816,0,0,1,1.888,3.8c0,2.058-.863,3.938-3.663,6.222,2.475,3.1,4.384,5.586,6.031,7.3a5.591,5.591,0,0,0,3.1,1.888,4.32,4.32,0,0,0,.778.085c.219,0,.339.085.339.219,0,.219-.191.276-.53.276H142.5a5.564,5.564,0,0,1-2.97-.53c-1.195-.636-2.248-1.944-3.8-4.087-1.11-1.527-2.39-3.415-2.75-3.832a.558.558,0,0,0-.495-.191l-2.418-.057a.192.192,0,0,0-.219.219v.389c0,2.588,0,4.773.134,5.946.085.806.255,1.414,1.089,1.527a12.353,12.353,0,0,0,1.365.113c.219,0,.339.085.339.219,0,.191-.191.276-.559.276-1.612,0-3.663-.085-4.087-.085-.53,0-2.277.085-3.387.085-.361,0-.559-.085-.559-.276,0-.134.113-.219.445-.219a4.579,4.579,0,0,0,1-.113c.559-.106.693-.721.806-1.527.134-1.16.134-3.358.134-5.918l-.007-4.865Zm3.274,2.2c0,.3.057.41.255.495a7.427,7.427,0,0,0,2.114.276,2.786,2.786,0,0,0,1.973-.474c.834-.615,1.64-1.888,1.64-4.165,0-3.938-2.609-5.084-4.249-5.084a6.466,6.466,0,0,0-1.471.106c-.191.057-.255.17-.255.389v8.449h-.007Z" transform="translate(-46.844 -193.211)" fill="#76777a"/>
          <path id="Path_4436" data-name="Path 4436" d="M158.536,201.669c0-4.221,0-5-.057-5.883-.057-.94-.339-1.414-.94-1.555a3.872,3.872,0,0,0-1-.106c-.276,0-.445-.057-.445-.276,0-.17.219-.219.665-.219,1.054,0,2.807.085,3.613.085.693,0,2.333-.085,3.387-.085.361,0,.58.057.58.219,0,.219-.17.276-.445.276a4.7,4.7,0,0,0-.834.085c-.749.134-.969.615-1.025,1.584-.057.891-.057,1.669-.057,5.883v4.893c0,2.694,0,4.893.113,6.081.085.749.276,1.244,1.11,1.365a11.567,11.567,0,0,0,1.414.113c.3,0,.445.085.445.219,0,.191-.219.276-.53.276-1.838,0-3.578-.085-4.334-.085-.636,0-2.39.085-3.5.085-.361,0-.559-.085-.559-.276,0-.134.113-.219.445-.219a4.582,4.582,0,0,0,1-.113c.559-.106.721-.58.806-1.386.134-1.16.134-3.358.134-6.052v-4.907Z" transform="translate(-56.319 -193.22)" fill="#76777a"/>
          <path id="Path_4437" data-name="Path 4437" d="M179.072,195.017l-4.136.113c-1.6.057-2.277.191-2.694.806a3.53,3.53,0,0,0-.474.969c-.057.219-.134.339-.3.339-.191,0-.255-.134-.255-.445,0-.445.53-2.97.58-3.189.085-.361.17-.53.339-.53a6.733,6.733,0,0,0,1.195.339c.806.085,1.86.134,2.779.134H187.1a14.418,14.418,0,0,0,1.916-.134,5.65,5.65,0,0,1,.749-.134c.191,0,.219.17.219.58,0,.58-.085,2.5-.085,3.224-.028.276-.085.445-.255.445-.219,0-.276-.134-.3-.559l-.028-.3c-.057-.721-.806-1.5-3.274-1.555l-3.5-.085v11.383c0,2.552,0,4.751.134,5.946.085.778.255,1.393,1.089,1.5a11.551,11.551,0,0,0,1.414.113c.3,0,.445.085.445.219,0,.191-.219.276-.53.276-1.838,0-3.578-.085-4.362-.085-.636,0-2.39.085-3.5.085-.361,0-.559-.085-.559-.276,0-.134.113-.219.445-.219a4.577,4.577,0,0,0,1-.113c.559-.106.721-.721.806-1.527.134-1.16.134-3.358.134-5.918V195.024h.014Z" transform="translate(-60.748 -193.059)" fill="#76777a"/>
          <path id="Path_4438" data-name="Path 4438" d="M207.225,207.413a5.868,5.868,0,0,0-.636-2.913c-.191-.445-3.917-6.547-4.893-8a6.852,6.852,0,0,0-1.916-2.029,2.884,2.884,0,0,0-1.16-.361c-.219,0-.41-.057-.41-.255,0-.17.191-.255.53-.255.495,0,2.588.085,3.5.085.58,0,1.718-.085,2.97-.085.276,0,.41.085.41.255s-.191.191-.615.3a.5.5,0,0,0-.389.495,2.379,2.379,0,0,0,.339.94c.389.834,4.278,7.53,4.723,8.3.276-.665,3.783-6.781,4.165-7.636a3.692,3.692,0,0,0,.389-1.449.666.666,0,0,0-.58-.693c-.255-.057-.495-.106-.495-.276,0-.191.134-.255.474-.255.919,0,1.8.085,2.609.085.615,0,2.439-.085,2.97-.085.3,0,.495.057.495.219,0,.191-.219.276-.53.276a2.868,2.868,0,0,0-1.223.339,4.133,4.133,0,0,0-1.5,1.365,86.9,86.9,0,0,0-5.3,8.831,6.75,6.75,0,0,0-.41,2.779v2.277c0,.445,0,1.612.085,2.779.057.806.3,1.414,1.138,1.527a11.562,11.562,0,0,0,1.386.113c.3,0,.445.085.445.219,0,.191-.219.276-.58.276-1.753,0-3.5-.085-4.249-.085-.693,0-2.439.085-3.472.085-.389,0-.615-.057-.615-.276,0-.134.134-.219.445-.219a4.336,4.336,0,0,0,.969-.113c.559-.106.806-.721.863-1.527.085-1.16.085-2.333.085-2.779v-2.27h-.014Z" transform="translate(-68.658 -193.208)" fill="#76777a"/>
          <path id="Path_4439" data-name="Path 4439" d="M262.229,212.579c0,.749-.028.806-.361,1a15.79,15.79,0,0,1-6.7,1.244c-6.8,0-12.833-3.224-12.833-10.889a10.4,10.4,0,0,1,4.829-9.086,13.487,13.487,0,0,1,7.466-1.8,34.019,34.019,0,0,1,4.914.445,19.17,19.17,0,0,0,2.2.3c.339.028.389.134.389.339a38.219,38.219,0,0,0-.191,4.553c0,.445-.085.58-.3.58-.191,0-.255-.134-.276-.361a3.91,3.91,0,0,0-.94-2.3,8.874,8.874,0,0,0-6.194-2.164,8,8,0,0,0-5.5,1.718c-1.556,1.308-2.552,3.387-2.552,6.8,0,5.967,3.8,10.443,9.665,10.443a6.142,6.142,0,0,0,2.354-.3,1,1,0,0,0,.53-1.025v-2.609c0-1.386,0-2.439-.028-3.274-.028-.94-.276-1.386-1.195-1.584a5.605,5.605,0,0,0-1.089-.085c-.255,0-.41-.057-.41-.219,0-.219.191-.276.58-.276,1.449,0,3.189.085,4.023.085.863,0,2.333-.085,3.252-.085.361,0,.559.057.559.276,0,.17-.17.219-.361.219a4.382,4.382,0,0,0-.749.085c-.749.134-1.025.615-1.053,1.584-.028.834-.028,1.944-.028,3.337v3.047Z" transform="translate(-81.586 -193.05)" fill="#76777a"/>
          <path id="Path_4440" data-name="Path 4440" d="M277.75,203.959c0-4.751,3.139-10.889,11.468-10.889,6.915,0,11.221,4.023,11.221,10.387s-4.447,11.383-11.49,11.383C280.967,214.84,277.75,208.865,277.75,203.959Zm18.8.523c0-6.222-3.578-10.075-8.131-10.075-3.189,0-6.83,1.775-6.83,8.69,0,5.777,3.189,10.358,8.527,10.358C292.047,213.454,296.55,212.514,296.55,204.482Z" transform="translate(-91.959 -193.056)" fill="#76777a"/>
          <path id="Path_4441" data-name="Path 4441" d="M321.016,206.553c0,3.556,0,5.473.58,5.967.474.41,1.195.615,3.358.615,1.471,0,2.552-.028,3.252-.778a3.431,3.431,0,0,0,.721-1.669c.028-.254.085-.41.3-.41.191,0,.219.134.219.474a22.038,22.038,0,0,1-.41,3.189c-.17.615-.3.749-1.753.749-1.994,0-3.443-.057-4.688-.085-1.244-.057-2.248-.085-3.387-.085-.3,0-.919,0-1.584.028-.636,0-1.365.057-1.916.057-.361,0-.559-.085-.559-.276,0-.134.106-.219.445-.219a4.58,4.58,0,0,0,1-.113c.559-.106.693-.721.806-1.527.134-1.16.134-3.359.134-5.918V201.66c0-4.221,0-5-.057-5.883-.057-.94-.276-1.386-1.195-1.584a4.063,4.063,0,0,0-.919-.085c-.3,0-.474-.057-.474-.255s.191-.254.615-.254c1.308,0,3.054.085,3.8.085.665,0,2.694-.085,3.783-.085.389,0,.58.057.58.254s-.17.255-.495.255a7.423,7.423,0,0,0-1.089.085c-.749.134-.969.615-1.025,1.584-.057.891-.057,1.669-.057,5.883v4.893Z" transform="translate(-102.842 -193.211)" fill="#76777a"/>
          <path id="Path_4442" data-name="Path 4442" d="M341.814,201.66c0-4.221,0-5-.057-5.883-.057-.94-.276-1.386-1.195-1.584a5.609,5.609,0,0,0-1.089-.085c-.3,0-.474-.057-.474-.255s.191-.254.615-.254c1.471,0,3.224.085,4,.085.863,0,2.609-.085,4.278-.085,3.472,0,8.11,0,11.136,3.168a9.943,9.943,0,0,1,2.694,7.056,11,11,0,0,1-3.033,7.749c-1.28,1.308-4.164,3.274-9.3,3.274-1,0-2.135-.085-3.189-.17s-2.029-.17-2.722-.17c-.3,0-.919,0-1.584.028-.636,0-1.365.057-1.916.057-.361,0-.559-.085-.559-.276,0-.134.113-.219.445-.219a4.579,4.579,0,0,0,1-.113c.559-.106.693-.721.806-1.527.134-1.16.134-3.358.134-5.918V201.66Zm3.479,3.062c0,2.948.028,5.084.057,5.607a6.2,6.2,0,0,0,.3,2.114c.361.53,1.449,1.11,3.634,1.11,2.828,0,4.723-.559,6.392-1.994,1.775-1.527,2.333-4.058,2.333-6.915a9.434,9.434,0,0,0-2.666-6.943,11.029,11.029,0,0,0-7.891-2.779,7.644,7.644,0,0,0-1.8.191.509.509,0,0,0-.339.559c-.028.94-.028,3.358-.028,5.557v3.5h.007Z" transform="translate(-109.902 -193.211)" fill="#76777a"/>
        </g>
        <g id="Group_12500" data-name="Group 12500" transform="translate(261.236 0.233)">
          <path id="Path_4472" data-name="Path 4472" d="M389.026,201.9c.735-4.172.87-4.942.969-5.826.106-.933-.028-1.372-.9-1.57a5.208,5.208,0,0,0-1.054-.085c-.3,0-.46-.057-.424-.247s.24-.247.651-.247c1.456,0,3.167.085,3.938.085,1.124,0,2.729-.085,3.995-.085,3.436,0,4.469,1.153,4.829,1.563a4.083,4.083,0,0,1,.8,3.267,7.994,7.994,0,0,1-7.926,6.639,3.882,3.882,0,0,1-.573-.028c-.127-.028-.318-.057-.283-.247.035-.219.247-.3.82-.3,1.541,0,3.988-1.732,4.476-4.532a4.613,4.613,0,0,0-.9-4.115,3.463,3.463,0,0,0-2.552-1.075,4.324,4.324,0,0,0-1.089.106c-.148.057-.262.219-.311.523L391.55,206.7c-.445,2.524-.827,4.695-.9,5.876-.057.771.007,1.372.813,1.485a10.794,10.794,0,0,0,1.379.106c.3,0,.424.085.4.219-.028.191-.269.276-.566.276-1.81,0-3.528-.085-4.242-.085-.636,0-2.383.085-3.472.085-.361,0-.537-.085-.5-.276.021-.134.148-.219.481-.219a5.278,5.278,0,0,0,1.011-.106c.566-.106.813-.714,1.061-1.506.346-1.152.721-3.323,1.174-5.847Z" transform="translate(-384.454 -193.538)" fill="#76777a"/>
          <path id="Path_4473" data-name="Path 4473" d="M417.813,206.725c-.622,3.514-.955,5.409-.467,5.9.4.41,1.075.6,3.217.6,1.456,0,2.531-.028,3.351-.771a4.334,4.334,0,0,0,1-1.647c.071-.247.156-.41.375-.41.191,0,.2.134.134.467a26.205,26.205,0,0,1-.969,3.161c-.269.6-.438.742-1.86.742-1.973,0-3.394-.057-4.631-.085-1.223-.057-2.213-.085-3.337-.085-.3,0-.9,0-1.57.028-.636,0-1.358.057-1.9.057-.361,0-.537-.085-.5-.276.021-.134.148-.219.481-.219a5.279,5.279,0,0,0,1.011-.106c.566-.106.813-.714,1.061-1.506.346-1.153.721-3.323,1.174-5.847l.849-4.836c.735-4.172.87-4.942.969-5.826.106-.933-.028-1.372-.9-1.57a3.778,3.778,0,0,0-.9-.085c-.3,0-.46-.057-.424-.247s.24-.247.651-.247c1.294,0,3,.085,3.747.085.657,0,2.68-.085,3.747-.085.382,0,.566.057.537.247s-.205.247-.537.247a7.567,7.567,0,0,0-1.089.085c-.764.134-1.075.6-1.294,1.57-.205.877-.346,1.647-1.082,5.826Z" transform="translate(-392.129 -193.538)" fill="#76777a"/>
          <path id="Path_4474" data-name="Path 4474" d="M438.372,201.893c.735-4.172.87-4.942.969-5.826.106-.933-.028-1.372-.905-1.57a5.211,5.211,0,0,0-1.053-.085c-.3,0-.46-.057-.424-.247s.24-.247.65-.247c1.456,0,3.168.085,3.995.085.658,0,2.4-.085,3.387-.085.41,0,.594.057.559.247s-.205.247-.481.247a4.3,4.3,0,0,0-.813.085c-.763.134-1.075.6-1.294,1.57-.205.877-.346,1.647-1.082,5.826l-.679,3.839c-.707,3.981-.2,5.656.948,6.759a4.381,4.381,0,0,0,3.238,1.124,6.274,6.274,0,0,0,4.044-1.485c1.775-1.506,2.3-3.981,2.793-6.809l.6-3.436c.735-4.172.87-4.942.969-5.826.106-.933-.028-1.372-.9-1.57a4.887,4.887,0,0,0-.969-.085c-.3,0-.46-.057-.424-.247s.24-.247.622-.247c1.4,0,3.111.085,3.146.085.332,0,2.072-.085,3.146-.085.382,0,.566.057.537.247s-.205.247-.537.247a4.3,4.3,0,0,0-.813.085c-.764.134-1.075.6-1.294,1.57-.205.877-.346,1.647-1.082,5.826l-.523,2.941c-.537,3.047-1.407,6.293-4.066,8.265a9.488,9.488,0,0,1-6.059,1.973c-1.457,0-4.08-.085-5.762-1.895-1.181-1.266-1.867-3.295-1.16-7.275Z" transform="translate(-399.834 -193.535)" fill="#76777a"/>
          <path id="Path_4475" data-name="Path 4475" d="M469.072,214.2c-.4-.191-.467-.332-.361-.933.269-1.506.665-3.161.771-3.6.1-.41.24-.714.453-.714.247,0,.226.247.191.467a5.448,5.448,0,0,0,0,1.4c.248,2.036,1.739,2.772,3.436,2.772a4.116,4.116,0,0,0,4.228-3.132c.24-1.343.042-2.609-1.923-4.391l-1.089-.99c-2.6-2.362-3.309-4.285-2.913-6.512.537-3.019,3.443-5.19,7.261-5.19a12.433,12.433,0,0,1,3.571.467c.24.057.361.134.332.332-.064.361-.311,1.152-.686,3.295-.106.6-.226.827-.445.827-.191,0-.248-.17-.191-.495a2.9,2.9,0,0,0-.4-1.81,2.852,2.852,0,0,0-2.757-1.343,3.554,3.554,0,0,0-3.761,2.828c-.219,1.266.24,2.227,2.213,3.959l.665.573c2.885,2.5,3.726,4.391,3.266,7a6.873,6.873,0,0,1-3.429,4.78,8.962,8.962,0,0,1-4.568,1.124A8.755,8.755,0,0,1,469.072,214.2Z" transform="translate(-409.124 -193.38)" fill="#76777a"/>
        </g>
      </g>
      <g id="Group_12505" data-name="Group 12505" transform="translate(97.019 0)">
        <g id="Group_12504" data-name="Group 12504" transform="translate(0)">
          <g id="Group_12503" data-name="Group 12503" transform="translate(0.008)">
            <path id="Path_4476" data-name="Path 4476" d="M297.982,98.3c-.312,2-.721,3.99-1.211,5.976a.7.7,0,0,1-.071.232c-.312,1.2-.659,2.4-1.042,3.6q-.281.868-.588,1.71c0,.009-.009.036-.009.053-.116.347-.249.686-.383,1.033a.539.539,0,0,1-.071.187c-.036.107-.1.232-.134.347s-.1.232-.134.338c-.134.338-.267.659-.4.971-.214.508-.428,1.015-.659,1.523-.445-.864-.891-1.737-1.318-2.583-.321-.6-.65-1.2-.971-1.79-.383-.7-.793-1.407-1.185-2.084s-.8-1.363-1.211-2.031c-.8-1.336-1.639-2.619-2.494-3.865s-1.728-2.449-2.6-3.607l14.482-.009Z" transform="translate(-174.458 -20.938)" fill="#fff"/>
            <path id="Path_4477" data-name="Path 4477" d="M213.048,95.028c-3.189,18.071-39.3,11.561-51.978-5.558.027,1.176.107,2.342.2,3.5.018.249.036.508.071.757.107,1.131.24,2.244.4,3.358.009.053.018.116.027.169h0a61.875,61.875,0,0,0,2.77,11.133C181.991,123.947,216.6,115.317,213.048,95.028Z" transform="translate(-161.07 -19.973)" fill="#fff"/>
            <path id="Path_4478" data-name="Path 4478" d="M210.166,83.07c25.909,28.626-18.009,50.758-39.536,35.484.6,1.015,1.238,2,1.879,2.975.151.232.312.463.463.695.659.953,1.327,1.9,2.031,2.814a2.215,2.215,0,0,0,.223.267c.659.837,1.336,1.666,2.04,2.467.169.2.356.4.534.606.757.855,1.541,1.692,2.351,2.5.134.134.276.267.419.4.721.713,1.452,1.407,2.209,2.084.2.169.383.347.579.517.116.107.232.214.356.321h.027a61.879,61.879,0,0,0,39.981,15.016C232.94,126.623,232.628,96.305,210.166,83.07Z" transform="translate(-162.115 -19.273)" fill="#fff"/>
            <path id="Path_4479" data-name="Path 4479" d="M254.84,77.673q-1.082-1.042-2.218-2c-.757-.659-1.532-1.274-2.325-1.87a55.546,55.546,0,0,1,5.29,2.779c.312.187.6.374.908.579q.6.374,1.2.775c.8.517,1.577,1.078,2.351,1.666.383.285.775.588,1.149.873.383.312.775.615,1.149.926,1.14.944,2.227,1.942,3.322,2.975.552.534,1.1,1.069,1.63,1.621s1.06,1.1,1.577,1.683l3.554-17.243v-.009l1.309-6.279.169-.837H244.545l1.79-8.6.837-4.035V50.66l.107-.517.187-.873.321-1.559-1.55-.24c-1.042-.16-2.084-.285-3.126-.383-1.06-.107-2.1-.2-3.144-.267a69.027,69.027,0,0,0-10.617.107c-.65.071-1.282.134-1.906.214a45.633,45.633,0,0,0-7.205,1.461c-1.06.312-2.057.659-3.037,1.042s-1.9.819-2.8,1.283a22.2,22.2,0,0,0-3.287,2.1c-.49.383-.971.793-1.425,1.211a16.209,16.209,0,0,0-3.741,5.237c-12.184,1.274-16.7,7.481-18.223,17.679.2-.24.4-.472.615-.695s.419-.445.623-.659a8.233,8.233,0,0,1,.668-.6,13.939,13.939,0,0,1,2.886-1.951,7.747,7.747,0,0,1,.775-.374,11.75,11.75,0,0,1,2.138-.757,4.883,4.883,0,0,1,.517-.134,13.079,13.079,0,0,1,2.164-.383c.232-.027.445-.036.659-.053.445-.036.9-.053,1.354-.053.383,0,.793.009,1.176.036a8.577,8.577,0,0,1,.962.08,1.138,1.138,0,0,1,.169.009c.338.036.668.08,1.006.134.374.071.748.134,1.14.214a12.566,12.566,0,0,1,1.363.321c.312.08.615.169.926.267q.561.16,1.149.374c.383.134.757.276,1.149.428h.009c.374.16.757.321,1.149.49a.148.148,0,0,1,.1.036c.356.16.7.338,1.069.508.383.187.757.383,1.149.588A37.268,37.268,0,0,1,217.2,77.9q.561.414,1.122.855c.267.2.517.4.775.615.561.472,1.122.962,1.683,1.461.454.419.908.855,1.354,1.291.24.24.472.472.695.7.686.7,1.363,1.443,2.013,2.218.16.2.321.4.49.6.338.4.659.8.971,1.211.214.267.419.534.615.819.2.267.4.552.6.828s.4.561.588.837c.2.276.383.579.579.864.285.445.588.9.864,1.363.338.552.668,1.1.989,1.683a.054.054,0,0,1,.009.036.813.813,0,0,1,.071.116c.107.169.2.374.312.552q.574,1.042,1.1,2.138c.374.775.748,1.559,1.1,2.378.347.8.668,1.63.989,2.467.143.374.276.757.419,1.149.116.338.232.686.347,1.033.143.445.285.873.427,1.336.116.383.232.793.347,1.2s.232.819.321,1.211c.1.347.169.686.249,1.033.187.837.374,1.683.534,2.556.08.427.16.855.232,1.291s.134.873.2,1.318c.053.427.116.855.169,1.291s.1.873.143,1.318c.036.517.1,1.042.134,1.576.027.4.053.8.071,1.211.027.508.053,1.015.071,1.532.009.579.027,1.149.027,1.728s-.009,1.176-.027,1.772c0,.1,0,.2-.009.312-.009.347-.027.695-.036,1.051q-.013.468-.054.935c-.036.686-.1,1.363-.16,2.04-.053.615-.116,1.238-.2,1.861-.036.285-.071.579-.107.855s-.08.579-.116.864c-.107.721-.232,1.452-.356,2.191-.107.588-.232,1.185-.347,1.79s-.249,1.211-.383,1.835c-.579,2.458-1.283,4.952-2.146,7.508v.009c1.033-.134,2.04-.276,3.046-.472a.053.053,0,0,1,.036-.009c.321-.053.65-.107.944-.187.2-.027.4-.071.588-.107.472-.1.935-.187,1.407-.285.989-.232,1.968-.472,2.939-.73a.237.237,0,0,0,.107-.027c.374-.116.757-.232,1.14-.347.356-.107.713-.214,1.069-.338.187-.053.383-.107.579-.169a1.447,1.447,0,0,0,.249-.1c.169-.053.338-.107.49-.16.16-.071.321-.116.49-.187.383-.134.757-.267,1.14-.419.561-.2,1.122-.428,1.683-.659a.282.282,0,0,0,.134-.053l1.381-.6c.321-.134.623-.267.935-.419.1-.036.2-.1.285-.134a5.812,5.812,0,0,0,.588-.276c.285-.134.588-.276.873-.445.4-.2.8-.4,1.185-.615.071-.027.134-.071.214-.107a1.867,1.867,0,0,0,.267-.134v-.009c.962-.517,1.906-1.069,2.841-1.63a.048.048,0,0,0,.036-.027q1.029-.628,2.031-1.309c.071-.036.116-.08.187-.116.338-.232.686-.454,1.006-.695.24-.169.481-.347.721-.517a2.835,2.835,0,0,0,.338-.232l.427-.321c.481-.347.944-.7,1.416-1.078.65-.508,1.283-1.042,1.906-1.576.837-.721,1.657-1.452,2.458-2.209s1.576-1.532,2.325-2.342a61.191,61.191,0,0,0,4.284-5.041C271.834,101.792,264.967,87.381,254.84,77.673ZM225.921,58.23c-.481.107-.962.232-1.443.356h-.009a7.209,7.209,0,0,1-.481.579c-2.111,2.28-5.469,3.153-9.387.321,5.611-.107,8.755-2.191,16.584-2.084-.445.036-.873.08-1.309.134-.214.027-.428.053-.623.08-.49.071-.989.142-1.461.232-.49.1-.989.187-1.461.312A2.28,2.28,0,0,0,225.921,58.23Z" transform="translate(-163.985 -15.292)" fill="#fff"/>
            <path id="Path_4480" data-name="Path 4480" d="M270.056,39.112H259.734a56.145,56.145,0,0,0-9.94-7.1c-.721-.4-1.443-.775-2.182-1.149-.6-.285-1.211-.588-1.835-.864-.134-.071-.267-.116-.4-.187-.071-.027-.134-.053-.2-.08-.561-.249-1.14-.49-1.71-.721-.071-.027-.134-.053-.214-.08a1.264,1.264,0,0,0-.16-.071c-.73-.285-1.487-.579-2.227-.819a7.553,7.553,0,0,0-.9-.285.171.171,0,0,0-.107-.036c-.49-.16-.989-.312-1.487-.454a1.737,1.737,0,0,0-.2-.053c-.187-.053-.383-.107-.579-.16q-.361-.107-.695-.187a4.56,4.56,0,0,0-.552-.134.009.009,0,0,0-.009-.009c-.552-.134-1.078-.249-1.63-.374-.071-.009-.134-.027-.2-.036-.561-.116-1.14-.232-1.71-.338-.08-.009-.142-.027-.214-.036-.481-.08-.962-.16-1.443-.232-.214-.027-.445-.071-.659-.1-.508-.071-1.006-.116-1.514-.187h-.1c-.588-.071-1.176-.116-1.772-.16-.428-.027-.864-.053-1.291-.071-.374-.027-.748-.036-1.14-.036-.49-.027-.989-.027-1.487-.027-.695,0-1.389.009-2.084.036H221a.673.673,0,0,0-.134.009c-.276,0-.579.009-.855.036a2.585,2.585,0,0,0-.383.027c-.214,0-.427.027-.65.036l-.971.08c-.374.027-.748.071-1.1.116-.356.027-.7.08-1.06.116a1.351,1.351,0,0,0-.285.053,4.258,4.258,0,0,0-.65.1c-.24.027-.472.071-.695.107-.428.071-.855.134-1.283.214-.73.143-1.461.285-2.191.472a4.715,4.715,0,0,0-.481.116,4.684,4.684,0,0,1-.534.134c-.321.071-.65.16-.962.249-.356.1-.721.187-1.069.285-.428.116-.837.24-1.256.383-.445.134-.873.276-1.309.445-.374.116-.73.249-1.1.383-.445.16-.873.338-1.309.508-.73.285-1.452.6-2.182.926-.071.036-.134.071-.214.107-.4.187-.8.374-1.185.561s-.775.374-1.167.588c-.73.374-1.452.757-2.164,1.176-1.149.668-2.271,1.381-3.367,2.111,0,.009-.009.009-.027.009v.009a2.845,2.845,0,0,1-.285.2c-.615.419-1.2.837-1.8,1.291-1.033.757-2.031,1.576-3,2.423-.321.267-.65.552-.962.837-.588.534-1.167,1.078-1.728,1.639a.72.72,0,0,0-.143.143c-.312.285-.6.6-.9.9-.9.935-1.764,1.906-2.574,2.9-.2.24-.4.472-.579.7-.134.143-.249.312-.374.472a9.035,9.035,0,0,0-.623.819c-.2.249-.383.508-.579.757-.134.169-.267.356-.383.534-.16.214-.312.445-.454.659a1.677,1.677,0,0,0-.107.16c-.24.347-.481.695-.695,1.042a3.514,3.514,0,0,0-.276.428c-.116.169-.24.356-.347.552-.036.053-.071.107-.1.143-.214.347-.428.7-.65,1.069-.1.16-.2.338-.285.49-.053.107-.107.2-.16.312-.071.107-.116.2-.187.312-.285.517-.561,1.042-.828,1.559-.08.143-.16.285-.232.445a4.316,4.316,0,0,0-.276.579,3.559,3.559,0,0,0-.24.49c-.071.116-.116.249-.187.383-.134.267-.249.552-.356.819a1.955,1.955,0,0,0-.169.374,2.447,2.447,0,0,0-.134.321,2.093,2.093,0,0,0-.16.356c-.116.267-.232.552-.338.819-.1.2-.169.4-.24.6-.143.356-.276.7-.4,1.069-.053.16-.116.312-.169.472-.071.169-.116.347-.169.517-.1.24-.169.472-.24.695-.1.285-.187.579-.267.855-.134.419-.249.828-.374,1.247-.134.454-.249.908-.374,1.363-.027.1-.053.187-.071.267-.1.347-.169.695-.24,1.042-.1.383-.169.757-.249,1.149-.143.686-.276,1.354-.374,2.031a8.463,8.463,0,0,0-.169,1.042c-.071.383-.116.775-.16,1.167a1.115,1.115,0,0,1-.027.169c-.107.855-.2,1.728-.249,2.583a.366.366,0,0,1-.009.1,54.808,54.808,0,0,0-.107,6.3c-.7-.508-1.389-1.033-2.075-1.576-.16-.143-.321-.276-.481-.428-.383-.321-.775-.659-1.149-1.006-.321-.285-.65-.6-.944-.908-.312-.285-.6-.6-.9-.926-.579-.615-1.14-1.256-1.657-1.924v-.009c.071-.962.16-1.906.276-2.859.009-.116.027-.24.036-.356.169-1.416.4-2.814.668-4.195,0-.009.009-.027.009-.036.276-1.452.615-2.9,1.015-4.329q.6-2.244,1.38-4.409c.134-.383.276-.775.428-1.167a61.717,61.717,0,0,1,8.283-15.132c.267-.374.552-.748.837-1.1a62.647,62.647,0,0,1,12.309-11.961c.695-.508,1.407-1.006,2.12-1.5.828-.552,1.683-1.1,2.538-1.6.775-.472,1.559-.926,2.36-1.363q2.565-1.4,5.29-2.565,1.977-.868,4.052-1.559c.454-.16.908-.312,1.381-.454,1.354-.445,2.725-.837,4.124-1.176.49-.116,1.006-.24,1.514-.347,1.247-.276,2.512-.517,3.794-.7,1.692-.267,3.429-.454,5.166-.588.926-.053,1.861-.107,2.8-.134.534,0,1.06-.009,1.594-.009a62.411,62.411,0,0,1,6.475.338c.428.053.855.1,1.283.143s.837.107,1.274.169c1.2.169,2.378.374,3.554.623.143.036.312.071.463.1.338.08.659.143.971.232.828.187,1.639.4,2.458.615.4.116.819.232,1.211.347a55.874,55.874,0,0,1,6.956,2.529c.419.2.828.374,1.247.561.383.169.757.347,1.14.534s.748.374,1.122.561c.356.187.73.374,1.1.579.73.374,1.461.793,2.182,1.211.356.214.7.428,1.069.65,1.06.659,2.1,1.336,3.117,2.04.338.24.668.481,1.006.721s.668.49,1.006.748c.472.347.935.7,1.381,1.078.312.24.6.481.9.73.071.053.134.107.2.169.472.374.926.775,1.363,1.176.481.428.962.864,1.425,1.318.615.561,1.2,1.149,1.763,1.755.285.285.579.588.855.9.2.2.383.4.561.615C269.531,38.524,269.807,38.818,270.056,39.112Z" transform="translate(-161.085 -12.134)" fill="#fff"/>
            <g id="Group_12502" data-name="Group 12502" transform="translate(83.365)">
              <path id="Path_4481" data-name="Path 4481" d="M303.95,40.787l6.056-29.347H293.5l-6.056,29.347H258.1l-.721,3.429-.321,1.55v.018l-.071.312-.276,1.381-.873,4.231-1.167,5.584h29.347l-.588,2.832-.347,1.728-1.336,6.4v.009l-3.661,17.724-.134.659h16.5l1.078-5.264L300.521,57.3h29.347l3.42-16.5H303.95Z" transform="translate(-254.67 -11.44)" fill="#242f49" stroke="rgba(0,0,0,0)" stroke-width="1"/>
            </g>
          </g>
          <g id="Group_3_00000148622063799522111280000000506456222825892022_" transform="translate(0 5.688)">
            <g id="Group_1_00000137823288810041721280000004450305749974217897_" transform="translate(0 25.676)">
              <path id="Path_1_00000064355077915614376790000008046130938970164361_" d="M626.654-351.147q-1.082-1.042-2.218-2c-.757-.659-1.532-1.274-2.324-1.87a55.5,55.5,0,0,1,5.29,2.779c.312.187.6.374.909.579.4.24.8.49,1.2.775.8.517,1.577,1.078,2.351,1.666.383.267.775.561,1.149.873.383.276.775.6,1.149.926q1.71,1.4,3.322,2.975c.552.517,1.1,1.06,1.63,1.621s1.06,1.1,1.576,1.683l3.554-17.243v-.009l1.309-6.279.169-.837H616.358l1.79-8.6.837-4.035v-.009l.107-.517.187-.873.321-1.559-1.55-.24c-1.042-.16-2.084-.285-3.126-.383-1.06-.107-2.1-.2-3.144-.267a66.9,66.9,0,0,0-10.617.107c-.65.071-1.282.134-1.906.214a45.623,45.623,0,0,0-7.205,1.461c-1.06.312-2.057.659-3.037,1.042a24.859,24.859,0,0,0-2.8,1.283,22.206,22.206,0,0,0-3.287,2.1c-.49.383-.971.793-1.425,1.211a16.2,16.2,0,0,0-3.741,5.237c-12.184,1.274-16.7,7.482-18.223,17.679.2-.24.4-.472.615-.695s.419-.445.624-.659a8.228,8.228,0,0,1,.668-.6,13.94,13.94,0,0,1,2.885-1.951,7.769,7.769,0,0,1,.775-.374,11.758,11.758,0,0,1,2.138-.757,4.859,4.859,0,0,1,.517-.134,13.072,13.072,0,0,1,2.164-.383c.232-.027.445-.036.659-.053.445-.036.9-.053,1.354-.053.383,0,.793.009,1.175.036a8.588,8.588,0,0,1,.962.08,1.141,1.141,0,0,1,.169.009c.338.036.668.08,1.006.134.374.071.748.134,1.14.214a12.561,12.561,0,0,1,1.363.321c.312.08.615.169.926.267q.561.16,1.149.374c.383.134.757.276,1.149.428h.009c.374.16.757.321,1.149.49a.148.148,0,0,1,.1.036c.356.16.7.338,1.069.508.383.187.757.383,1.149.588a37.28,37.28,0,0,1,4.56,2.912q.561.414,1.122.855c.267.2.517.4.775.615.561.472,1.122.962,1.683,1.461.454.419.909.855,1.354,1.291.24.241.472.472.695.7.686.7,1.363,1.443,2.013,2.218.16.2.321.4.49.6.338.4.659.8.971,1.211.214.267.419.534.615.819.2.267.4.552.6.828s.4.561.588.837c.2.276.383.579.579.864.285.445.588.9.864,1.363.338.552.668,1.1.989,1.683.027.036.053.1.08.134.027.053.071.107.1.16.071.134.142.267.214.419q.574,1.042,1.1,2.138c.374.775.748,1.559,1.1,2.378.347.8.668,1.63.989,2.467.026.071.054.116.08.187.134.374.276.757.419,1.149.08.276.169.561.267.837.143.445.285.873.427,1.336.116.383.232.793.348,1.2s.232.819.321,1.211c.1.347.169.686.249,1.033.187.837.374,1.683.534,2.556.08.428.16.855.232,1.292s.134.873.2,1.318c.053.427.116.855.169,1.291s.1.873.142,1.318c.036.517.1,1.042.134,1.576.027.4.053.8.071,1.211.027.508.053,1.015.071,1.532.009.579.027,1.149.027,1.728s-.009,1.176-.027,1.772c0,.1,0,.2-.009.312-.009.347-.027.695-.036,1.051q-.014.468-.053.935c-.035.686-.1,1.363-.16,2.04-.054.615-.116,1.238-.2,1.861-.036.285-.071.579-.107.855s-.08.579-.116.864c-.107.721-.232,1.452-.357,2.191-.107.588-.231,1.185-.347,1.79s-.249,1.211-.383,1.835c-.579,2.458-1.282,4.952-2.146,7.508,1.033-.133,2.04-.276,3.046-.454a.053.053,0,0,1,.036-.009c.321-.053.65-.107.944-.187.2-.027.4-.071.588-.107.472-.1.935-.187,1.407-.285.989-.232,1.968-.472,2.939-.73a.237.237,0,0,0,.107-.027c.374-.116.757-.232,1.14-.347.356-.107.7-.214,1.069-.339q.414-.12.828-.267c.169-.053.339-.107.49-.16.16-.071.321-.116.49-.187.383-.134.757-.267,1.14-.419.561-.2,1.122-.427,1.683-.659a.282.282,0,0,0,.133-.053c.187-.071.374-.143.561-.232.267-.116.552-.24.819-.374.321-.133.623-.267.935-.419.1-.036.2-.1.285-.134a5.856,5.856,0,0,0,.588-.276c.285-.134.588-.276.873-.445a4.047,4.047,0,0,0,.4-.187.568.568,0,0,0,.1-.053c.232-.116.472-.241.695-.374.071-.027.134-.071.214-.107a1.868,1.868,0,0,0,.267-.134v-.009c.962-.517,1.906-1.069,2.841-1.63a.048.048,0,0,0,.036-.027q1.029-.628,2.031-1.309c.071-.036.116-.08.187-.116.338-.232.686-.454,1.007-.695.24-.169.481-.347.721-.517a2.871,2.871,0,0,0,.338-.232l.427-.321c.481-.347.944-.7,1.416-1.078.65-.508,1.283-1.042,1.906-1.577.837-.695,1.656-1.443,2.458-2.209s1.576-1.532,2.325-2.342a61.261,61.261,0,0,0,4.284-5.041C643.648-327.029,636.781-341.43,626.654-351.147Zm-28.919-19.434c-.481.107-.962.232-1.443.356-.16.2-.321.4-.49.579-2.111,2.28-5.469,3.153-9.387.321,5.611-.107,8.755-2.191,16.584-2.084-.445.036-.873.08-1.309.134-.214.027-.427.053-.623.08-.49.071-.989.143-1.461.232-.49.1-.989.187-1.461.312A2.282,2.282,0,0,0,597.735-370.581Zm49.672,38.013c.855,1.247,1.692,2.529,2.494,3.865.419.668.828,1.354,1.211,2.031.419.686.8,1.381,1.185,2.084.338.588.659,1.185.971,1.79.445.837.873,1.71,1.318,2.583.232-.508.445-1.015.659-1.523.133-.321.267-.65.4-.971.035-.107.1-.232.134-.339s.1-.24.133-.347a1.6,1.6,0,0,0,.071-.187c.133-.347.267-.686.383-1.033,0-.009.009-.036.009-.053.2-.561.4-1.14.588-1.71.383-1.184.73-2.387,1.042-3.6a1.421,1.421,0,0,0,.071-.232c.49-1.977.909-3.972,1.211-5.976h-14.5C645.705-335,646.569-333.807,647.406-332.568Zm-63.557-17.163a38.348,38.348,0,0,1,4.329,5.718c.241.374.454.73.659,1.1.419.748.775,1.487,1.1,2.209.187.428.356.837.517,1.256.107.312.214.6.312.9.107.285.187.579.267.855.116.428.231.837.32,1.256.009.053.009.1.027.116.053.276.107.561.16.828a17.95,17.95,0,0,1,.241,4.052,3.579,3.579,0,0,1-.027.428v.08a3.86,3.86,0,0,1-.053.454,16.694,16.694,0,0,1-.49,2.663c-.009.053-.027.107-.036.16a.07.07,0,0,1-.009.027,3.839,3.839,0,0,1-.16.517.2.2,0,0,1-.027.1c-.071.232-.142.454-.232.668-.009.036-.027.08-.036.107a9.911,9.911,0,0,1-.428,1.069A18.418,18.418,0,0,1,589.158-323c-.214.347-.445.695-.668,1.033-.009.027-.036.036-.053.071a.09.09,0,0,1-.009.027.409.409,0,0,0-.053.08.1.1,0,0,1-.027.053c-.009.009-.027.009-.027.027q-.174.254-.374.508a2.2,2.2,0,0,1-.187.241,11.9,11.9,0,0,1-.8.971c-.169.214-.374.428-.561.624l-.035.036a2.195,2.195,0,0,1-.25.249v.009c-.107.107-.214.232-.338.339-.187.2-.374.374-.561.561q-.935.868-1.977,1.683t-2.164,1.523c-.374.24-.748.472-1.14.695l-.009.009c-.383.231-.793.445-1.176.659-.311.16-.6.321-.908.472a2.525,2.525,0,0,1-.321.143c-.2.107-.4.2-.6.285a1.971,1.971,0,0,1-.187.08c-.321.143-.659.285-.989.428a1.565,1.565,0,0,1-.214.1,2.079,2.079,0,0,1-.249.1c-.214.1-.427.169-.659.249a.64.64,0,0,1-.16.071,4,4,0,0,1-.454.169.277.277,0,0,0-.08.027.484.484,0,0,1-.071.009.122.122,0,0,1-.1.036c-.339.116-.668.241-1.016.347-.107.036-.2.071-.312.1-.926.285-1.861.552-2.806.757-.686.16-1.38.285-2.057.419-.241.036-.481.08-.7.107-.116.027-.231.036-.338.053a36.986,36.986,0,0,1-3.705.347c-.508.027-1.033.036-1.55.036a32.423,32.423,0,0,1-7.437-.819c-.445-.107-.864-.214-1.291-.338a9.72,9.72,0,0,1-.944-.276c-.267-.08-.552-.16-.819-.267a.2.2,0,0,1-.1-.027c-.161-.053-.312-.107-.472-.169a20.525,20.525,0,0,1-2.6-1.14c-.347-.169-.668-.347-1.006-.534a7.263,7.263,0,0,1-.721-.4c-.534-.321-1.042-.659-1.55-1.015.285.508.6,1.015.926,1.514.036.08.1.16.142.241l.16.24.383.588a6.648,6.648,0,0,0,.454.695c.187.312.4.6.615.908s.445.615.668.908c.169.249.374.481.561.73.312.4.6.8.908,1.184-.009.009-.009.009.009.027a.21.21,0,0,0,.08.107,4.041,4.041,0,0,0,.4.49c0,.027.009.036.053.071,0,.027.009.036.053.053v.009s-.009.009.027.009c.107.134.214.267.321.383.107.134.214.249.32.383.009.009.009.009.009.027s.009.036.053.071a.077.077,0,0,0,.036.053c.142.169.285.347.454.516.214.267.445.517.668.775a2.774,2.774,0,0,0,.267.285c.561.65,1.14,1.256,1.754,1.861l.187.187c.312.312.623.624.944.926.2.214.419.4.624.6.142.116.285.249.445.4.009.027.009.027.027.027.142.142.312.276.454.4q.521.508,1.069.962c.338.285.686.579,1.033.855s.695.579,1.06.837c.695.552,1.407,1.078,2.12,1.6s1.452,1.015,2.209,1.514l1.122.721c.748.481,1.523.935,2.3,1.381l.454.249c.383.232.775.428,1.176.65l.383.2c.579.285,1.14.588,1.728.864.748.356,1.5.7,2.253,1.042.419.187.828.356,1.247.517s.828.338,1.256.49.837.321,1.273.472c.419.16.82.312,1.238.445,1.755.579,3.518,1.078,5.317,1.514.552.134,1.1.249,1.639.356.347.08.7.142,1.06.214.214.036.427.08.659.116.142.027.312.053.454.08.65.107,1.291.214,1.95.312s1.336.169,2,.24c.615.071,1.238.116,1.844.169.08,0,.169.009.267.009.65.053,1.291.08,1.95.107.686.027,1.363.054,2.04.054C606.623-306.17,606.311-336.487,583.849-349.731Zm3.937,11.267c0,.009,0,.009-.009.027v.045l-.009.009v.009a1.276,1.276,0,0,1-.08.356c-.071.312-.134.6-.232.9a7,7,0,0,1-.24.73.1.1,0,0,1-.009.053,1.859,1.859,0,0,1-.187.481,7.71,7.71,0,0,1-.516,1.1,12.4,12.4,0,0,1-.722,1.14,5.157,5.157,0,0,1-.356.481c-.133.16-.276.339-.427.49a3.574,3.574,0,0,1-.445.454,12.922,12.922,0,0,1-1.238,1.06,7,7,0,0,1-.65.454c-.214.143-.445.276-.668.419a9.362,9.362,0,0,1-.935.508c-.169.08-.356.169-.552.249a19.679,19.679,0,0,1-4.382,1.336c-.427.08-.855.142-1.309.214-.312.036-.623.08-.944.107-.134.009-.249.027-.4.036-.214.027-.445.036-.668.054-.695.036-1.416.071-2.138.071-.428,0-.855-.009-1.291-.027-.579-.027-1.167-.053-1.763-.107-.383-.027-.793-.071-1.2-.116-.855-.1-1.737-.214-2.618-.374-.561-.1-1.14-.2-1.71-.32-.374-.08-.748-.16-1.1-.249a51.692,51.692,0,0,1-9.129-3.073c-.249-.107-.508-.214-.748-.338-.356-.16-.7-.338-1.069-.508-.686-.339-1.363-.686-2.031-1.06-.615-.338-1.238-.686-1.835-1.051-.116-.08-.249-.16-.383-.241-.588-.356-1.176-.748-1.754-1.149a36.166,36.166,0,0,1-5.959-5.041c-.552-.588-1.069-1.176-1.558-1.79-.25-.312-.49-.615-.722-.926.009.588.036,1.167.08,1.755v.2c.027.472.071.935.107,1.389a.949.949,0,0,0,.009.16,7.149,7.149,0,0,0,.071.757,5.124,5.124,0,0,0,.071.659c.027.312.071.615.1.926a.465.465,0,0,0,.027.107,3.536,3.536,0,0,0,.071.534,1.317,1.317,0,0,0,.036.321,1.092,1.092,0,0,0,.027.232,1.038,1.038,0,0,0,.027.187,2.4,2.4,0,0,0,.071.454.275.275,0,0,0,.027.116c.071.481.143.962.241,1.425.08.472.16.926.249,1.38a.133.133,0,0,0,.009.053c.08.419.16.828.25,1.238.027.143.071.285.107.445.08.383.169.757.267,1.14.169.7.356,1.407.561,2.1.107.383.231.775.338,1.149.009.009.009.009.009.027s.009.027.009.036c.232.721.454,1.443.7,2.146.356.321.722.624,1.1.926a2.5,2.5,0,0,0,.339.267c.321.249.659.49.989.73.169.116.338.24.508.347s.338.24.508.347l.508.321c.347.214.7.427,1.06.623.775.454,1.577.855,2.4,1.238.312.142.624.276.944.418.356.16.73.312,1.1.445.009.009.036.009.054.027.347.134.7.267,1.069.383a35.405,35.405,0,0,0,3.42.962c.338.08.668.143,1.006.214.614.116,1.247.232,1.861.321.49.08.971.134,1.461.187a.245.245,0,0,0,.08.009c.241.027.481.053.722.071.49.053.989.1,1.487.107.232.009.472.027.695.027.356.027.7.027,1.069.027.686,0,1.363-.009,2.031-.053.321-.009.659-.027.971-.053l.935-.08c.285-.027.561-.054.837-.1q.521-.053,1.015-.134c.419-.053.828-.134,1.247-.2.053-.009.116-.027.187-.036.347-.071.686-.134,1.015-.214a.363.363,0,0,0,.1-.009.546.546,0,0,0,.116-.027c.454-.107.909-.214,1.354-.338s.9-.24,1.318-.374c.383-.116.757-.241,1.14-.374.793-.267,1.55-.579,2.28-.9.312-.134.6-.276.909-.428.339-.16.668-.338,1.007-.508.276-.16.561-.321.837-.481.419-.24.8-.481,1.185-.73.249-.169.508-.347.757-.534a9.951,9.951,0,0,0,.837-.65c.276-.232.552-.454.8-.686.267-.232.516-.472.757-.7.2-.2.383-.383.561-.588l.321-.347c.187-.2.356-.419.517-.624.2-.249.4-.508.579-.757.2-.276.383-.561.561-.837a.009.009,0,0,0,.009-.009c.16-.276.338-.561.481-.855a9.387,9.387,0,0,0,.445-.9c.134-.285.249-.6.374-.926.107-.312.214-.623.312-.944s.169-.623.249-.944v-.053a9.622,9.622,0,0,0,.169-.971A14.2,14.2,0,0,0,587.786-338.465Z" transform="translate(-535.79 382.16)" fill-rule="evenodd" fill="url(#radial-gradient)"/>
              <path id="Path_2_00000157295877687099808630000008108394334803952567_" d="M535.79-339.35a63.223,63.223,0,0,0,.695,7.775c15.364,14.429,50.509,15.729,51.284-2.218C584.589-315.712,548.464-322.232,535.79-339.35Z" transform="translate(-535.79 377.478)" fill-rule="evenodd" fill="url(#linear-gradient)"/>
              <path id="Path_3_00000163042612014053794800000016632140894349668757_" d="M584.9-345.74c25.909,28.625-18.009,50.758-39.527,35.483A62.612,62.612,0,0,0,558.462-294.6C590.152-292.194,609.2-325.691,584.9-345.74Z" transform="translate(-536.837 378.177)" fill-rule="evenodd" fill="url(#radial-gradient-2)"/>
              <path id="Path_4_00000044138314038481920620000006638906571780725172_" d="M562.48-349.158c16.272-19.826,64.011,14.669,46.091,67.645a61.706,61.706,0,0,0,21.785-6.965C632.1-343.013,578.235-376.768,562.48-349.158Z" transform="translate(-538.708 379.627)" fill-rule="evenodd" fill="url(#radial-gradient-3)"/>
              <path id="Path_5_00000083048572612282275290000014501823714581382072_" d="M536.58-330.892c15.364,14.429,50.509,15.729,51.284-2.218C586.047-315.778,553.654-317.408,536.58-330.892Z" transform="translate(-535.876 376.796)" fill-rule="evenodd" fill="url(#radial-gradient-4)"/>
              <path id="Path_6_00000054967700057347957590000003668557641440689056_" d="M586.5-345.74c23.068,19.372,3.874,52.8-26.452,51.132C591.757-292.194,610.808-325.691,586.5-345.74Z" transform="translate(-538.443 378.177)" fill-rule="evenodd" fill="url(#radial-gradient-5)"/>
              <path id="Path_7_00000036964019692380938100000015026797732677141424_" d="M570.34-356.426c19.844-10.367,59.531,18.579,60.876,67.939C632.757-336.6,591-368.539,570.34-356.426Z" transform="translate(-539.568 379.627)" fill-rule="evenodd" fill="url(#radial-gradient-6)"/>
              <path id="Path_8_00000067955065259346802970000015041615383224108691_" d="M540.14-322.61c.3,1.042.615,2.066.962,3.082,11.151,9.637,35.314,10.59,43.7-2.44C573.691-310.524,552.8-313.454,540.14-322.61Z" transform="translate(-536.265 375.648)" fill-rule="evenodd" fill="url(#linear-gradient-2)"/>
              <path id="Path_9_00000057143696364128660960000004416553271031390082_" d="M585.76-282.167a60.614,60.614,0,0,0,16.058,2.583c6.234-15.987,7.9-36.739-1.238-51.426C610.351-310.819,597.3-289.345,585.76-282.167Z" transform="translate(-541.254 376.566)" fill-rule="evenodd" fill="url(#linear-gradient-3)"/>
              <path id="Path_4482" data-name="Path 4482" d="M625.348-379.374l-.187.873-1.55.116,1.443.4v.009l-.837,4.035c-11.089-4.284-22.534-5.469-33.016-1.318C599.928-381,614.357-381.164,625.348-379.374Zm15.31,14.046A109.981,109.981,0,0,1,650.3-358.2l1.309-6.279c-.374-.285-.748-.579-1.122-.837h-9.842v-.009Z" transform="translate(-541.849 381.965)" fill-rule="evenodd" fill="url(#linear-gradient-4)"/>
            </g>
            <g id="Group_2_00000063593325942999070620000005346055570507249560_" transform="translate(0.153 0)">
              <path id="Path_4483" data-name="Path 4483" d="M634.392-369.723a53.436,53.436,0,0,0-8-5.959.009.009,0,0,0-.009-.009c-.65-.383-1.291-.757-1.968-1.122-.418-.24-.828-.472-1.256-.695,0-.009,0-.009-.009-.009-.285-.142-.6-.285-.909-.445-.24-.134-.49-.249-.73-.374a.009.009,0,0,0-.009-.009c-.356-.16-.721-.321-1.078-.481-.2-.1-.4-.187-.6-.267-.561-.249-1.14-.49-1.71-.721l-.009-.009a.627.627,0,0,1-.2-.071,1.259,1.259,0,0,0-.16-.071c-.588-.232-1.176-.445-1.772-.65-.454-.16-.909-.321-1.363-.463a.171.171,0,0,0-.107-.036c-.49-.142-.989-.312-1.487-.454a.87.87,0,0,1-.2-.053c-.187-.053-.383-.107-.579-.16l-1.247-.321c-.6-.143-1.211-.276-1.826-.419a54.7,54.7,0,0,0-10.064-1.167h-.035c-1.14-.027-2.271-.018-3.411.027h-.134c-.419.027-.828.036-1.247.071-1.38.1-2.734.232-4.079.419q-2.685.374-5.29,1.006a4.7,4.7,0,0,1-.534.134c-.321.071-.65.16-.962.249-1.238.338-2.449.7-3.634,1.122-.356.134-.73.267-1.1.383-1.256.481-2.485.989-3.705,1.532a58.757,58.757,0,0,0-7.882,4.435c0,.027-.009.027-.027.027a2.826,2.826,0,0,1-.285.2,58.822,58.822,0,0,0-7.481,6.2,1.083,1.083,0,0,1-.143.143c-.285.285-.588.6-.9.9-.9.935-1.764,1.906-2.574,2.9-.187.24-.383.472-.579.7-.134.143-.249.312-.374.472-.2.267-.418.534-.623.819-.2.249-.383.508-.579.757-.133.169-.267.356-.383.534-.142.214-.285.428-.454.659a1.68,1.68,0,0,0-.107.16c-.232.347-.472.695-.695,1.042-.009,0-.009,0,0,.009-.214.321-.419.65-.623.962-.036.053-.071.107-.1.142-.214.347-.427.7-.65,1.069v.009c-.16.249-.312.517-.454.793-.071.107-.116.2-.187.312-.285.517-.561,1.042-.828,1.559-.071.142-.143.285-.232.445a4.316,4.316,0,0,0-.276.579c-.08.16-.16.321-.241.49-.071.116-.116.249-.187.383-.133.267-.249.552-.356.819a1.948,1.948,0,0,0-.169.374,2.464,2.464,0,0,0-.134.321,2.1,2.1,0,0,0-.16.356c-.116.267-.232.552-.339.819-.08.2-.16.4-.24.6-.142.356-.276.7-.4,1.069a4.959,4.959,0,0,0-.169.472c-.071.169-.116.347-.169.517-.08.232-.16.472-.241.695-.1.285-.187.579-.267.855-.134.419-.267.828-.374,1.247-.134.454-.249.909-.374,1.363a.834.834,0,0,1-.071.267c-.1.347-.169.695-.24,1.042-.1.383-.187.757-.249,1.149-.142.686-.276,1.354-.374,2.031-.071.347-.116.695-.169,1.042-.071.383-.116.775-.16,1.167a1.643,1.643,0,0,0-.027.169c-.107.855-.2,1.728-.25,2.583a.4.4,0,0,0-.009.1,54.837,54.837,0,0,0-.107,6.3v.009c-.7-.5-1.389-1.033-2.066-1.576a.009.009,0,0,1-.009-.009c-.552-.472-1.1-.935-1.63-1.416a11.591,11.591,0,0,1-.944-.926c-.312-.285-.6-.6-.9-.926-.579-.615-1.14-1.256-1.657-1.924v-.009c.071-.962.16-1.906.276-2.859.009-.116.027-.24.035-.356.169-1.416.4-2.814.668-4.195,0-.009.009-.027.009-.036.276-1.452.623-2.9,1.015-4.328q.6-2.244,1.38-4.409c.134-.383.276-.775.427-1.167a61.71,61.71,0,0,1,8.283-15.132c.267-.374.552-.748.837-1.1a62.648,62.648,0,0,1,12.309-11.961c.695-.508,1.407-1.006,2.12-1.5.828-.552,1.684-1.1,2.538-1.6.775-.472,1.559-.926,2.36-1.363q2.565-1.4,5.29-2.565,1.977-.842,4.052-1.559c.454-.16.909-.312,1.38-.454,1.354-.445,2.725-.828,4.124-1.176.49-.116,1.006-.241,1.514-.347,1.247-.276,2.512-.508,3.794-.7,1.692-.267,3.429-.454,5.166-.588.926-.053,1.861-.107,2.8-.134.534,0,1.06-.009,1.594-.009a62.414,62.414,0,0,1,6.475.339c.427.053.855.1,1.283.143s.837.107,1.274.169c1.185.169,2.378.383,3.554.624.143.036.312.071.463.1.339.08.659.142.971.232.828.187,1.639.4,2.458.615.4.116.819.232,1.211.347a62.237,62.237,0,0,1,6.956,2.529c.418.2.828.374,1.247.561.383.169.757.356,1.14.534l1.122.561c.356.187.73.374,1.1.579.73.383,1.452.8,2.182,1.211.356.214.7.427,1.069.65,1.06.659,2.1,1.336,3.117,2.04.338.24.668.481,1.006.721s.668.49,1.006.748c.472.347.935.7,1.38,1.078.312.24.6.481.9.73.071.053.134.107.205.169.472.374.926.775,1.363,1.176.481.428.962.864,1.425,1.318.614.561,1.2,1.149,1.763,1.755.285.285.579.588.855.9.2.2.383.4.561.614.267.285.534.588.793.873H634.445v-.027Z" transform="translate(-535.85 391.01)" fill-rule="evenodd" fill="url(#radial-gradient-7)"/>
              <path id="Path_4484" data-name="Path 4484" d="M640.124-369.277h-5.282a53.213,53.213,0,0,0-8.025-5.959.009.009,0,0,0-.009-.009c-1.042-.65-2.12-1.256-3.215-1.826,0-.009,0-.009-.009-.009-.534-.276-1.1-.561-1.639-.819a.009.009,0,0,0-.009-.009c-.49-.232-.971-.454-1.487-.668-.623-.285-1.273-.561-1.906-.8l-.009-.009a2.9,2.9,0,0,0-.356-.134c-.73-.285-1.487-.579-2.227-.819a7.571,7.571,0,0,0-.9-.285.172.172,0,0,0-.107-.036c-.49-.16-.989-.312-1.487-.454a1.741,1.741,0,0,0-.2-.053c-.187-.053-.383-.107-.579-.16q-.361-.107-.695-.187c-.187-.053-.374-.1-.561-.143-.552-.134-1.078-.249-1.63-.374a.958.958,0,0,0-.169-.027c-.009-.009-.009-.009-.027-.009-.561-.116-1.14-.232-1.71-.338-.08-.009-.143-.027-.214-.036-.481-.08-.962-.16-1.443-.232-.214-.027-.445-.071-.659-.1-.49-.071-1.006-.116-1.514-.187h-.1c-.588-.071-1.185-.107-1.772-.16-.428-.027-.864-.053-1.292-.071-.374-.027-.748-.036-1.14-.036-.49-.027-.988-.027-1.487-.027-.695,0-1.389.009-2.084.036h-.08a.672.672,0,0,0-.134.009c-.276,0-.579.009-.855.036-.347.009-.686.036-1.033.071l-.971.08c-.374.036-.748.071-1.1.116s-.7.08-1.06.116c-.321.053-.623.1-.935.143-.241.027-.472.071-.695.107l-1.283.214c-.73.143-1.47.285-2.191.472-.338.08-.686.16-1.015.249-.321.071-.65.16-.962.249-.356.1-.721.187-1.069.285-.419.116-.837.25-1.256.383-.445.134-.873.276-1.309.445-.374.116-.73.249-1.1.383-.445.16-.873.339-1.309.508-.73.285-1.452.6-2.182.926-.071.036-.134.071-.214.107-.4.187-.8.374-1.185.561s-.775.383-1.167.588c-.73.374-1.452.757-2.164,1.176-1.149.668-2.271,1.38-3.367,2.111,0,.009-.009.009-.027.009-.1.08-.187.143-.285.214-.614.419-1.2.837-1.8,1.291-1.033.757-2.031,1.576-3,2.422-.338.276-.659.561-.962.837-.588.534-1.167,1.078-1.728,1.639a.724.724,0,0,0-.143.142c-.312.285-.6.6-.9.9-.9.935-1.764,1.906-2.574,2.9-.2.241-.4.472-.579.7-.134.143-.249.312-.374.472a9,9,0,0,0-.623.819c-.205.249-.383.508-.579.757-.133.169-.267.356-.383.534-.16.214-.312.445-.454.659a1.668,1.668,0,0,0-.107.16c-.24.347-.481.695-.695,1.042-.009,0-.009,0,0,.009a2.125,2.125,0,0,0-.276.419c-.116.169-.24.356-.347.552-.035.053-.071.107-.1.142-.214.347-.427.7-.65,1.069v.009a4.514,4.514,0,0,0-.285.481c-.054.107-.107.2-.16.312-.071.107-.134.214-.187.312-.285.516-.561,1.042-.828,1.559-.08.142-.16.285-.231.445a4.313,4.313,0,0,0-.276.579,3.573,3.573,0,0,0-.24.49c-.071.116-.116.249-.187.383-.134.267-.249.552-.356.819a1.957,1.957,0,0,0-.169.374,2.452,2.452,0,0,0-.134.321,2.1,2.1,0,0,0-.16.356c-.116.267-.232.552-.338.819-.1.2-.169.4-.241.6-.142.356-.276.7-.4,1.069a5.015,5.015,0,0,0-.169.472c-.071.169-.116.347-.169.517-.1.24-.169.472-.24.695-.1.285-.187.579-.267.855-.134.419-.267.828-.374,1.247-.134.454-.25.908-.374,1.363-.027.1-.053.187-.071.267-.1.347-.169.695-.24,1.042-.1.383-.187.757-.249,1.149-.143.686-.276,1.354-.374,2.031a8.479,8.479,0,0,0-.169,1.042c-.071.383-.116.775-.16,1.167a1.661,1.661,0,0,0-.027.169c-.107.855-.2,1.728-.249,2.583a.4.4,0,0,0-.009.1,54.808,54.808,0,0,0-.107,6.3c-.7-.508-1.39-1.033-2.075-1.576-.552-.472-1.1-.935-1.63-1.416v-.009a58.48,58.48,0,0,1,58.48-57.661A58.394,58.394,0,0,1,640.124-369.277Z" transform="translate(-536.283 390.564)" fill-rule="evenodd" fill="url(#radial-gradient-8)"/>
            </g>
          </g>
        </g>
      </g>
    </g>
  </g>
</svg>
