<svg xmlns="http://www.w3.org/2000/svg" xmlns:xlink="http://www.w3.org/1999/xlink" width="28.13" height="31.335" viewBox="0 0 28.13 31.335">
  <defs>
    <linearGradient id="linear-gradient" x1="0.808" y1="0.5" x2="-1.573" y2="0.5" gradientUnits="objectBoundingBox">
      <stop offset="0" stop-color="gold"/>
      <stop offset="0.075" stop-color="#fece00"/>
      <stop offset="0.48" stop-color="#fca704"/>
      <stop offset="0.803" stop-color="#fa8e07"/>
      <stop offset="1" stop-color="#fa8608"/>
    </linearGradient>
    <linearGradient id="linear-gradient-2" x1="0.862" y1="0.178" x2="-0.501" y2="1.948" gradientUnits="objectBoundingBox">
      <stop offset="0" stop-color="#e82b36"/>
      <stop offset="1" stop-color="#b4005a"/>
    </linearGradient>
    <linearGradient id="linear-gradient-3" x1="-0.507" y1="-0.956" x2="0.606" y2="0.489" gradientUnits="objectBoundingBox">
      <stop offset="0" stop-color="#2f8e5b"/>
      <stop offset="0.39" stop-color="#4ea157"/>
      <stop offset="0.768" stop-color="#67b054"/>
      <stop offset="1" stop-color="#70b653"/>
    </linearGradient>
  </defs>
  <g id="Group_8" data-name="Group 8" transform="translate(0)">
    <path id="Path_25" data-name="Path 25" d="M42.25,106.744a2.44,2.44,0,0,0-.563,1.712V135.4a2.438,2.438,0,0,0,.563,1.711l.09.089,15.093-15.093v-.356L42.34,106.656Z" transform="translate(-41.687 -106.26)" fill="#40bff2"/>
    <path id="Path_26" data-name="Path 26" d="M67.49,130.349l-5.031-5.033v-.356l5.032-5.032.113.064,5.961,3.387c1.7.967,1.7,2.55,0,3.517L67.6,130.284Z" transform="translate(-46.712 -109.471)" fill="url(#linear-gradient)"/>
    <path id="Path_27" data-name="Path 27" d="M62.759,131.947,57.614,126.8,42.43,141.984a1.982,1.982,0,0,0,2.532.075l17.8-10.112" transform="translate(-41.867 -111.133)" fill="url(#linear-gradient-2)"/>
    <path id="Path_28" data-name="Path 28" d="M62.759,116.655l-17.8-10.112a1.982,1.982,0,0,0-2.532.074L57.614,121.8Z" transform="translate(-41.867 -106.133)" fill="url(#linear-gradient-3)"/>
  </g>
</svg>
