<svg id="Twitter" xmlns="http://www.w3.org/2000/svg" width="36.667" height="36.667" viewBox="0 0 36.667 36.667">
  <path id="Combined_Shape" data-name="Combined Shape" d="M18.333,36.667A18.334,18.334,0,0,1,5.37,5.37,18.334,18.334,0,0,1,31.3,31.3,18.214,18.214,0,0,1,18.333,36.667ZM9.754,16.211c-.02,0-.031,0-.036.01a4.611,4.611,0,0,0,.462,1.735,4.126,4.126,0,0,0,1.757,1.657l.628.3-.743.013c-.461,0-.627.006-.679.074-.032.043-.016.111.012.211a3.872,3.872,0,0,0,2.4,2.123l.8.272-.693.414a7.267,7.267,0,0,1-3.436.958,3.8,3.8,0,0,0-1.052.1,9.709,9.709,0,0,0,2.475,1.139,10.366,10.366,0,0,0,3.055.446,10.684,10.684,0,0,0,5.358-1.4,11.2,11.2,0,0,0,4.271-5.023,13.428,13.428,0,0,0,.872-3.884c0-.6.042-.677.757-1.385a8.354,8.354,0,0,0,.9-1c.047-.09.075-.147.06-.172s-.02-.015-.041-.015a2.912,2.912,0,0,0-.557.162,3.612,3.612,0,0,1-.9.249c-.057,0-.091-.013-.1-.04-.028-.063.064-.2.3-.456a3.763,3.763,0,0,0,.872-1.385c0-.007-.007-.011-.021-.011a1.285,1.285,0,0,0-.389.153,7.162,7.162,0,0,1-1.129.44l-.692.22-.629-.427a5.256,5.256,0,0,0-1.09-.57A3.988,3.988,0,0,0,21.506,11a3.9,3.9,0,0,0-1.22.173,3.7,3.7,0,0,0-2.5,3.729l.039.634-.641-.078a10.464,10.464,0,0,1-6.1-3l-.846-.842-.218.621a3.746,3.746,0,0,0,.795,3.832c.232.246.328.39.3.452-.011.026-.042.038-.094.038a2.6,2.6,0,0,1-.693-.192A2.654,2.654,0,0,0,9.754,16.211Z" transform="translate(0)" fill="#fff"/>
</svg>
