<svg id="Youtube" xmlns="http://www.w3.org/2000/svg" width="36.667" height="36.667" viewBox="0 0 36.667 36.667">
  <path id="Combined_Shape" data-name="Combined Shape" d="M18.333,36.667A18.334,18.334,0,0,1,5.37,5.37,18.334,18.334,0,0,1,31.3,31.3,18.214,18.214,0,0,1,18.333,36.667Zm0-25.055c-.061,0-6.132,0-7.64.419a2.484,2.484,0,0,0-1.729,1.775,26.964,26.964,0,0,0-.409,4.833,26.964,26.964,0,0,0,.409,4.833,2.484,2.484,0,0,0,1.729,1.776c1.508.415,7.579.419,7.64.419s6.133,0,7.64-.419a2.485,2.485,0,0,0,1.73-1.776,26.964,26.964,0,0,0,.409-4.833,26.964,26.964,0,0,0-.409-4.833,2.485,2.485,0,0,0-1.73-1.775C24.466,11.617,18.394,11.612,18.333,11.612Z" transform="translate(0)" fill="#fff"/>
  <path id="Fill_2" data-name="Fill 2" d="M0,0,4.889,3.056,0,6.111Z" transform="translate(16.5 15.888)" fill="#fff"/>
</svg>
